<?xml version="1.0" encoding="UTF-8" standalone="no"?>
<!DOCTYPE svg PUBLIC "-//W3C//DTD SVG 1.1//EN" "http://www.w3.org/Graphics/SVG/1.1/DTD/svg11.dtd" >
<svg xmlns="http://www.w3.org/2000/svg">
<metadata>
Generated by SVGconv.
Copyright   : Copyright  2012 ParaType Inc., ParaType Ltd. All rights reserved.
Designer    : Dmitry Kirsanov
Foundry     : ParaType Ltd
Foundry URL : http://www.paratype.com
</metadata>
<defs>
<font id="DINPTWeb-Medium" horiz-adv-x="566" >
<font-face units-per-em="1000" ascent="1000" descent="212" >
<font-face-src>
<font-face-name/>
</font-face-src>
</font-face>
<missing-glyph horiz-adv-x="500" />
<glyph unicode="&#13;" horiz-adv-x="300" />
<glyph unicode="&#32;" horiz-adv-x="300" />
<glyph unicode="&#33;" horiz-adv-x="300" d="M96 197l-12 503h132l-12 -503zM88 124h124v-124l-124 0z" />
<glyph unicode="&#34;" horiz-adv-x="460" d="M380 480h-112v220h112zM192 480h-112v220l112 0z" />
<glyph unicode="&#35;" horiz-adv-x="620" d="M297 484h98l59 216h98l-59 -216h95l-23 -86h-95l-27 -98h95l-23 -86h-95l-59 -214h-98l59 214h-98l-58 -214h-98l58 214h-94l22 86h95l27 98h-95l23 86h95l60 216h98zM274 398l-27 -98h98l27 98z" />
<glyph unicode="&#36;" horiz-adv-x="620" d="M148 196q23 -47 54 -71.5q31 -24.5 69 -32.5l0 216l-34 7q-36 7 -68 22.5q-32 15.5 -56 40.5q-24 25 -37.5 59q-13.5 34 -13.5 79q0 42 16 76q16 34 44.5 59q28.5 25 66.5 40q38 15 82 19l0 89h86v-92q68 -9 117.5 -40q49.5 -31 79.5 -91l-103 -45q-20 34 -43 51.5q-23 17.5 -51 23.5l0 -201l34 -8q84 -18 133.5 -67q49.5 -49 49.5 -132q0 -44 -17 -80q-17 -36 -46 -62.5q-29 -26.5 -68.5 -43q-39.5 -16.5 -85.5 -21.5l0 -91h-86v92q-84 8 -137 47.5q-53 39.5 -88 109.5zM454 189q0 42 -25 66.5q-25 24.5 -72 35.5l0 -200q45 8 71 34q26 26 26 64zt0 0zM178 519q0 -38 24.5 -62q24.5 -24 68.5 -35l0 187q-39 -6 -66 -29t-27 -61z" />
<glyph unicode="&#37;" horiz-adv-x="852" d="M362 468q-13 -49 -50 -73.5q-37 -24.5 -87 -24.5q-50 0 -87 24.5q-37 24.5 -50 73.5q-5 20 -6.5 36q-1.5 16 -1.5 36q0 21 1.5 36.5q1.5 15.5 6.5 35.5q13 49 50 73.5q37 24.5 87 24.5q50 0 87 -24.5q37 -24.5 50 -73.5q5 -20 6.5 -35.5q1.5 -15.5 1.5 -36.5q0 -20 -1.5 -36q-1.5 -16 -6.5 -36zt0 0zM225 440q19 0 32 8q13 8 20 21.5q7 13.5 10 32q3 18.5 3 38.5q0 20 -3 38.5q-3 18.5 -10 32q-7 13.5 -20 21.5q-13 8 -32 8q-20 0 -32.5 -8q-12.5 -8 -19.5 -21.5q-7 -13.5 -10 -32q-3 -18.5 -3 -38.5q0 -20 3 -38.5q3 -18.5 10 -32q7 -13.5 19.5 -21.5q12.5 -8 32.5 -8zt0 0zM176 -20l415 740h86l-415 -740zM764 88q-13 -49 -50 -73.5q-37 -24.5 -87 -24.5q-50 0 -87 24.5q-37 24.5 -50 73.5q-5 20 -6.5 36q-1.5 16 -1.5 36q0 21 1.5 36.5q1.5 15.5 6.5 35.5q13 49 50 73.5q37 24.5 87 24.5q50 0 87 -24.5q37 -24.5 50 -73.5q5 -20 6.5 -35.5q1.5 -15.5 1.5 -36.5q0 -20 -1.5 -36q-1.5 -16 -6.5 -36zt0 0zM627 60q19 0 32 8q13 8 20 21.5q7 13.5 10 32q3 18.5 3 38.5q0 20 -3 38.5q-3 18.5 -10 32q-7 13.5 -20 21.5q-13 8 -32 8q-20 0 -32.5 -8q-12.5 -8 -19.5 -21.5q-7 -13.5 -10 -32q-3 -18.5 -3 -38.5q0 -20 3 -38.5q3 -18.5 10 -32q7 -13.5 19.5 -21.5t32.5 -8z" />
<glyph unicode="&#38;" horiz-adv-x="660" d="M477 54q-77 -66 -192 -66q-47 0 -90 12.5q-43 12.5 -77 37.5q-34 25 -54 62q-20 37 -20 87q0 34 11 62q11 28 31 52.5q20 24.5 49.5 47q29.5 22.5 66.5 45.5q-32 41 -57.5 81.5q-25.5 40.5 -25.5 83.5q0 37 15 66q15 29 40.5 48q25.5 19 59 29q33.5 10 71.5 10q36 0 69.5 -10.5q33.5 -10.5 59 -31q25.5 -20.5 41 -51q15.5 -30.5 15.5 -70.5q0 -26 -6.5 -49q-6.5 -23 -21.5 -45.5q-15 -22.5 -40 -45.5q-25 -23 -63 -48l123 -154q9 12 17.5 27q8.5 15 15.5 31.5q7 16.5 12.5 32.5q5.5 16 8.5 30l107 -35q-5 -20 -13.5 -42.5q-8.5 -22.5 -20 -45q-11.5 -22.5 -26.5 -44.5q-15 -22 -31 -40l98 -121h-130zM271 309q-54 -32 -78.5 -60q-24.5 -28 -24.5 -66q0 -46 32 -69.5q32 -23.5 85 -23.5q41 0 73 13.5q32 13.5 52 33.5zM235 549q0 -26 15.5 -49.5q15.5 -23.5 38.5 -52.5q51 31 68 54.5q17 23.5 17 47.5q0 32 -20 47.5q-20 15.5 -49 15.5q-27 0 -48.5 -14t-21.5 -49z" />
<glyph unicode="&#39;" horiz-adv-x="272" d="M192 480h-112v220l112 0z" />
<glyph unicode="&#40;" horiz-adv-x="360" d="M94 588q14 88 54 144.5q40 56.5 94 82.5l58 -96q-35 -20 -57.5 -58q-22.5 -38 -31.5 -98q-6 -38 -8.5 -95q-2.5 -57 -2.5 -118q0 -61 3 -118q3 -57 8 -95q7 -50 27 -90.5q20 -40.5 62 -65.5l-58 -96q-54 26 -94 82q-40 56 -54 145q-3 21 -6 49.5q-3 28.5 -4.5 60.5q-1.5 32 -2.5 65q-1 33 -1 63q0 30 1 63q1 33 2.5 65q1.5 32 4.5 60.5t6 49.5z" />
<glyph unicode="&#41;" horiz-adv-x="360" d="M266 112q-14 -88 -54 -144.5q-40 -56.5 -94 -82.5l-58 96q35 20 57.5 58q22.5 38 31.5 98q6 38 8.5 95q2.5 57 2.5 118q0 61 -3 118q-3 57 -8 95q-7 50 -27 90.5q-20 40.5 -62 65.5l58 96q54 -26 94 -82q40 -56 54 -145q3 -21 6 -49.5q3 -28.5 4.5 -60.5q1.5 -32 2.5 -65q1 -33 1 -63q0 -30 -1 -63q-1 -33 -2.5 -65q-1.5 -32 -4.5 -60.5t-6 -49.5z" />
<glyph unicode="&#42;" horiz-adv-x="500" d="M284 589l90 64l40 -65l-99 -58l99 -59l-40 -65l-90 64l5 -110h-78l6 110l-90 -64l-41 65l100 59l-100 58l41 65l90 -64l-6 111l78 0z" />
<glyph unicode="&#43;" horiz-adv-x="620" d="M356 346h154v-92h-154v-154h-92v154h-154v92h154v154l92 0z" />
<glyph unicode="&#44;" horiz-adv-x="292" d="M84 124h124v-154l-124 -116z" />
<glyph unicode="&#45;" horiz-adv-x="348" d="M54 320h240v-100l-240 0z" />
<glyph unicode="&#46;" horiz-adv-x="292" d="M84 124h124v-124l-124 0z" />
<glyph unicode="&#47;" horiz-adv-x="366" d="M95 -80h-95l270 860l96 0z" />
<glyph unicode="&#48;" horiz-adv-x="620" d="M558 192q-19 -94 -84.5 -148q-65.5 -54 -163.5 -54q-98 0 -163.5 54q-65.5 54 -84.5 148q-4 21 -6.5 38q-2.5 17 -3.5 35q-1 18 -1.5 38.5q-0.5 20.5 -0.5 46.5q0 26 0.5 46.5q0.5 20.5 1.5 38.5q1 18 3.5 35q2.5 17 6.5 38q19 94 84.5 148q65.5 54 163.5 54q98 0 163.5 -54q65.5 -54 84.5 -148q4 -21 6.5 -38q2.5 -17 3.5 -35q1 -18 1.5 -38.5q0.5 -20.5 0.5 -46.5q0 -26 -0.5 -46.5q-0.5 -20.5 -1.5 -38.5q-1 -18 -3.5 -35q-2.5 -17 -6.5 -38zt0 0zM310 86q30 0 52.5 9.5q22.5 9.5 38 26q15.5 16.5 25.5 38.5q10 22 14 47q3 18 5 33.5q2 15.5 3 31.5q1 16 1.5 34.5q0.5 18.5 0.5 43.5q0 25 -0.5 43.5q-0.5 18.5 -1.5 34.5q-1 16 -3 31.5q-2 15.5 -5 33.5q-4 25 -14 47q-10 22 -25.5 38.5q-15.5 16.5 -38 26q-22.5 9.5 -52.5 9.5q-30 0 -52.5 -9.5q-22.5 -9.5 -38.5 -26q-16 -16.5 -26 -38.5q-10 -22 -14 -47q-3 -18 -5 -33.5q-2 -15.5 -2.5 -31.5q-0.5 -16 -1 -34.5q-0.5 -18.5 -0.5 -43.5q0 -25 0.5 -43.5q0.5 -18.5 1 -34.5q0.5 -16 2.5 -31.5q2 -15.5 5 -33.5q4 -25 14 -47q10 -22 26 -38.5q16 -16.5 38.5 -26t52.5 -9.5z" />
<glyph unicode="&#49;" horiz-adv-x="620" d="M375 96h130v-96h-376v96h130v488l-144 -100v116l144 100l116 0z" />
<glyph unicode="&#50;" horiz-adv-x="620" d="M70 0v88l242 243q25 25 46.5 48q21.5 23 37.5 45q16 22 25 44q9 22 9 47q0 45 -29.5 72q-29.5 27 -82.5 27q-45 0 -79 -22.5q-34 -22.5 -56 -76.5l-103 39q15 42 40.5 72q25.5 30 57.5 48.5q32 18.5 68.5 27q36.5 8.5 74.5 8.5q41 0 82 -11q41 -11 73.5 -35q32.5 -24 53 -61.5q20.5 -37.5 20.5 -89.5q0 -38 -12 -70.5q-12 -32.5 -33.5 -64q-21.5 -31.5 -50.5 -62.5q-29 -31 -62 -64l-157 -156h307l0 -96z" />
<glyph unicode="&#51;" horiz-adv-x="620" d="M231 412h66q48 0 81.5 25q33.5 25 33.5 79q0 51 -30.5 74.5q-30.5 23.5 -81.5 23.5q-41 0 -78 -23q-37 -23 -60 -78l-100 46q14 29 36 56.5q22 27.5 52.5 48.5q30.5 21 69 33.5q38.5 12.5 85.5 12.5q56 0 98.5 -15q42.5 -15 70.5 -40q28 -25 42 -58.5q14 -33.5 14 -70.5q0 -53 -25.5 -92.5q-25.5 -39.5 -73.5 -62.5l0 -4q56 -20 87.5 -61.5q31.5 -41.5 31.5 -103.5q0 -47 -17.5 -86q-17.5 -39 -50 -67q-32.5 -28 -78 -43.5q-45.5 -15.5 -101.5 -15.5q-55 0 -96 12.5q-41 12.5 -71.5 34q-30.5 21.5 -51.5 50.5q-21 29 -34 62l102 43q18 -45 53 -75.5q35 -30.5 95 -30.5q57 0 93.5 29q36.5 29 36.5 90q0 57 -36.5 84q-36.5 27 -96.5 27l-66 0z" />
<glyph unicode="&#52;" horiz-adv-x="620" d="M353 536l-189 -283h189zM353 157h-319v96l301 447h134v-447h101v-96h-101v-157l-116 0z" />
<glyph unicode="&#53;" horiz-adv-x="620" d="M320 389q-39 0 -68 -16.5q-29 -16.5 -54 -54.5l-110 0v382h428v-96h-312v-171q32 29 64.5 40.5q32.5 11.5 76.5 11.5q70 0 118.5 -36.5q48.5 -36.5 67.5 -98.5q8 -28 11.5 -52q3.5 -24 3.5 -61q0 -37 -3.5 -60.5q-3.5 -23.5 -11.5 -50.5q-9 -31 -29 -56q-20 -25 -48 -43q-28 -18 -63.5 -27.5q-35.5 -9.5 -75.5 -9.5q-91 0 -150.5 38q-59.5 38 -90.5 107l102 43q19 -41 49.5 -66.5q30.5 -25.5 86.5 -25.5q41 0 65.5 17.5q24.5 17.5 34.5 44.5q8 21 11 39q3 18 3 50q0 32 -3 50.5q-3 18.5 -11 40.5q-10 26 -31.5 43.5t-60.5 17.5z" />
<glyph unicode="&#54;" horiz-adv-x="620" d="M188 509q-8 -29 -10 -58q-2 -29 -2 -71q29 36 70.5 58.5q41.5 22.5 96.5 22.5q70 0 118 -29q48 -29 74 -84q11 -25 18 -54.5q7 -29.5 7 -66.5q0 -37 -7 -65.5q-7 -28.5 -18 -53.5q-26 -55 -81.5 -86.5q-55.5 -31.5 -140.5 -31.5q-103 0 -163.5 56q-60.5 56 -77.5 150q-8 41 -10 75q-2 34 -2 79q0 45 2.5 79q2.5 34 9.5 75q8 50 30 88.5q22 38.5 54.5 64.5q32.5 26 73 39.5q40.5 13.5 85.5 13.5q91 0 148 -40.5q57 -40.5 84 -109.5l-101 -44q-22 53 -53 75.5q-31 22.5 -78 22.5q-28 0 -49 -8.5q-21 -8.5 -36.5 -22.5q-15.5 -14 -25.5 -33.5q-10 -19.5 -16 -40.5zt0 0zM320 365q-51 0 -86.5 -29q-35.5 -29 -55.5 -71q0 -17 2.5 -45q2.5 -28 17.5 -64q13 -32 39.5 -51q26.5 -19 70.5 -19q45 0 73 14.5q28 14.5 42 42.5q9 19 13 36.5q4 17.5 4 45.5q0 28 -4 46.5q-4 18.5 -13 37.5q-14 27 -36.5 41.5t-66.5 14.5z" />
<glyph unicode="&#55;" horiz-adv-x="620" d="M422 604h-332v96h460v-78l-284 -634l-124 0z" />
<glyph unicode="&#56;" horiz-adv-x="620" d="M50 192q0 62 32.5 107.5q32.5 45.5 101.5 67.5q-27 10 -46.5 27q-19.5 17 -32 38q-12.5 21 -18 45.5q-5.5 24.5 -5.5 50.5q0 41 16 74.5q16 33.5 45.5 57.5q29.5 24 71.5 37q42 13 95 13q52 0 94.5 -13q42.5 -13 72 -37q29.5 -24 45.5 -57.5q16 -33.5 16 -74.5q0 -51 -26.5 -96q-26.5 -45 -79.5 -65q69 -22 103.5 -67.5q34.5 -45.5 34.5 -107.5q0 -50 -19.5 -87.5q-19.5 -37.5 -54 -63q-34.5 -25.5 -82.5 -38.5q-48 -13 -104 -13q-56 0 -104 13q-48 13 -82.5 38.5q-34.5 25.5 -54 63q-19.5 37.5 -19.5 87.5zt0 0zM310 318q-35 0 -61.5 -9.5q-26.5 -9.5 -44 -25.5q-17.5 -16 -26 -37.5q-8.5 -21.5 -8.5 -45.5q0 -23 9.5 -44q9.5 -21 27.5 -36.5q18 -15.5 44 -24.5q26 -9 59 -9q33 0 59 9q26 9 44 24.5q18 15.5 27.5 36.5q9.5 21 9.5 44q0 48 -35 83q-35 35 -105 35zt0 0zM310 414q26 0 46.5 9q20.5 9 34.5 23.5q14 14.5 21.5 33q7.5 18.5 7.5 38.5q0 44 -30 70q-30 26 -80 26q-50 0 -80 -26q-30 -26 -30 -70q0 -20 6.5 -38.5q6.5 -18.5 20 -33q13.5 -14.5 34 -23.5t49.5 -9z" />
<glyph unicode="&#57;" horiz-adv-x="620" d="M432 191q8 29 10 58q2 29 2 71q-29 -36 -70.5 -58.5q-41.5 -22.5 -96.5 -22.5q-70 0 -118 29q-48 29 -74 84q-11 25 -18 54.5q-7 29.5 -7 66.5q0 37 7 65.5q7 28.5 18 53.5q26 55 81.5 86.5q55.5 31.5 140.5 31.5q103 0 163.5 -56q60.5 -56 77.5 -150q7 -41 9.5 -75q2.5 -34 2.5 -79q0 -45 -2.5 -79q-2.5 -34 -9.5 -75q-8 -50 -30.5 -88.5q-22.5 -38.5 -54.5 -64.5q-32 -26 -72.5 -39.5q-40.5 -13.5 -85.5 -13.5q-91 0 -148 40.5q-57 40.5 -84 109.5l101 44q22 -53 53 -75.5q31 -22.5 78 -22.5q55 0 85.5 31q30.5 31 41.5 74zt0 0zM300 335q51 0 86.5 29q35.5 29 55.5 71q0 17 -2.5 45q-2.5 28 -17.5 64q-13 32 -39.5 51q-26.5 19 -70.5 19q-45 0 -73 -14.5q-28 -14.5 -42 -42.5q-9 -19 -13 -36.5q-4 -17.5 -4 -45.5q0 -28 4 -46.5q4 -18.5 13 -37.5q14 -27 36.5 -41.5t66.5 -14.5z" />
<glyph unicode="&#58;" horiz-adv-x="292" d="M84 124h124v-124h-124zM84 424h124v-124l-124 0z" />
<glyph unicode="&#59;" horiz-adv-x="292" d="M84 424h124v-124h-124zM84 124h124v-154l-124 -116z" />
<glyph unicode="&#60;" horiz-adv-x="620" d="M225 300l285 -162v-108l-400 235v70l400 235l0 -108z" />
<glyph unicode="&#61;" horiz-adv-x="620" d="M510 446v-92h-400v92zM510 246v-92h-400l0 92z" />
<glyph unicode="&#62;" horiz-adv-x="620" d="M395 300l-285 162v108l400 -235v-70l-400 -235l0 108z" />
<glyph unicode="&#63;" horiz-adv-x="600" d="M222 184v20q0 20 3.5 37q3.5 17 11.5 33.5q8 16.5 20.5 34q12.5 17.5 31.5 40.5q24 29 43.5 52.5q19.5 23.5 33.5 44q14 20.5 22 40q8 19.5 8 40.5q0 46 -27 68q-27 22 -64 22q-35 0 -69 -21.5q-34 -21.5 -57 -75.5l-105 40q16 39 41 67.5q25 28.5 56.5 47q31.5 18.5 66.5 27.5q35 9 70 9q39 0 76.5 -11q37.5 -11 67 -33.5q29.5 -22.5 47 -56.5q17.5 -34 17.5 -81q0 -30 -8.5 -54.5q-8.5 -24.5 -24 -48.5q-15.5 -24 -37 -50q-21.5 -26 -46.5 -58q-27 -34 -42.5 -58.5q-15.5 -24.5 -15.5 -54.5v-20zM220 124h124v-124l-124 0z" />
<glyph unicode="&#64;" horiz-adv-x="790" d="M551 294q0 -27 9.5 -45q9.5 -18 36.5 -18q13 0 22 6.5q9 6.5 15 15.5q6 9 8.5 18.5q2.5 9.5 4.5 16.5q5 26 7 43.5q2 17.5 2 40.5q0 23 -2.5 52q-2.5 29 -9.5 61q-6 25 -18 52q-12 27 -39 49q-27 22 -73 36q-46 14 -119 14q-73 0 -119 -14q-46 -14 -73 -36q-27 -22 -39 -49q-12 -27 -18 -52q-3 -16 -5.5 -34.5q-2.5 -18.5 -4 -36.5q-1.5 -18 -2 -34q-0.5 -16 -0.5 -28q0 -12 0.5 -28q0.5 -16 2 -34q1.5 -18 4 -36.5q2.5 -18.5 5.5 -34.5q6 -26 18 -54q12 -28 39 -51q27 -23 73 -37.5q46 -14.5 119 -14.5q60 0 100.5 6.5q40.5 6.5 67 16.5q26.5 10 42.5 22q16 12 29 23l65 -44q-14 -17 -36.5 -34q-22.5 -17 -57.5 -31q-35 -14 -86.5 -22.5q-51.5 -8.5 -123.5 -8.5q-94 0 -154 20.5q-60 20.5 -96.5 53q-36.5 32.5 -54 71q-17.5 38.5 -25.5 74.5q-3 14 -5 34q-2 20 -3.5 40.5q-1.5 20.5 -2 39q-0.5 18.5 -0.5 29.5q0 11 0.5 29.5q0.5 18.5 2 39q1.5 20.5 3.5 40.5q2 20 5 34q8 36 25.5 74q17.5 38 54 69.5q36.5 31.5 96.5 51.5q60 20 154 20q94 0 154 -20q60 -20 96.5 -51.5q36.5 -31.5 54 -69.5q17.5 -38 25.5 -74q6 -28 8.5 -64q2.5 -36 2.5 -59q0 -23 -2 -47.5q-2 -24.5 -7 -45.5q-11 -53 -47 -87.5q-36 -34.5 -92 -34.5q-28 0 -46.5 6q-18.5 6 -31.5 16q-13 10 -20.5 22q-7.5 12 -13.5 24l-4 0q-18 -35 -44.5 -51.5q-26.5 -16.5 -59.5 -16.5q-51 0 -89.5 33.5q-38.5 33.5 -48.5 97.5q-4 27 -4.5 42.5q-0.5 15.5 -0.5 29.5q0 14 0.5 29.5q0.5 15.5 4.5 42.5q10 64 48.5 96q38.5 32 89.5 32q33 0 57.5 -11.5q24.5 -11.5 41.5 -41.5l4 0v45h80zM471 378q0 49 -21.5 79q-21.5 30 -61.5 30q-29 0 -48.5 -17q-19.5 -17 -24.5 -49q-3 -18 -3.5 -32q-0.5 -14 -0.5 -31q0 -16 0.5 -30q0.5 -14 3.5 -31q6 -33 25 -50q19 -17 48 -17q20 0 35.5 10q15.5 10 26 27.5q10.5 17.5 16 41q5.5 23.5 5.5 49.5z" />
<glyph unicode="&#65;" horiz-adv-x="628" d="M258 700h112l250 -700h-126l-57 171h-246l-57 -171h-126zM406 271l-92 273l-92 -273z" />
<glyph unicode="&#66;" horiz-adv-x="660" d="M355 700q121 0 179 -46q58 -46 58 -129q0 -34 -8 -59q-8 -25 -22.5 -44q-14.5 -19 -34 -32q-19.5 -13 -42.5 -22l0 -4q59 -17 90 -58.5q31 -41.5 31 -109.5q0 -91 -61.5 -143.5q-61.5 -52.5 -182.5 -52.5h-278v700zM204 311v-211h138q68 0 104 25.5q36 25.5 36 78.5q0 60 -38 83.5q-38 23.5 -113 23.5zM204 600v-189h136q68 0 100 26.5q32 26.5 32 71.5q0 51 -36.5 71q-36.5 20 -104.5 20z" />
<glyph unicode="&#67;" horiz-adv-x="638" d="M340 88q68 0 107 35.5q39 35.5 56 90.5l105 -41q-10 -41 -32 -74.5q-22 -33.5 -56 -58.5q-34 -25 -79 -38.5q-45 -13.5 -101 -13.5q-56 0 -102.5 15.5q-46.5 15.5 -81 43.5q-34.5 28 -57.5 66.5q-23 38.5 -33 84.5q-4 19 -6.5 35.5q-2.5 16.5 -3.5 33.5q-1 17 -1.5 37q-0.5 20 -0.5 46q0 26 0.5 45.5q0.5 19.5 1.5 36.5q1 17 3.5 33.5q2.5 16.5 6.5 36.5q9 46 32 84.5q23 38.5 58 66.5q35 28 81.5 43.5q46.5 15.5 102.5 15.5q106 0 171 -46q65 -46 91 -125l-106 -38q-19 52 -53.5 80.5q-34.5 28.5 -102.5 28.5q-34 0 -59 -9.5q-25 -9.5 -42.5 -25.5q-17.5 -16 -29 -37q-11.5 -21 -17.5 -45q-5 -17 -7.5 -31.5q-2.5 -14.5 -4 -31q-1.5 -16.5 -2 -36q-0.5 -19.5 -0.5 -46.5q0 -27 0.5 -46.5q0.5 -19.5 2 -36q1.5 -16.5 4 -31q2.5 -14.5 7.5 -31.5q6 -23 17.5 -44.5q11.5 -21.5 29 -37.5q17.5 -16 42.5 -25.5t59 -9.5z" />
<glyph unicode="&#68;" horiz-adv-x="690" d="M624 204q-17 -96 -88 -150q-71 -54 -188 -54h-264v700h264q117 0 188 -54.5q71 -54.5 88 -149.5q3 -20 5.5 -36q2.5 -16 4 -32.5q1.5 -16.5 2 -35q0.5 -18.5 0.5 -42.5q0 -24 -0.5 -42.5q-0.5 -18.5 -2 -35q-1.5 -16.5 -4 -33q-2.5 -16.5 -5.5 -35.5zt0 0zM344 100q71 0 108.5 32.5q37.5 32.5 48.5 86.5q3 17 5.5 31q2.5 14 3.5 28.5q1 14.5 1.5 31.5q0.5 17 0.5 40q0 23 -0.5 40q-0.5 17 -1.5 31.5q-1 14.5 -3.5 28.5q-2.5 14 -5.5 31q-11 54 -48.5 86.5q-37.5 32.5 -108.5 32.5h-140l0 -500z" />
<glyph unicode="&#69;" horiz-adv-x="594" d="M554 0h-470v700h460v-100h-340v-190h280v-100h-280v-210l350 0z" />
<glyph unicode="&#70;" horiz-adv-x="554" d="M84 700h450v-100h-330v-200h270v-100h-270v-300l-120 0z" />
<glyph unicode="&#71;" horiz-adv-x="674" d="M340 88q45 0 74 16q29 16 46.5 41.5q17.5 25.5 24.5 57.5q7 32 9 63l-145 0v100h271q0 -30 0 -52q0 -22 -1 -41q-1 -19 -3.5 -36.5q-2.5 -17.5 -6.5 -38.5q-8 -42 -28.5 -80q-20.5 -38 -54 -67q-33.5 -29 -80 -46q-46.5 -17 -106.5 -17q-56 0 -102.5 15.5q-46.5 15.5 -81 43.5q-34.5 28 -57.5 66.5q-23 38.5 -33 84.5q-4 19 -6.5 35.5q-2.5 16.5 -3.5 33.5q-1 17 -1.5 37q-0.5 20 -0.5 46q0 26 0.5 45.5q0.5 19.5 1.5 36.5q1 17 3.5 33.5q2.5 16.5 6.5 36.5q9 46 32 84.5q23 38.5 58 66.5q35 28 81.5 43.5q46.5 15.5 102.5 15.5q106 0 171 -46q65 -46 91 -125l-106 -38q-19 52 -53.5 80.5q-34.5 28.5 -102.5 28.5q-34 0 -59 -9.5q-25 -9.5 -42.5 -25.5q-17.5 -16 -29 -37q-11.5 -21 -17.5 -45q-5 -17 -7.5 -31.5q-2.5 -14.5 -4 -31q-1.5 -16.5 -2 -36q-0.5 -19.5 -0.5 -46.5q0 -27 0.5 -46.5q0.5 -19.5 2 -36q1.5 -16.5 4 -31q2.5 -14.5 7.5 -31.5q6 -23 17.5 -44.5q11.5 -21.5 29 -37.5q17.5 -16 42.5 -25.5t59 -9.5z" />
<glyph unicode="&#72;" horiz-adv-x="718" d="M84 700h120v-290h310v290h120v-700h-120v310h-310v-310l-120 0z" />
<glyph unicode="&#73;" horiz-adv-x="288" d="M84 700h120v-700l-120 0z" />
<glyph unicode="&#74;" horiz-adv-x="460" d="M101 142q13 -26 32 -40q19 -14 50 -14q35 0 58 25.5q23 25.5 23 82.5v504h120v-503q0 -52 -14 -91q-14 -39 -40 -65.5q-26 -26.5 -62.5 -39.5q-36.5 -13 -80.5 -13q-66 0 -112 26.5q-46 26.5 -75 77.5l101 50z" />
<glyph unicode="&#75;" horiz-adv-x="630" d="M84 700h120v-316l256 316h142l-229 -280l257 -420h-142l-193 324l-91 -112v-212l-120 0z" />
<glyph unicode="&#76;" horiz-adv-x="524" d="M84 700h120v-600h310v-100l-430 0z" />
<glyph unicode="&#77;" horiz-adv-x="844" d="M84 700h156l182 -408l182 408h156v-700h-120v487h-4l-166 -367h-96l-166 367h-4v-487l-120 0z" />
<glyph unicode="&#78;" horiz-adv-x="728" d="M204 0h-120v700h120l320 -482v482h120v-700h-120l-320 482z" />
<glyph unicode="&#79;" horiz-adv-x="674" d="M608 198q-9 -46 -31 -84.5q-22 -38.5 -56.5 -66.5q-34.5 -28 -81 -43.5q-46.5 -15.5 -102.5 -15.5q-56 0 -102.5 15.5q-46.5 15.5 -81 43.5q-34.5 28 -56.5 66.5q-22 38.5 -31 84.5q-4 19 -6 35.5q-2 16.5 -3.5 33.5q-1.5 17 -2 37q-0.5 20 -0.5 46q0 26 0.5 45.5q0.5 19.5 2 36.5q1.5 17 3.5 33.5q2 16.5 6 36.5q9 46 31 84.5q22 38.5 56.5 66.5q34.5 28 81 43.5q46.5 15.5 102.5 15.5q56 0 102.5 -15.5q46.5 -15.5 81 -43.5q34.5 -28 56.5 -66.5q22 -38.5 31 -84.5q4 -20 6 -36.5q2 -16.5 3.5 -33.5q1.5 -17 2 -36.5q0.5 -19.5 0.5 -45.5q0 -26 -0.5 -46q-0.5 -20 -2 -37q-1.5 -17 -3.5 -33.5q-2 -16.5 -6 -35.5zt0 0zM337 88q63 0 100 35q37 35 48 88q3 17 5.5 31.5q2.5 14.5 3.5 30q1 15.5 1.5 34q0.5 18.5 0.5 43.5q0 25 -0.5 43.5q-0.5 18.5 -1.5 34q-1 15.5 -3.5 30q-2.5 14.5 -5.5 31.5q-11 53 -48 88q-37 35 -100 35q-63 0 -100 -35.5q-37 -35.5 -48 -87.5q-4 -17 -6 -31.5q-2 -14.5 -3 -30q-1 -15.5 -1.5 -34q-0.5 -18.5 -0.5 -43.5q0 -25 0.5 -43.5q0.5 -18.5 1.5 -34q1 -15.5 3 -30q2 -14.5 6 -31.5q11 -53 48 -88t100 -35z" />
<glyph unicode="&#80;" horiz-adv-x="620" d="M328 700q128 0 193 -55q65 -55 65 -158q0 -103 -65 -158.5q-65 -55.5 -193 -55.5h-124v-273h-120v700zM324 373q75 0 106.5 30.5q31.5 30.5 31.5 83.5q0 53 -31.5 83q-31.5 30 -106.5 30h-120l0 -227z" />
<glyph unicode="&#81;" horiz-adv-x="674" d="M608 198q-10 -56 -43 -103l85 -84l-72 -70l-86 86q-32 -19 -71 -29q-39 -10 -84 -10q-56 0 -102.5 15.5q-46.5 15.5 -81 43.5q-34.5 28 -56.5 66.5q-22 38.5 -31 84.5q-4 19 -6 35.5q-2 16.5 -3.5 33.5q-1.5 17 -2 37q-0.5 20 -0.5 46q0 26 0.5 45.5q0.5 19.5 2 36.5q1.5 17 3.5 33.5q2 16.5 6 36.5q9 46 31 84.5q22 38.5 56.5 66.5q34.5 28 81 43.5q46.5 15.5 102.5 15.5q56 0 102.5 -15.5q46.5 -15.5 81 -43.5q34.5 -28 56.5 -66.5q22 -38.5 31 -84.5q4 -20 6 -36.5q2 -16.5 3.5 -33.5q1.5 -17 2 -36.5q0.5 -19.5 0.5 -45.5q0 -26 -0.5 -46q-0.5 -20 -2 -37q-1.5 -17 -3.5 -33.5q-2 -16.5 -6 -35.5zt0 0zM337 88q44 0 76 18l-79 79l72 70l71 -72q2 7 4 13.5q2 6.5 4 14.5q3 17 5.5 31.5q2.5 14.5 3.5 30q1 15.5 1.5 34q0.5 18.5 0.5 43.5q0 25 -0.5 43.5q-0.5 18.5 -1.5 34q-1 15.5 -3.5 30q-2.5 14.5 -5.5 31.5q-11 53 -48 88q-37 35 -100 35q-63 0 -100 -35.5q-37 -35.5 -48 -87.5q-4 -17 -6 -31.5q-2 -14.5 -3 -30q-1 -15.5 -1.5 -34q-0.5 -18.5 -0.5 -43.5q0 -25 0.5 -43.5q0.5 -18.5 1.5 -34q1 -15.5 3 -30q2 -14.5 6 -31.5q11 -53 48 -88t100 -35z" />
<glyph unicode="&#82;" horiz-adv-x="646" d="M333 700q67 0 116 -16q49 -16 81 -43.5q32 -27.5 47 -65.5q15 -38 15 -82q0 -66 -38 -114.5q-38 -48.5 -108 -71.5l170 -307h-138l-153 285h-121v-285h-120v700zM204 600v-215h123q68 0 104.5 27.5q36.5 27.5 36.5 80.5q0 107 -151 107z" />
<glyph unicode="&#83;" horiz-adv-x="600" d="M138 196q31 -58 74.5 -82q43.5 -24 96.5 -24q60 0 95.5 27q35.5 27 35.5 72q0 45 -27 69q-27 24 -80 35l-106 22q-36 7 -68 22.5q-32 15.5 -56 40.5q-24 25 -37.5 59q-13.5 34 -13.5 79q0 45 18.5 81q18.5 36 51 61.5q32.5 25.5 75.5 39q43 13.5 92 13.5q91 0 155 -31.5q64 -31.5 100 -103.5l-103 -45q-29 47 -66.5 63q-37.5 16 -85.5 16q-48 0 -82.5 -23q-34.5 -23 -34.5 -68q0 -77 91 -97l118 -25q84 -18 133.5 -67q49.5 -49 49.5 -132q0 -49 -20 -87.5q-20 -38.5 -55 -65.5q-35 -27 -81.5 -41.5q-46.5 -14.5 -98.5 -14.5q-105 0 -169.5 40.5q-64.5 40.5 -103.5 119.5z" />
<glyph unicode="&#84;" horiz-adv-x="530" d="M205 600h-195v100h510v-100h-195v-600l-120 0z" />
<glyph unicode="&#85;" horiz-adv-x="700" d="M196 266q0 -85 38 -131q38 -46 116 -46q77 0 115.5 46q38.5 46 38.5 131v434h120v-449q0 -64 -19.5 -113q-19.5 -49 -55 -82q-35.5 -33 -86 -50q-50.5 -17 -113.5 -17q-63 0 -113.5 17q-50.5 17 -86 50q-35.5 33 -55 82q-19.5 49 -19.5 113v449l120 0z" />
<glyph unicode="&#86;" horiz-adv-x="596" d="M6 700h128l164 -500l164 500h128l-236 -700l-112 0z" />
<glyph unicode="&#87;" horiz-adv-x="908" d="M454 480l-140 -480h-106l-198 700h126l128 -476l135 476h110l135 -476l128 476h126l-198 -700l-106 0z" />
<glyph unicode="&#88;" horiz-adv-x="600" d="M230 363l-200 337h138l132 -239l132 239h138l-197 -337l217 -363h-140l-150 265l-150 -265l-140 0z" />
<glyph unicode="&#89;" horiz-adv-x="574" d="M227 0v281l-221 419h136l145 -286l145 286h136l-221 -419l0 -281z" />
<glyph unicode="&#90;" horiz-adv-x="540" d="M30 86l320 514h-299v100h447v-86l-321 -514h333v-100l-480 0z" />
<glyph unicode="&#91;" horiz-adv-x="360" d="M80 780h240v-92h-128v-676h128v-92l-240 0z" />
<glyph unicode="&#92;" horiz-adv-x="366" d="M96 780l270 -860h-96l-270 860z" />
<glyph unicode="&#93;" horiz-adv-x="360" d="M280 -80h-240v92h128v676h-128v92l240 0z" />
<glyph unicode="&#94;" horiz-adv-x="620" d="M520 440h-112l-98 167l-98 -167h-112l162 260l96 0z" />
<glyph unicode="&#95;" horiz-adv-x="600" d="M600 -150h-600v76l600 0z" />
<glyph unicode="&#96;" horiz-adv-x="500" d="M140 710h117l73 -150l-90 0z" />
<glyph unicode="&#97;" horiz-adv-x="520" d="M338 0v54q-23 -29 -57.5 -46.5q-34.5 -17.5 -79.5 -17.5q-38 0 -67.5 11q-29.5 11 -50.5 31.5q-21 20.5 -32 48.5q-11 28 -11 62q0 90 60 128.5q60 38.5 165 38.5h73v26q0 41 -21.5 61.5q-21.5 20.5 -59.5 20.5q-30 0 -58 -11q-28 -11 -50 -42l-94 51q32 51 86 72.5q54 21.5 122 21.5q41 0 75.5 -10.5q34.5 -10.5 59 -32.5q24.5 -22 38.5 -56q14 -34 14 -80v-331zM338 218h-75q-53 0 -81 -15q-28 -15 -28 -53q0 -30 19.5 -49q19.5 -19 57.5 -19q38 0 62.5 21.5q24.5 21.5 44.5 58.5z" />
<glyph unicode="&#98;" horiz-adv-x="552" d="M74 700h112v-250h4q25 31 61.5 45.5q36.5 14.5 74.5 14.5q54 0 99 -28.5q45 -28.5 67 -90.5q11 -30 13.5 -65q2.5 -35 2.5 -76q0 -41 -2.5 -76.5q-2.5 -35.5 -13.5 -65.5q-22 -62 -67 -90q-45 -28 -99 -28q-38 0 -74.5 14.5q-36.5 14.5 -61.5 45.5l-4 0v-50h-112zM186 200q0 -53 29.5 -85.5q29.5 -32.5 74.5 -32.5q30 0 54.5 15.5q24.5 15.5 35.5 47.5q8 23 10 45q2 22 2 60q0 38 -2 60.5q-2 22.5 -10 44.5q-11 32 -35.5 47.5q-24.5 15.5 -54.5 15.5q-45 0 -74.5 -32.5q-29.5 -32.5 -29.5 -85.5z" />
<glyph unicode="&#99;" horiz-adv-x="484" d="M266 82q30 0 56.5 17.5q26.5 17.5 39.5 49.5l96 -47q-25 -56 -74.5 -84q-49.5 -28 -117.5 -28q-75 0 -130.5 33.5q-55.5 33.5 -75.5 95.5q-11 31 -13.5 60.5q-2.5 29.5 -2.5 70.5q0 41 2.5 70.5q2.5 29.5 13.5 60.5q20 62 75.5 95.5q55.5 33.5 130.5 33.5q68 0 116 -25q48 -25 72 -81l-97 -45q-13 33 -37 46q-24 13 -54 13q-38 0 -60.5 -18.5q-22.5 -18.5 -33.5 -48.5q-7 -20 -9.5 -44.5q-2.5 -24.5 -2.5 -56.5q0 -32 2 -56.5q2 -24.5 10 -44.5q11 -32 33.5 -49.5t60.5 -17.5z" />
<glyph unicode="&#100;" horiz-adv-x="552" d="M478 0h-112v50h-4q-25 -31 -61.5 -45.5q-36.5 -14.5 -74.5 -14.5q-54 0 -99 28q-45 28 -67 90q-11 30 -13.5 65.5q-2.5 35.5 -2.5 76.5q0 41 2.5 76q2.5 35 13.5 65q22 62 67 90.5q45 28.5 99 28.5q38 0 74.5 -14.5q36.5 -14.5 61.5 -45.5l4 0v250h112zM366 300q0 53 -29.5 85.5q-29.5 32.5 -74.5 32.5q-30 0 -54.5 -15.5q-24.5 -15.5 -35.5 -47.5q-8 -22 -10 -44.5q-2 -22.5 -2 -60.5q0 -38 2 -60q2 -22 10 -45q11 -32 35.5 -47.5q24.5 -15.5 54.5 -15.5q45 0 74.5 32.5q29.5 32.5 29.5 85.5z" />
<glyph unicode="&#101;" horiz-adv-x="526" d="M265 82q38 0 66 15.5q28 15.5 44 49.5l95 -47q-26 -57 -78 -83.5q-52 -26.5 -127 -26.5q-75 0 -130 33q-55 33 -75 95q-11 31 -13.5 61q-2.5 30 -2.5 71q0 41 2.5 71q2.5 30 13.5 61q20 62 75 95q55 33 130 33q75 0 128 -33q53 -33 73 -95q10 -31 13 -60q3 -29 3 -70v-40h-322q0 -26 2 -43.5q2 -17.5 10 -34.5q11 -25 33 -38.5q22 -13.5 60 -13.5zt0 0zM171 365q-8 -17 -9.5 -32q-1.5 -15 -1.5 -35l206 0q-1 21 -2.5 35.5q-1.5 14.5 -9.5 31.5q-10 23 -30.5 38q-20.5 15 -58.5 15q-38 0 -60.5 -15t-33.5 -38z" />
<glyph unicode="&#102;" horiz-adv-x="324" d="M314 408h-112v-408h-112v408h-76v92h76v42q0 46 13 78q13 32 35 52q22 20 51.5 29q29.5 9 63.5 9h61v-92h-40q-38 0 -55 -19.5q-17 -19.5 -17 -60.5v-38l112 0z" />
<glyph unicode="&#103;" horiz-adv-x="552" d="M478 5q0 -47 -14.5 -86.5q-14.5 -39.5 -42 -68q-27.5 -28.5 -68.5 -44.5q-41 -16 -93 -16q-75 0 -122.5 22.5q-47.5 22.5 -79.5 72.5l95 49q21 -29 45 -41.5q24 -12.5 59 -12.5q54 0 81.5 35.5q27.5 35.5 27.5 93.5v41h-4q-25 -31 -61.5 -45.5q-36.5 -14.5 -74.5 -14.5q-54 0 -99 28.5q-45 28.5 -67 90.5q-11 30 -13.5 65q-2.5 35 -2.5 76q0 41 2.5 76.5q2.5 35.5 13.5 65.5q22 62 67 90q45 28 99 28q38 0 74.5 -14.5q36.5 -14.5 61.5 -45.5l4 0v50h112zM366 300q0 53 -29.5 85.5q-29.5 32.5 -74.5 32.5q-30 0 -54.5 -15.5q-24.5 -15.5 -35.5 -47.5q-8 -23 -10 -45q-2 -22 -2 -60q0 -38 2 -60.5q2 -22.5 10 -44.5q11 -32 35.5 -47.5q24.5 -15.5 54.5 -15.5q45 0 74.5 32.5q29.5 32.5 29.5 85.5z" />
<glyph unicode="&#104;" horiz-adv-x="564" d="M74 700h112v-250h4q23 26 57.5 43q34.5 17 76.5 17q75 0 122.5 -47.5q47.5 -47.5 47.5 -152.5v-310h-112v300q0 60 -24.5 89q-24.5 29 -69.5 29q-26 0 -45.5 -10q-19.5 -10 -32 -26q-12.5 -16 -18.5 -37.5q-6 -21.5 -6 -43.5v-301l-112 0z" />
<glyph unicode="&#105;" horiz-adv-x="260" d="M70 700h120v-126h-120zM74 500h112v-500l-112 0z" />
<glyph unicode="&#106;" horiz-adv-x="262" d="M188 -42q0 -46 -13 -78q-13 -32 -35 -51.5q-22 -19.5 -51.5 -28q-29.5 -8.5 -63.5 -8.5h-61v94h40q38 0 55 19q17 19 17 60v535h112zM72 700h120v-124l-120 0z" />
<glyph unicode="&#107;" horiz-adv-x="526" d="M74 700h112v-396l180 196h140l-174 -187l194 -313h-136l-136 230l-68 -74v-156l-112 0z" />
<glyph unicode="&#108;" horiz-adv-x="298" d="M186 151q0 -30 12.5 -49.5q12.5 -19.5 42.5 -19.5h47v-92h-88q-60 0 -93 38q-33 38 -33 106v566l112 0z" />
<glyph unicode="&#109;" horiz-adv-x="864" d="M378 300q0 118 -92 118q-26 0 -45 -10q-19 -10 -31 -26q-12 -16 -18 -37.5q-6 -21.5 -6 -43.5v-301h-112v500h112v-50h4q23 26 56.5 43q33.5 17 75.5 17q47 0 83 -19q36 -19 58 -57l4 0q26 30 63 53q37 23 96 23q75 0 121.5 -47.5q46.5 -47.5 46.5 -152.5v-310h-112v300q0 118 -92 118q-25 0 -44 -9q-19 -9 -31.5 -24q-12.5 -15 -18.5 -34.5q-6 -19.5 -6 -40.5v-310l-112 0z" />
<glyph unicode="&#110;" horiz-adv-x="564" d="M74 500h112v-52h4q23 26 57.5 44q34.5 18 76.5 18q75 0 122.5 -47.5q47.5 -47.5 47.5 -152.5v-310h-112v300q0 60 -24.5 89q-24.5 29 -69.5 29q-26 0 -45.5 -10q-19.5 -10 -32 -26q-12.5 -16 -18.5 -37.5q-6 -21.5 -6 -43.5v-301l-112 0z" />
<glyph unicode="&#111;" horiz-adv-x="528" d="M468 118q-21 -62 -75 -95q-54 -33 -129 -33q-75 0 -129 33q-54 33 -75 95q-11 31 -13.5 61q-2.5 30 -2.5 71q0 41 2.5 71q2.5 30 13.5 61q21 62 75 95q54 33 129 33q75 0 129 -33q54 -33 75 -95q11 -31 13.5 -61q2.5 -30 2.5 -71q0 -41 -2.5 -71q-2.5 -30 -13.5 -61zt0 0zM264 82q38 0 60 17q22 17 32 44q9 25 10.5 50q1.5 25 1.5 57q0 32 -1.5 57q-1.5 25 -10.5 50q-10 26 -32 43.5q-22 17.5 -60 17.5q-38 0 -60 -17.5q-22 -17.5 -32 -43.5q-9 -25 -10.5 -50q-1.5 -25 -1.5 -57q0 -32 1.5 -57q1.5 -25 10.5 -50q10 -27 32 -44t60 -17z" />
<glyph unicode="&#112;" horiz-adv-x="552" d="M74 500h112v-50h4q25 31 61.5 45.5q36.5 14.5 74.5 14.5q54 0 99 -28q45 -28 67 -90q11 -30 13.5 -65.5q2.5 -35.5 2.5 -76.5q0 -41 -2.5 -76q-2.5 -35 -13.5 -65q-22 -62 -67 -90.5q-45 -28.5 -99 -28.5q-38 0 -74.5 14.5q-36.5 14.5 -61.5 45.5l-4 0v-250h-112zM186 200q0 -53 29.5 -85.5q29.5 -32.5 74.5 -32.5q30 0 54.5 15.5q24.5 15.5 35.5 47.5q8 22 10 44.5q2 22.5 2 60.5q0 38 -2 60q-2 22 -10 45q-11 32 -35.5 47.5q-24.5 15.5 -54.5 15.5q-45 0 -74.5 -32.5q-29.5 -32.5 -29.5 -85.5z" />
<glyph unicode="&#113;" horiz-adv-x="552" d="M478 -200h-112v250h-4q-25 -31 -61.5 -45.5q-36.5 -14.5 -74.5 -14.5q-54 0 -99 28.5q-45 28.5 -67 90.5q-11 30 -13.5 65q-2.5 35 -2.5 76q0 41 2.5 76.5q2.5 35.5 13.5 65.5q22 62 67 90q45 28 99 28q38 0 74.5 -14.5q36.5 -14.5 61.5 -45.5l4 0v50h112zM366 300q0 53 -29.5 85.5q-29.5 32.5 -74.5 32.5q-30 0 -54.5 -15.5q-24.5 -15.5 -35.5 -47.5q-8 -23 -10 -45q-2 -22 -2 -60q0 -38 2 -60.5q2 -22.5 10 -44.5q11 -32 35.5 -47.5q24.5 -15.5 54.5 -15.5q45 0 74.5 32.5q29.5 32.5 29.5 85.5z" />
<glyph unicode="&#114;" horiz-adv-x="438" d="M74 500h112v-50h4q20 25 49 42.5q29 17.5 69 17.5q48 0 77.5 -20q29.5 -20 52.5 -52l-86 -63q-13 20 -30.5 31.5q-17.5 11.5 -42.5 11.5q-39 0 -66 -31q-27 -31 -27 -85v-302l-112 0z" />
<glyph unicode="&#115;" horiz-adv-x="490" d="M131 142q20 -35 50.5 -47.5q30.5 -12.5 68.5 -12.5q38 0 64 15q26 15 26 45q0 30 -18 45q-18 15 -56 19l-56 5q-86 8 -122 47.5q-36 39.5 -36 99.5q0 37 17 65.5q17 28.5 44.5 48q27.5 19.5 63 29q35.5 9.5 73.5 9.5q41 0 72 -8.5q31 -8.5 53.5 -22.5q22.5 -14 38 -31q15.5 -17 24.5 -35l-94 -50q-7 11 -15 21q-8 10 -19.5 17.5q-11.5 7.5 -27.5 12q-16 4.5 -38 4.5q-38 0 -60 -14q-22 -14 -22 -41q0 -23 15.5 -41.5q15.5 -18.5 52.5 -21.5l56 -4q80 -6 124 -43.5q44 -37.5 44 -105.5q0 -38 -17.5 -67q-17.5 -29 -46.5 -49q-29 -20 -67 -30.5q-38 -10.5 -79 -10.5q-45 0 -78.5 8q-33.5 8 -58 22q-24.5 14 -42 33q-17.5 19 -29.5 41z" />
<glyph unicode="&#116;" horiz-adv-x="320" d="M14 500h75v150h112v-150h101v-92h-101v-254q0 -30 12 -51q12 -21 42 -21h47v-92h-87q-60 0 -93 38q-33 38 -33 106v274l-75 0z" />
<glyph unicode="&#117;" horiz-adv-x="564" d="M490 0h-112v50h-4q-23 -26 -57.5 -43.5q-34.5 -17.5 -76.5 -17.5q-75 0 -122.5 48q-47.5 48 -47.5 153v310h112v-300q0 -60 24.5 -89.5q24.5 -29.5 69.5 -29.5q26 0 45.5 10q19.5 10 32 26.5q12.5 16.5 18.5 37.5q6 21 6 44v301l112 0z" />
<glyph unicode="&#118;" horiz-adv-x="492" d="M6 500h122l118 -354l118 354h122l-187 -500l-106 0z" />
<glyph unicode="&#119;" horiz-adv-x="784" d="M392 346l-111 -346h-106l-165 500h120l101 -350l108 350h106l108 -350l101 350h120l-165 -500l-106 0z" />
<glyph unicode="&#120;" horiz-adv-x="488" d="M175 265l-151 235h130l90 -152l90 152h130l-151 -235l169 -265h-132l-106 173l-106 -173l-132 0z" />
<glyph unicode="&#121;" horiz-adv-x="484" d="M6 500h122l119 -349l111 349h120l-189 -541q-29 -83 -72.5 -121q-43.5 -38 -118.5 -38h-50v92h34q48 0 72 27q24 27 40 80z" />
<glyph unicode="&#122;" horiz-adv-x="442" d="M30 80l230 324v4h-218v92h364v-80l-230 -324v-4h236v-92l-382 0z" />
<glyph unicode="&#123;" horiz-adv-x="460" d="M370 688q-28 0 -44.5 -7.5q-16.5 -7.5 -24.5 -23q-8 -15.5 -10.5 -40.5q-2.5 -25 -2.5 -61v-55q0 -36 -2.5 -61q-2.5 -25 -10.5 -42.5q-8 -17.5 -23.5 -28.5q-15.5 -11 -42.5 -19q27 -8 42.5 -20.5q15.5 -12.5 23.5 -32q8 -19.5 10.5 -46.5q2.5 -27 2.5 -63v-56q0 -36 2.5 -59q2.5 -23 10.5 -36.5q8 -13.5 24.5 -19q16.5 -5.5 44.5 -5.5h10v-92h-53q-51 0 -80.5 14q-29.5 14 -45.5 38q-16 24 -20.5 56.5q-4.5 32.5 -4.5 70.5v76q0 37 -3.5 62q-3.5 25 -13 40q-9.5 15 -26.5 21q-17 6 -43 6h-10v92h10q26 0 43 6q17 6 26.5 21q9.5 15 13 39.5q3.5 24.5 3.5 62.5v75q0 37 4.5 70q4.5 33 20.5 57.5q16 24.5 45.5 38.5q29.5 14 80.5 14h53l0 -92z" />
<glyph unicode="&#124;" horiz-adv-x="620" d="M366 -80h-112v860l112 0z" />
<glyph unicode="&#125;" horiz-adv-x="460" d="M90 12q28 0 44.5 7.5q16.5 7.5 24.5 23q8 15.5 10.5 40.5q2.5 25 2.5 61v55q0 36 2.5 61q2.5 25 10.5 42.5q8 17.5 23.5 28.5q15.5 11 42.5 19q-27 7 -42.5 20q-15.5 13 -23.5 32.5q-8 19.5 -10.5 46.5q-2.5 27 -2.5 63v56q0 36 -2.5 59q-2.5 23 -10.5 36.5q-8 13.5 -24.5 19q-16.5 5.5 -44.5 5.5h-10v92h53q51 0 80.5 -14q29.5 -14 45.5 -38q16 -24 20.5 -57q4.5 -33 4.5 -70v-76q0 -38 3.5 -62.5q3.5 -24.5 13 -39.5q9.5 -15 26.5 -21q17 -6 43 -6h10v-92h-10q-26 0 -43 -6q-17 -6 -26.5 -21q-9.5 -15 -13 -40q-3.5 -25 -3.5 -62v-75q0 -38 -4.5 -70.5q-4.5 -32.5 -20.5 -57q-16 -24.5 -45.5 -38.5q-29.5 -14 -80.5 -14h-53l0 92z" />
<glyph unicode="&#126;" horiz-adv-x="620" d="M230 368q21 0 41 -6.5q20 -6.5 40 -16.5q24 -11 42.5 -18q18.5 -7 35.5 -7q23 0 45.5 14.5q22.5 14.5 39.5 33.5l56 -68q-13 -15 -30 -28q-17 -13 -35.5 -23q-18.5 -10 -38 -16q-19.5 -6 -37.5 -6q-22 0 -42 7q-20 7 -40 16q-24 11 -42 18q-18 7 -35 7q-23 0 -45.5 -14.5q-22.5 -14.5 -39.5 -33.5l-55 68q29 29 66.5 51t73.5 22z" />
<glyph unicode="&#160;" horiz-adv-x="300" />
<glyph unicode="&#161;" horiz-adv-x="300" d="M204 303l12 -503h-132l12 503zM212 376h-124v124l124 0z" />
<glyph unicode="&#162;" horiz-adv-x="620" d="M363 608q54 -5 97 -30.5q43 -25.5 64 -73.5l-97 -45q-9 21 -25 36q-16 15 -39 20l0 -328q25 6 42 23.5q17 17.5 27 38.5l96 -47q-20 -46 -66 -74q-46 -28 -99 -35l0 -93h-76v91q-66 6 -113.5 38.5q-47.5 32.5 -65.5 89.5q-11 31 -13.5 60.5q-2.5 29.5 -2.5 70.5q0 41 2.5 70.5q2.5 29.5 13.5 60.5q17 54 66 86.5q49 32.5 113 40.5l0 92h76zM215 249q19 -51 72 -64l0 328q-55 -13 -72 -62q-7 -20 -9 -44.5q-2 -24.5 -2 -56.5q0 -32 2 -56.5t9 -44.5z" />
<glyph unicode="&#163;" horiz-adv-x="620" d="M370 307h-150v-207h330v-100h-450v307h-66v86h66v118q0 49 18.5 86q18.5 37 49 62q30.5 25 69.5 38q39 13 80 13q75 0 132 -29.5q57 -29.5 92 -92.5l-103 -46q-24 37 -49.5 52.5q-25.5 15.5 -67.5 15.5q-43 0 -72 -28q-29 -28 -29 -76v-113l150 0z" />
<glyph unicode="&#164;" horiz-adv-x="620" d="M419 182q-25 -17 -52.5 -24q-27.5 -7 -56.5 -7q-31 0 -57.5 7q-26.5 7 -51.5 24l-77 -78l-62 63l77 77q-32 48 -32 109q0 60 32 108l-77 77l62 62l77 -77q48 32 109 32q60 0 109 -33l77 78l62 -62l-77 -77q32 -48 32 -108q0 -61 -32 -109l77 -77l-62 -63zM421 353q0 50 -31 82q-31 32 -80 32q-49 0 -80 -32.5q-31 -32.5 -31 -81.5q0 -49 31 -81.5q31 -32.5 80 -32.5q49 0 80 32.5t31 81.5z" />
<glyph unicode="&#165;" horiz-adv-x="620" d="M250 0v167h-150v76h150v38l-26 48h-124v76h84l-154 295h136l144 -286l144 286h136l-155 -295h85v-76h-125l-25 -48v-38h150v-76h-150l0 -167z" />
<glyph unicode="&#166;" horiz-adv-x="620" d="M366 440h-112v340h112zM254 -80v340h112l0 -340z" />
<glyph unicode="&#167;" horiz-adv-x="510" d="M183 547q0 -32 23.5 -52q23.5 -20 73.5 -31q35 -8 67 -21q32 -13 56 -34.5q24 -21.5 38.5 -53q14.5 -31.5 14.5 -77.5q0 -57 -26.5 -97q-26.5 -40 -75.5 -61q45 -17 73 -52q28 -35 28 -84q0 -36 -13.5 -65.5q-13.5 -29.5 -38.5 -51q-25 -21.5 -60 -33.5q-35 -12 -77 -12q-81 0 -132 29.5q-51 29.5 -77 76.5l95 47q19 -32 47 -46q28 -14 62 -14q40 0 61 20q21 20 21 52q0 19 -9 33q-9 14 -24.5 24q-15.5 10 -36 16.5q-20.5 6.5 -43.5 11.5q-35 7 -67 19.5q-32 12.5 -56 34.5q-24 22 -38.5 54q-14.5 32 -14.5 78q0 57 26.5 97.5q26.5 40.5 76.5 61.5q-39 17 -62.5 52.5q-23.5 35.5 -23.5 80.5q0 36 14 65.5q14 29.5 38.5 50.5q24.5 21 59 32.5q34.5 11.5 75.5 11.5q39 0 69.5 -9q30.5 -9 54 -23q23.5 -14 40 -31.5q16.5 -17.5 26.5 -35.5l-94 -49q-12 23 -32.5 39q-20.5 16 -59.5 16q-40 0 -59.5 -19.5q-19.5 -19.5 -19.5 -50.5zt0 0zM265 162q35 0 55 29.5q20 29.5 20 76.5q0 51 -24.5 78.5q-24.5 27.5 -70.5 27.5q-35 0 -55 -29q-20 -29 -20 -77q0 -51 24.5 -78.5t70.5 -27.5z" />
<glyph unicode="&#168;" horiz-adv-x="500" d="M90 700h110v-124h-110zM300 700h110v-124l-110 0z" />
<glyph unicode="&#169;" horiz-adv-x="820" d="M60 350q0 79 26.5 145.5q26.5 66.5 73 114.5q46.5 48 110.5 75q64 27 140 27q76 0 140 -27q64 -27 110.5 -75q46.5 -48 73 -114.5q26.5 -66.5 26.5 -145.5q0 -80 -26.5 -146.5q-26.5 -66.5 -73 -114.5q-46.5 -48 -110.5 -74.5q-64 -26.5 -140 -26.5q-76 0 -140 26.5q-64 26.5 -110.5 74.5q-46.5 48 -73 114.5q-26.5 66.5 -26.5 146.5zt0 0zM140 350q0 -61 19.5 -113.5q19.5 -52.5 55 -90.5q35.5 -38 85.5 -60q50 -22 110 -22q60 0 110 22q50 22 85.5 60q35.5 38 55 90.5q19.5 52.5 19.5 113.5q0 61 -19.5 113.5q-19.5 52.5 -54.5 90.5q-35 38 -85 60q-50 22 -111 22q-61 0 -111 -22q-50 -22 -85 -60q-35 -38 -54.5 -90.5q-19.5 -52.5 -19.5 -113.5zt0 0zM420 230q33 0 50.5 18q17.5 18 31.5 44l66 -39q-26 -48 -64.5 -73.5q-38.5 -25.5 -88.5 -25.5q-43 0 -74.5 16q-31.5 16 -51.5 43q-20 27 -30 63.5q-10 36.5 -10 77.5q0 41 10 77.5q10 36.5 30 63.5q20 27 51.5 43q31.5 16 75.5 16q99 0 148 -94l-68 -35q-14 26 -29.5 39.5q-15.5 13.5 -46.5 13.5q-27 0 -43.5 -11q-16.5 -11 -26 -29q-9.5 -18 -12.5 -40q-3 -22 -3 -44q0 -23 4.5 -45.5q4.5 -22.5 14 -40q9.5 -17.5 26 -28t40.5 -10.5z" />
<glyph unicode="&#170;" horiz-adv-x="400" d="M264 338v36q-21 -24 -48.5 -34q-27.5 -10 -54.5 -10q-24 0 -46 7.5q-22 7.5 -38.5 21.5q-16.5 14 -26.5 34q-10 20 -10 46q0 33 14 57q14 24 38 39.5q24 15.5 55.5 23.5q31.5 8 66.5 8h50v13q0 25 -15 42.5q-15 17.5 -47 17.5q-26 0 -45.5 -9q-19.5 -9 -33.5 -29l-74 40q27 38 69 53q42 15 91 15q63 0 102 -33.5q39 -33.5 39 -98.5v-240zM264 497h-52q-35 0 -58.5 -10.5q-23.5 -10.5 -23.5 -41.5q0 -21 13.5 -33q13.5 -12 36.5 -12q20 0 43.5 13.5q23.5 13.5 40.5 45.5z" />
<glyph unicode="&#171;" horiz-adv-x="614" d="M50 270l244 224v-128l-108 -96l108 -96v-128zM300 270l244 224v-128l-108 -96l108 -96l0 -128z" />
<glyph unicode="&#172;" horiz-adv-x="620" d="M522 170h-92v173h-332v92l424 0z" />
<glyph unicode="&#173;" horiz-adv-x="348" d="M54 320h240v-100l-240 0z" />
<glyph unicode="&#174;" horiz-adv-x="820" d="M60 350q0 79 26.5 145.5q26.5 66.5 73 114.5q46.5 48 110.5 75q64 27 140 27q76 0 140 -27q64 -27 110.5 -75q46.5 -48 73 -114.5q26.5 -66.5 26.5 -145.5q0 -80 -26.5 -146.5q-26.5 -66.5 -73 -114.5q-46.5 -48 -110.5 -74.5q-64 -26.5 -140 -26.5q-76 0 -140 26.5q-64 26.5 -110.5 74.5q-46.5 48 -73 114.5q-26.5 66.5 -26.5 146.5zt0 0zM140 350q0 -61 19.5 -113.5q19.5 -52.5 55 -90.5q35.5 -38 85.5 -60q50 -22 110 -22q60 0 110 22q50 22 85.5 60q35.5 38 55 90.5q19.5 52.5 19.5 113.5q0 61 -19.5 113.5q-19.5 52.5 -54.5 90.5q-35 38 -85 60q-50 22 -111 22q-61 0 -111 -22q-50 -22 -85 -60q-35 -38 -54.5 -90.5q-19.5 -52.5 -19.5 -113.5zt0 0zM355 300v-141h-84v393h138q26 0 55 -5.5q29 -5.5 53.5 -19.5q24.5 -14 40.5 -38.5q16 -24.5 16 -61.5q0 -45 -23 -72.5q-23 -27.5 -60 -41.5l88 -154h-96l-76 141zM355 376h59q34 0 54 12.5q20 12.5 20 38.5q0 27 -20 38q-20 11 -54 11l-59 0z" />
<glyph unicode="&#175;" horiz-adv-x="500" d="M130 674h240v-88l-240 0z" />
<glyph unicode="&#176;" horiz-adv-x="620" d="M310 720q34 0 63 -12q29 -12 50.5 -33.5q21.5 -21.5 34 -51q12.5 -29.5 12.5 -63.5q0 -34 -12 -63q-12 -29 -33.5 -50.5q-21.5 -21.5 -51 -34q-29.5 -12.5 -63.5 -12.5q-35 0 -64 12q-29 12 -50.5 33.5q-21.5 21.5 -33.5 51q-12 29.5 -12 63.5q0 34 12 63.5q12 29.5 33.5 51q21.5 21.5 51 33.5q29.5 12 63.5 12zt0 0zM392 560q0 36 -23 61q-23 25 -59 25q-37 0 -59.5 -24.5q-22.5 -24.5 -22.5 -61.5q0 -37 23 -61.5q23 -24.5 59 -24.5q37 0 59.5 25t22.5 61z" />
<glyph unicode="&#177;" horiz-adv-x="620" d="M356 396h154v-92h-154v-154h-92v154h-154v92h154v154h92zM510 92v-92h-400l0 92z" />
<glyph unicode="&#178;" horiz-adv-x="400" d="M55 290v60l120 125q35 35 56.5 62q21.5 27 21.5 53q0 22 -12 37q-12 15 -35 15q-44 0 -70 -56l-77 34q26 48 66 69q40 21 87 21q63 0 97 -33.5q34 -33.5 34 -86.5q0 -37 -21.5 -71q-21.5 -34 -53.5 -69l-86 -92h161l0 -68z" />
<glyph unicode="&#179;" horiz-adv-x="400" d="M159 536h34q28 0 42.5 15.5q14.5 15.5 14.5 39.5q0 23 -15.5 37q-15.5 14 -36.5 14q-20 0 -38 -11q-18 -11 -29 -35l-76 32q8 15 21 29.5q13 14.5 31 26q18 11.5 42 19q24 7.5 54 7.5q65 0 101 -31.5q36 -31.5 36 -80.5q0 -30 -16 -54.5q-16 -24.5 -39 -37.5l0 -4q29 -11 47 -34q18 -23 18 -61q0 -29 -11.5 -51.5q-11.5 -22.5 -32 -38.5q-20.5 -16 -47 -24.5q-26.5 -8.5 -56.5 -8.5q-65 0 -100.5 24q-35.5 24 -52.5 58l76 31q13 -21 29 -32.5q16 -11.5 43 -11.5q27 0 44.5 15q17.5 15 17.5 45q0 23 -16.5 39q-16.5 16 -50.5 16l-34 0z" />
<glyph unicode="&#180;" horiz-adv-x="500" d="M170 560l72 150h118l-100 -150z" />
<glyph unicode="&#181;" horiz-adv-x="572" d="M498 0h-112v50h-4q-20 -31 -43 -45.5q-23 -14.5 -55 -14.5q-29 0 -54.5 15.5q-25.5 15.5 -39.5 44.5l-4 0v-250h-112v700h112v-299q0 -23 7.5 -44q7.5 -21 20.5 -38q13 -17 31 -27q18 -10 39 -10q24 0 42.5 10q18.5 10 32 26.5q13.5 16.5 20.5 37.5q7 21 7 43v301l112 0z" />
<glyph unicode="&#182;" horiz-adv-x="658" d="M584 700v-900h-112v808h-94v-808h-112v520q-50 0 -91.5 13q-41.5 13 -71.5 38q-30 25 -46.5 60q-16.5 35 -16.5 79q0 45 16.5 80.5q16.5 35.5 47.5 59.5q31 24 73.5 37q42.5 13 95.5 13z" />
<glyph unicode="&#183;" horiz-adv-x="292" d="M84 400h124v-124l-124 0z" />
<glyph unicode="&#184;" horiz-adv-x="500" d="M150 -150h80q18 0 29 7.5q11 7.5 11 22.5q0 15 -11 22.5q-11 7.5 -29 7.5h-48v90h76v-34q45 0 71.5 -24q26.5 -24 26.5 -62q0 -38 -26.5 -64q-26.5 -26 -79.5 -26l-100 0z" />
<glyph unicode="&#185;" horiz-adv-x="400" d="M243 358h77v-68h-240v68h77v250l-77 -82v92l82 82l81 0z" />
<glyph unicode="&#186;" horiz-adv-x="400" d="M350 431q-14 -48 -54 -74.5q-40 -26.5 -96 -26.5q-56 0 -96 26.5q-40 26.5 -54 74.5q-7 23 -8.5 42q-1.5 19 -1.5 47q0 29 1.5 47.5q1.5 18.5 8.5 41.5q14 48 54 74.5q40 26.5 96 26.5q56 0 96 -26.5q40 -26.5 54 -74.5q7 -23 8.5 -41.5q1.5 -18.5 1.5 -47.5q0 -28 -1.5 -47q-1.5 -19 -8.5 -42zt0 0zM200 400q44 0 60 41q8 18 9 37q1 19 1 42q0 23 -1 42.5q-1 19.5 -9 36.5q-8 19 -22.5 30q-14.5 11 -37.5 11q-23 0 -38 -11q-15 -11 -23 -30q-7 -17 -8 -36.5q-1 -19.5 -1 -42.5q0 -23 1 -42q1 -19 8 -37q17 -41 61 -41z" />
<glyph unicode="&#187;" horiz-adv-x="614" d="M564 270l-244 -224v128l108 96l-108 96v128zM314 270l-244 -224v128l108 96l-108 96l0 128z" />
<glyph unicode="&#188;" horiz-adv-x="900" d="M200 -20l414 740h86l-414 -740zM676 308l-106 -166h106zM676 74h-207v64l177 272h116v-268h58v-68h-58v-74h-86zM243 358h77v-68h-240v68h77v250l-77 -82v92l82 82l81 0z" />
<glyph unicode="&#189;" horiz-adv-x="900" d="M195 -20l414 740h86l-414 -740zM239 358h77v-68h-240v68h77v250l-77 -82v92l82 82h81zM536 0v60l120 125q35 35 56.5 62q21.5 27 21.5 53q0 22 -12 37q-12 15 -35 15q-44 0 -70 -56l-77 34q26 48 66 69q40 21 87 21q63 0 97 -33.5q34 -33.5 34 -86.5q0 -37 -21.5 -71q-21.5 -34 -53.5 -69l-86 -92h161l0 -68z" />
<glyph unicode="&#190;" horiz-adv-x="900" d="M220 -20l414 740h86l-414 -740zM696 308l-106 -166h106zM696 74h-207v64l177 272h116v-268h58v-68h-58v-74h-86zM169 536h34q28 0 42.5 15.5q14.5 15.5 14.5 39.5q0 23 -15.5 37q-15.5 14 -36.5 14q-20 0 -38 -11q-18 -11 -29 -35l-76 32q8 15 21 29.5q13 14.5 31 26q18 11.5 42 19q24 7.5 54 7.5q65 0 101 -31.5q36 -31.5 36 -80.5q0 -30 -16 -54.5q-16 -24.5 -39 -37.5l0 -4q29 -11 47 -34q18 -23 18 -61q0 -29 -11.5 -51.5q-11.5 -22.5 -32 -38.5q-20.5 -16 -47 -24.5q-26.5 -8.5 -56.5 -8.5q-65 0 -100.5 24q-35.5 24 -52.5 58l76 31q13 -21 29 -32.5q16 -11.5 43 -11.5q27 0 44.5 15q17.5 15 17.5 45q0 23 -16.5 39q-16.5 16 -50.5 16l-34 0z" />
<glyph unicode="&#191;" horiz-adv-x="600" d="M378 316v-20q0 -20 -3.5 -37q-3.5 -17 -11.5 -33.5q-8 -16.5 -20.5 -34.5q-12.5 -18 -31.5 -40q-24 -29 -43.5 -52.5q-19.5 -23.5 -33.5 -44q-14 -20.5 -22 -40q-8 -19.5 -8 -40.5q0 -46 27 -68q27 -22 64 -22q35 0 69 21.5q34 21.5 57 75.5l105 -40q-16 -39 -41 -67.5q-25 -28.5 -56.5 -47q-31.5 -18.5 -66.5 -27.5q-35 -9 -70 -9q-39 0 -76.5 11q-37.5 11 -67 33.5q-29.5 22.5 -47 56.5q-17.5 34 -17.5 81q0 30 8.5 54.5q8.5 24.5 24 48.5q15.5 24 36.5 50q21 26 47 58q27 34 42.5 58.5q15.5 24.5 15.5 54.5v20zM380 376h-124v124l124 0z" />
<glyph unicode="&#192;" horiz-adv-x="628" d="M258 700h112l250 -700h-126l-57 171h-246l-57 -171h-126zM406 271l-92 273l-92 -273zM294 750l-100 160h127l73 -160z" />
<glyph unicode="&#193;" horiz-adv-x="628" d="M258 700h112l250 -700h-126l-57 171h-246l-57 -171h-126zM406 271l-92 273l-92 -273zM234 750l72 160h128l-100 -160z" />
<glyph unicode="&#194;" horiz-adv-x="628" d="M258 700h112l250 -700h-126l-57 171h-246l-57 -171h-126zM406 271l-92 273l-92 -273zM258 910h112l119 -160h-114l-61 91l-61 -91l-114 0z" />
<glyph unicode="&#195;" horiz-adv-x="628" d="M258 700h112l250 -700h-126l-57 171h-246l-57 -171h-126zM406 271l-92 273l-92 -273zM243 890q24 0 41.5 -7.5q17.5 -7.5 39.5 -17.5q18 -8 32 -14.5q14 -6.5 30 -6.5q20 0 38 12.5q18 12.5 35 30.5l60 -68q-26 -28 -62 -48.5q-36 -20.5 -73 -20.5q-24 0 -41.5 8q-17.5 8 -37.5 18q-18 8 -33 14q-15 6 -31 6q-20 0 -38 -12.5q-18 -12.5 -35 -29.5l-59 68q29 28 63 48t71 20z" />
<glyph unicode="&#196;" horiz-adv-x="628" d="M258 700h112l250 -700h-126l-57 171h-246l-57 -171h-126zM406 271l-92 273l-92 -273zM148 884h114v-124h-114zM366 884h114v-124l-114 0z" />
<glyph unicode="&#197;" horiz-adv-x="628" d="M258 700h112l250 -700h-126l-57 171h-246l-57 -171h-126zM406 271l-92 273l-92 -273zM186 868q0 27 10 50q10 23 27.5 40.5q17.5 17.5 40.5 27.5q23 10 50 10q27 0 50 -10q23 -10 40.5 -27.5q17.5 -17.5 27.5 -40.5q10 -23 10 -50q0 -27 -10 -50q-10 -23 -27.5 -40.5q-17.5 -17.5 -40.5 -27.5q-23 -10 -50 -10q-27 0 -50 10q-23 10 -40.5 27.5q-17.5 17.5 -27.5 40.5q-10 23 -10 50zt0 0zM264 868q0 -23 14 -38.5q14 -15.5 36 -15.5q22 0 36 15.5q14 15.5 14 38.5q0 23 -14 38.5q-14 15.5 -36 15.5q-22 0 -36 -15.5t-14 -38.5z" />
<glyph unicode="&#198;" horiz-adv-x="930" d="M890 0h-470v186h-183l-96 -186h-135l368 700h506v-100h-340v-190h280v-100h-280v-210h350zM420 286v258l-133 -258z" />
<glyph unicode="&#199;" horiz-adv-x="638" d="M260 -148h85q15 0 28 6q13 6 13 21q0 15 -13 21q-13 6 -28 6h-53v85q-93 12 -151 68q-58 56 -75 139q-4 19 -6.5 35.5q-2.5 16.5 -3.5 33.5q-1 17 -1.5 37q-0.5 20 -0.5 46q0 26 0.5 45.5q0.5 19.5 1.5 36.5q1 17 3.5 33.5q2.5 16.5 6.5 36.5q9 46 32 84.5q23 38.5 58 66.5q35 28 81.5 43.5q46.5 15.5 102.5 15.5q106 0 171 -46q65 -46 91 -125l-106 -38q-19 52 -53.5 80.5q-34.5 28.5 -102.5 28.5q-34 0 -59 -9.5q-25 -9.5 -42.5 -25.5q-17.5 -16 -29 -37q-11.5 -21 -17.5 -45q-5 -17 -7.5 -31.5q-2.5 -14.5 -4 -31q-1.5 -16.5 -2 -36q-0.5 -19.5 -0.5 -46.5q0 -27 0.5 -46.5q0.5 -19.5 2 -36q1.5 -16.5 4 -31q2.5 -14.5 7.5 -31.5q6 -23 17.5 -44.5q11.5 -21.5 29 -37.5q17.5 -16 42.5 -25.5q25 -9.5 59 -9.5q68 0 107 35.5q39 35.5 56 90.5l105 -41q-19 -75 -76.5 -124.5q-57.5 -49.5 -153.5 -58.5l0 -24q45 0 72.5 -24q27.5 -24 27.5 -63q0 -39 -29.5 -65q-29.5 -26 -78.5 -26l-110 0z" />
<glyph unicode="&#200;" horiz-adv-x="594" d="M554 0h-470v700h460v-100h-340v-190h280v-100h-280v-210h350zM277 750l-100 160h127l73 -160z" />
<glyph unicode="&#201;" horiz-adv-x="594" d="M554 0h-470v700h460v-100h-340v-190h280v-100h-280v-210h350zM217 750l72 160h128l-100 -160z" />
<glyph unicode="&#202;" horiz-adv-x="594" d="M554 0h-470v700h460v-100h-340v-190h280v-100h-280v-210h350zM241 910h112l119 -160h-114l-61 91l-61 -91l-114 0z" />
<glyph unicode="&#203;" horiz-adv-x="594" d="M554 0h-470v700h460v-100h-340v-190h280v-100h-280v-210h350zM131 884h114v-124h-114zM349 884h114v-124l-114 0z" />
<glyph unicode="&#204;" horiz-adv-x="288" d="M84 700h120v-700h-120zM124 750l-100 160h127l73 -160z" />
<glyph unicode="&#205;" horiz-adv-x="288" d="M84 700h120v-700h-120zM64 750l72 160h128l-100 -160z" />
<glyph unicode="&#206;" horiz-adv-x="288" d="M84 700h120v-700h-120zM88 910h112l119 -160h-114l-61 91l-61 -91l-114 0z" />
<glyph unicode="&#207;" horiz-adv-x="288" d="M84 700h120v-700h-120zM-22 884h114v-124h-114zM196 884h114v-124l-114 0z" />
<glyph unicode="&#208;" horiz-adv-x="700" d="M634 204q-17 -96 -88 -150q-71 -54 -188 -54h-264v314h-84v92h84v294h264q117 0 188 -54.5q71 -54.5 88 -149.5q3 -20 5.5 -36q2.5 -16 4 -32.5q1.5 -16.5 2 -35q0.5 -18.5 0.5 -42.5q0 -24 -0.5 -42.5q-0.5 -18.5 -2 -35q-1.5 -16.5 -4 -33q-2.5 -16.5 -5.5 -35.5zt0 0zM354 100q71 0 108.5 32.5q37.5 32.5 48.5 86.5q3 17 5.5 31q2.5 14 3.5 28.5q1 14.5 1.5 31.5q0.5 17 0.5 40q0 23 -0.5 40q-0.5 17 -1.5 31.5q-1 14.5 -3.5 28.5q-2.5 14 -5.5 31q-11 54 -48.5 86.5q-37.5 32.5 -108.5 32.5h-140v-194h161v-92h-161l0 -214z" />
<glyph unicode="&#209;" horiz-adv-x="728" d="M204 0h-120v700h120l320 -482v482h120v-700h-120l-320 482zM293 890q24 0 41.5 -7.5q17.5 -7.5 39.5 -17.5q18 -8 32 -14.5q14 -6.5 30 -6.5q20 0 38 12.5q18 12.5 35 30.5l60 -68q-26 -28 -62 -48.5q-36 -20.5 -73 -20.5q-24 0 -41.5 8q-17.5 8 -37.5 18q-18 8 -33 14q-15 6 -31 6q-20 0 -38 -12.5q-18 -12.5 -35 -29.5l-59 68q29 28 63 48t71 20z" />
<glyph unicode="&#210;" horiz-adv-x="674" d="M608 198q-9 -46 -31 -84.5q-22 -38.5 -56.5 -66.5q-34.5 -28 -81 -43.5q-46.5 -15.5 -102.5 -15.5q-56 0 -102.5 15.5q-46.5 15.5 -81 43.5q-34.5 28 -56.5 66.5q-22 38.5 -31 84.5q-4 19 -6 35.5q-2 16.5 -3.5 33.5q-1.5 17 -2 37q-0.5 20 -0.5 46q0 26 0.5 45.5q0.5 19.5 2 36.5q1.5 17 3.5 33.5q2 16.5 6 36.5q9 46 31 84.5q22 38.5 56.5 66.5q34.5 28 81 43.5q46.5 15.5 102.5 15.5q56 0 102.5 -15.5q46.5 -15.5 81 -43.5q34.5 -28 56.5 -66.5q22 -38.5 31 -84.5q4 -20 6 -36.5q2 -16.5 3.5 -33.5q1.5 -17 2 -36.5q0.5 -19.5 0.5 -45.5q0 -26 -0.5 -46q-0.5 -20 -2 -37q-1.5 -17 -3.5 -33.5q-2 -16.5 -6 -35.5zt0 0zM337 88q63 0 100 35q37 35 48 88q3 17 5.5 31.5q2.5 14.5 3.5 30q1 15.5 1.5 34q0.5 18.5 0.5 43.5q0 25 -0.5 43.5q-0.5 18.5 -1.5 34q-1 15.5 -3.5 30q-2.5 14.5 -5.5 31.5q-11 53 -48 88q-37 35 -100 35q-63 0 -100 -35.5q-37 -35.5 -48 -87.5q-4 -17 -6 -31.5q-2 -14.5 -3 -30q-1 -15.5 -1.5 -34q-0.5 -18.5 -0.5 -43.5q0 -25 0.5 -43.5q0.5 -18.5 1.5 -34q1 -15.5 3 -30q2 -14.5 6 -31.5q11 -53 48 -88q37 -35 100 -35zt0 0zM317 750l-100 160h127l73 -160z" />
<glyph unicode="&#211;" horiz-adv-x="674" d="M608 198q-9 -46 -31 -84.5q-22 -38.5 -56.5 -66.5q-34.5 -28 -81 -43.5q-46.5 -15.5 -102.5 -15.5q-56 0 -102.5 15.5q-46.5 15.5 -81 43.5q-34.5 28 -56.5 66.5q-22 38.5 -31 84.5q-4 19 -6 35.5q-2 16.5 -3.5 33.5q-1.5 17 -2 37q-0.5 20 -0.5 46q0 26 0.5 45.5q0.5 19.5 2 36.5q1.5 17 3.5 33.5q2 16.5 6 36.5q9 46 31 84.5q22 38.5 56.5 66.5q34.5 28 81 43.5q46.5 15.5 102.5 15.5q56 0 102.5 -15.5q46.5 -15.5 81 -43.5q34.5 -28 56.5 -66.5q22 -38.5 31 -84.5q4 -20 6 -36.5q2 -16.5 3.5 -33.5q1.5 -17 2 -36.5q0.5 -19.5 0.5 -45.5q0 -26 -0.5 -46q-0.5 -20 -2 -37q-1.5 -17 -3.5 -33.5q-2 -16.5 -6 -35.5zt0 0zM337 88q63 0 100 35q37 35 48 88q3 17 5.5 31.5q2.5 14.5 3.5 30q1 15.5 1.5 34q0.5 18.5 0.5 43.5q0 25 -0.5 43.5q-0.5 18.5 -1.5 34q-1 15.5 -3.5 30q-2.5 14.5 -5.5 31.5q-11 53 -48 88q-37 35 -100 35q-63 0 -100 -35.5q-37 -35.5 -48 -87.5q-4 -17 -6 -31.5q-2 -14.5 -3 -30q-1 -15.5 -1.5 -34q-0.5 -18.5 -0.5 -43.5q0 -25 0.5 -43.5q0.5 -18.5 1.5 -34q1 -15.5 3 -30q2 -14.5 6 -31.5q11 -53 48 -88q37 -35 100 -35zt0 0zM257 750l72 160h128l-100 -160z" />
<glyph unicode="&#212;" horiz-adv-x="674" d="M608 198q-9 -46 -31 -84.5q-22 -38.5 -56.5 -66.5q-34.5 -28 -81 -43.5q-46.5 -15.5 -102.5 -15.5q-56 0 -102.5 15.5q-46.5 15.5 -81 43.5q-34.5 28 -56.5 66.5q-22 38.5 -31 84.5q-4 19 -6 35.5q-2 16.5 -3.5 33.5q-1.5 17 -2 37q-0.5 20 -0.5 46q0 26 0.5 45.5q0.5 19.5 2 36.5q1.5 17 3.5 33.5q2 16.5 6 36.5q9 46 31 84.5q22 38.5 56.5 66.5q34.5 28 81 43.5q46.5 15.5 102.5 15.5q56 0 102.5 -15.5q46.5 -15.5 81 -43.5q34.5 -28 56.5 -66.5q22 -38.5 31 -84.5q4 -20 6 -36.5q2 -16.5 3.5 -33.5q1.5 -17 2 -36.5q0.5 -19.5 0.5 -45.5q0 -26 -0.5 -46q-0.5 -20 -2 -37q-1.5 -17 -3.5 -33.5q-2 -16.5 -6 -35.5zt0 0zM337 88q63 0 100 35q37 35 48 88q3 17 5.5 31.5q2.5 14.5 3.5 30q1 15.5 1.5 34q0.5 18.5 0.5 43.5q0 25 -0.5 43.5q-0.5 18.5 -1.5 34q-1 15.5 -3.5 30q-2.5 14.5 -5.5 31.5q-11 53 -48 88q-37 35 -100 35q-63 0 -100 -35.5q-37 -35.5 -48 -87.5q-4 -17 -6 -31.5q-2 -14.5 -3 -30q-1 -15.5 -1.5 -34q-0.5 -18.5 -0.5 -43.5q0 -25 0.5 -43.5q0.5 -18.5 1.5 -34q1 -15.5 3 -30q2 -14.5 6 -31.5q11 -53 48 -88q37 -35 100 -35zt0 0zM281 910h112l119 -160h-114l-61 91l-61 -91l-114 0z" />
<glyph unicode="&#213;" horiz-adv-x="674" d="M608 198q-9 -46 -31 -84.5q-22 -38.5 -56.5 -66.5q-34.5 -28 -81 -43.5q-46.5 -15.5 -102.5 -15.5q-56 0 -102.5 15.5q-46.5 15.5 -81 43.5q-34.5 28 -56.5 66.5q-22 38.5 -31 84.5q-4 19 -6 35.5q-2 16.5 -3.5 33.5q-1.5 17 -2 37q-0.5 20 -0.5 46q0 26 0.5 45.5q0.5 19.5 2 36.5q1.5 17 3.5 33.5q2 16.5 6 36.5q9 46 31 84.5q22 38.5 56.5 66.5q34.5 28 81 43.5q46.5 15.5 102.5 15.5q56 0 102.5 -15.5q46.5 -15.5 81 -43.5q34.5 -28 56.5 -66.5q22 -38.5 31 -84.5q4 -20 6 -36.5q2 -16.5 3.5 -33.5q1.5 -17 2 -36.5q0.5 -19.5 0.5 -45.5q0 -26 -0.5 -46q-0.5 -20 -2 -37q-1.5 -17 -3.5 -33.5q-2 -16.5 -6 -35.5zt0 0zM337 88q63 0 100 35q37 35 48 88q3 17 5.5 31.5q2.5 14.5 3.5 30q1 15.5 1.5 34q0.5 18.5 0.5 43.5q0 25 -0.5 43.5q-0.5 18.5 -1.5 34q-1 15.5 -3.5 30q-2.5 14.5 -5.5 31.5q-11 53 -48 88q-37 35 -100 35q-63 0 -100 -35.5q-37 -35.5 -48 -87.5q-4 -17 -6 -31.5q-2 -14.5 -3 -30q-1 -15.5 -1.5 -34q-0.5 -18.5 -0.5 -43.5q0 -25 0.5 -43.5q0.5 -18.5 1.5 -34q1 -15.5 3 -30q2 -14.5 6 -31.5q11 -53 48 -88q37 -35 100 -35zt0 0zM266 890q24 0 41.5 -7.5q17.5 -7.5 39.5 -17.5q18 -8 32 -14.5q14 -6.5 30 -6.5q20 0 38 12.5q18 12.5 35 30.5l60 -68q-26 -28 -62 -48.5q-36 -20.5 -73 -20.5q-24 0 -41.5 8q-17.5 8 -37.5 18q-18 8 -33 14q-15 6 -31 6q-20 0 -38 -12.5q-18 -12.5 -35 -29.5l-59 68q29 28 63 48t71 20z" />
<glyph unicode="&#214;" horiz-adv-x="674" d="M608 198q-9 -46 -31 -84.5q-22 -38.5 -56.5 -66.5q-34.5 -28 -81 -43.5q-46.5 -15.5 -102.5 -15.5q-56 0 -102.5 15.5q-46.5 15.5 -81 43.5q-34.5 28 -56.5 66.5q-22 38.5 -31 84.5q-4 19 -6 35.5q-2 16.5 -3.5 33.5q-1.5 17 -2 37q-0.5 20 -0.5 46q0 26 0.5 45.5q0.5 19.5 2 36.5q1.5 17 3.5 33.5q2 16.5 6 36.5q9 46 31 84.5q22 38.5 56.5 66.5q34.5 28 81 43.5q46.5 15.5 102.5 15.5q56 0 102.5 -15.5q46.5 -15.5 81 -43.5q34.5 -28 56.5 -66.5q22 -38.5 31 -84.5q4 -20 6 -36.5q2 -16.5 3.5 -33.5q1.5 -17 2 -36.5q0.5 -19.5 0.5 -45.5q0 -26 -0.5 -46q-0.5 -20 -2 -37q-1.5 -17 -3.5 -33.5q-2 -16.5 -6 -35.5zt0 0zM337 88q63 0 100 35q37 35 48 88q3 17 5.5 31.5q2.5 14.5 3.5 30q1 15.5 1.5 34q0.5 18.5 0.5 43.5q0 25 -0.5 43.5q-0.5 18.5 -1.5 34q-1 15.5 -3.5 30q-2.5 14.5 -5.5 31.5q-11 53 -48 88q-37 35 -100 35q-63 0 -100 -35.5q-37 -35.5 -48 -87.5q-4 -17 -6 -31.5q-2 -14.5 -3 -30q-1 -15.5 -1.5 -34q-0.5 -18.5 -0.5 -43.5q0 -25 0.5 -43.5q0.5 -18.5 1.5 -34q1 -15.5 3 -30q2 -14.5 6 -31.5q11 -53 48 -88q37 -35 100 -35zt0 0zM171 884h114v-124h-114zM389 884h114v-124l-114 0z" />
<glyph unicode="&#215;" horiz-adv-x="620" d="M375 300l109 -109l-65 -65l-109 109l-109 -109l-65 65l109 109l-109 109l65 65l109 -109l109 109l65 -65z" />
<glyph unicode="&#216;" horiz-adv-x="674" d="M608 198q-9 -46 -31 -84.5q-22 -38.5 -56.5 -66.5q-34.5 -28 -81 -43.5q-46.5 -15.5 -102.5 -15.5q-46 0 -84.5 10q-38.5 10 -70.5 29l-56 -87l-72 48l62 97q-38 49 -50 113q-4 19 -6 35.5q-2 16.5 -3.5 33.5q-1.5 17 -2 37q-0.5 20 -0.5 46q0 26 0.5 45.5q0.5 19.5 2 36.5q1.5 17 3.5 33.5q2 16.5 6 36.5q9 46 31 84.5q22 38.5 56.5 66.5q34.5 28 81 43.5q46.5 15.5 102.5 15.5q45 0 84 -10.5q39 -10.5 71 -29.5l56 88l72 -48l-62 -97q38 -48 50 -113q4 -20 6 -36.5q2 -16.5 3.5 -33.5q1.5 -17 2 -36.5q0.5 -19.5 0.5 -45.5q0 -26 -0.5 -46q-0.5 -20 -2 -37q-1.5 -17 -3.5 -33.5q-2 -16.5 -6 -35.5zt0 0zM337 88q63 0 100 35q37 35 48 88q3 17 5.5 31.5q2.5 14.5 3.5 30q1 15.5 1.5 34q0.5 18.5 0.5 43.5q0 45 -2 81q-2 36 -11 67l-242 -378q38 -32 96 -32zt0 0zM178 350q0 -44 2.5 -82.5q2.5 -38.5 10.5 -65.5l242 378q-19 15 -43 23.5q-24 8.5 -53 8.5q-63 0 -100 -35.5q-37 -35.5 -48 -87.5q-4 -17 -6 -31.5q-2 -14.5 -3 -30q-1 -15.5 -1.5 -34t-0.5 -43.5z" />
<glyph unicode="&#217;" horiz-adv-x="700" d="M196 266q0 -85 38 -131q38 -46 116 -46q77 0 115.5 46q38.5 46 38.5 131v434h120v-449q0 -64 -19.5 -113q-19.5 -49 -55 -82q-35.5 -33 -86 -50q-50.5 -17 -113.5 -17q-63 0 -113.5 17q-50.5 17 -86 50q-35.5 33 -55 82q-19.5 49 -19.5 113v449h120zM330 750l-100 160h127l73 -160z" />
<glyph unicode="&#218;" horiz-adv-x="700" d="M196 266q0 -85 38 -131q38 -46 116 -46q77 0 115.5 46q38.5 46 38.5 131v434h120v-449q0 -64 -19.5 -113q-19.5 -49 -55 -82q-35.5 -33 -86 -50q-50.5 -17 -113.5 -17q-63 0 -113.5 17q-50.5 17 -86 50q-35.5 33 -55 82q-19.5 49 -19.5 113v449h120zM270 750l72 160h128l-100 -160z" />
<glyph unicode="&#219;" horiz-adv-x="700" d="M196 266q0 -85 38 -131q38 -46 116 -46q77 0 115.5 46q38.5 46 38.5 131v434h120v-449q0 -64 -19.5 -113q-19.5 -49 -55 -82q-35.5 -33 -86 -50q-50.5 -17 -113.5 -17q-63 0 -113.5 17q-50.5 17 -86 50q-35.5 33 -55 82q-19.5 49 -19.5 113v449h120zM294 910h112l119 -160h-114l-61 91l-61 -91l-114 0z" />
<glyph unicode="&#220;" horiz-adv-x="700" d="M196 266q0 -85 38 -131q38 -46 116 -46q77 0 115.5 46q38.5 46 38.5 131v434h120v-449q0 -64 -19.5 -113q-19.5 -49 -55 -82q-35.5 -33 -86 -50q-50.5 -17 -113.5 -17q-63 0 -113.5 17q-50.5 17 -86 50q-35.5 33 -55 82q-19.5 49 -19.5 113v449h120zM184 884h114v-124h-114zM402 884h114v-124l-114 0z" />
<glyph unicode="&#221;" horiz-adv-x="574" d="M227 0v281l-221 419h136l145 -286l145 286h136l-221 -419v-281zM207 750l72 160h128l-100 -160z" />
<glyph unicode="&#222;" horiz-adv-x="620" d="M80 700h120v-120h123q129 0 196 -59q67 -59 67 -162q0 -103 -65.5 -162q-65.5 -59 -191.5 -59h-129v-138h-120zM325 238q73 0 105 34q32 34 32 87q0 56 -33.5 88.5q-33.5 32.5 -112.5 32.5h-116l0 -242z" />
<glyph unicode="&#223;" horiz-adv-x="554" d="M74 0v498q0 56 19.5 96.5q19.5 40.5 50 66q30.5 25.5 68.5 37.5q38 12 76 12q45 0 82.5 -10.5q37.5 -10.5 64.5 -31q27 -20.5 42 -51.5q15 -31 15 -72q0 -45 -22.5 -82q-22.5 -37 -67.5 -54l0 -4q42 -11 64.5 -38q22.5 -27 30.5 -55q8 -26 10.5 -48.5q2.5 -22.5 2.5 -48.5q0 -26 -2 -47q-2 -21 -10 -50q-14 -54 -65.5 -86q-51.5 -32 -134.5 -32h-25v92h16q38 0 62 15q24 15 33 41q7 20 8.5 37.5q1.5 17.5 1.5 37.5q0 20 -1.5 38q-1.5 18 -9.5 37q-10 26 -33 41q-23 15 -61 15h-16v92h16q45 0 67 26.5q22 26.5 22 61.5q0 38 -22.5 61q-22.5 23 -67.5 23q-45 0 -73.5 -31q-28.5 -31 -28.5 -99l0 -488z" />
<glyph unicode="&#224;" horiz-adv-x="520" d="M338 0v54q-23 -29 -57.5 -46.5q-34.5 -17.5 -79.5 -17.5q-38 0 -67.5 11q-29.5 11 -50.5 31.5q-21 20.5 -32 48.5q-11 28 -11 62q0 90 60 128.5q60 38.5 165 38.5h73v26q0 41 -21.5 61.5q-21.5 20.5 -59.5 20.5q-30 0 -58 -11q-28 -11 -50 -42l-94 51q32 51 86 72.5q54 21.5 122 21.5q41 0 75.5 -10.5q34.5 -10.5 59 -32.5q24.5 -22 38.5 -56q14 -34 14 -80v-331zM338 218h-75q-53 0 -81 -15q-28 -15 -28 -53q0 -30 19.5 -49q19.5 -19 57.5 -19q38 0 62.5 21.5q24.5 21.5 44.5 58.5zM150 710h117l73 -150l-90 0z" />
<glyph unicode="&#225;" horiz-adv-x="520" d="M338 0v54q-23 -29 -57.5 -46.5q-34.5 -17.5 -79.5 -17.5q-38 0 -67.5 11q-29.5 11 -50.5 31.5q-21 20.5 -32 48.5q-11 28 -11 62q0 90 60 128.5q60 38.5 165 38.5h73v26q0 41 -21.5 61.5q-21.5 20.5 -59.5 20.5q-30 0 -58 -11q-28 -11 -50 -42l-94 51q32 51 86 72.5q54 21.5 122 21.5q41 0 75.5 -10.5q34.5 -10.5 59 -32.5q24.5 -22 38.5 -56q14 -34 14 -80v-331zM338 218h-75q-53 0 -81 -15q-28 -15 -28 -53q0 -30 19.5 -49q19.5 -19 57.5 -19q38 0 62.5 21.5q24.5 21.5 44.5 58.5zM180 560l72 150h118l-100 -150z" />
<glyph unicode="&#226;" horiz-adv-x="520" d="M338 0v54q-23 -29 -57.5 -46.5q-34.5 -17.5 -79.5 -17.5q-38 0 -67.5 11q-29.5 11 -50.5 31.5q-21 20.5 -32 48.5q-11 28 -11 62q0 90 60 128.5q60 38.5 165 38.5h73v26q0 41 -21.5 61.5q-21.5 20.5 -59.5 20.5q-30 0 -58 -11q-28 -11 -50 -42l-94 51q32 51 86 72.5q54 21.5 122 21.5q41 0 75.5 -10.5q34.5 -10.5 59 -32.5q24.5 -22 38.5 -56q14 -34 14 -80v-331zM338 218h-75q-53 0 -81 -15q-28 -15 -28 -53q0 -30 19.5 -49q19.5 -19 57.5 -19q38 0 62.5 21.5q24.5 21.5 44.5 58.5zM209 720h102l117 -160h-105l-63 95l-63 -95l-105 0z" />
<glyph unicode="&#227;" horiz-adv-x="520" d="M338 0v54q-23 -29 -57.5 -46.5q-34.5 -17.5 -79.5 -17.5q-38 0 -67.5 11q-29.5 11 -50.5 31.5q-21 20.5 -32 48.5q-11 28 -11 62q0 90 60 128.5q60 38.5 165 38.5h73v26q0 41 -21.5 61.5q-21.5 20.5 -59.5 20.5q-30 0 -58 -11q-28 -11 -50 -42l-94 51q32 51 86 72.5q54 21.5 122 21.5q41 0 75.5 -10.5q34.5 -10.5 59 -32.5q24.5 -22 38.5 -56q14 -34 14 -80v-331zM338 218h-75q-53 0 -81 -15q-28 -15 -28 -53q0 -30 19.5 -49q19.5 -19 57.5 -19q38 0 62.5 21.5q24.5 21.5 44.5 58.5zM191 684q23 0 39 -6q16 -6 38 -15q19 -8 33 -12q14 -4 29 -4q31 0 64 36l60 -57q-26 -28 -59.5 -47q-33.5 -19 -66.5 -19q-23 0 -40 6q-17 6 -37 14q-19 8 -33 12.5q-14 4.5 -29 4.5q-30 0 -64 -37l-59 58q29 28 60.5 47t64.5 19z" />
<glyph unicode="&#228;" horiz-adv-x="520" d="M338 0v54q-23 -29 -57.5 -46.5q-34.5 -17.5 -79.5 -17.5q-38 0 -67.5 11q-29.5 11 -50.5 31.5q-21 20.5 -32 48.5q-11 28 -11 62q0 90 60 128.5q60 38.5 165 38.5h73v26q0 41 -21.5 61.5q-21.5 20.5 -59.5 20.5q-30 0 -58 -11q-28 -11 -50 -42l-94 51q32 51 86 72.5q54 21.5 122 21.5q41 0 75.5 -10.5q34.5 -10.5 59 -32.5q24.5 -22 38.5 -56q14 -34 14 -80v-331zM338 218h-75q-53 0 -81 -15q-28 -15 -28 -53q0 -30 19.5 -49q19.5 -19 57.5 -19q38 0 62.5 21.5q24.5 21.5 44.5 58.5zM100 700h110v-124h-110zM310 700h110v-124l-110 0z" />
<glyph unicode="&#229;" horiz-adv-x="520" d="M338 0v54q-23 -29 -57.5 -46.5q-34.5 -17.5 -79.5 -17.5q-38 0 -67.5 11q-29.5 11 -50.5 31.5q-21 20.5 -32 48.5q-11 28 -11 62q0 90 60 128.5q60 38.5 165 38.5h73v26q0 41 -21.5 61.5q-21.5 20.5 -59.5 20.5q-30 0 -58 -11q-28 -11 -50 -42l-94 51q32 51 86 72.5q54 21.5 122 21.5q41 0 75.5 -10.5q34.5 -10.5 59 -32.5q24.5 -22 38.5 -56q14 -34 14 -80v-331zM338 218h-75q-53 0 -81 -15q-28 -15 -28 -53q0 -30 19.5 -49q19.5 -19 57.5 -19q38 0 62.5 21.5q24.5 21.5 44.5 58.5zM135 685q0 26 9.5 49q9.5 23 26.5 40q17 17 40 26.5q23 9.5 49 9.5q26 0 49 -9.5q23 -9.5 40 -26.5q17 -17 26.5 -40q9.5 -23 9.5 -49q0 -26 -9.5 -49q-9.5 -23 -26.5 -40q-17 -17 -40 -26.5q-23 -9.5 -49 -9.5q-26 0 -49 9.5q-23 9.5 -40 26.5q-17 17 -26.5 40q-9.5 23 -9.5 49zt0 0zM209 685q0 -24 14 -39.5q14 -15.5 37 -15.5q23 0 37 15.5q14 15.5 14 39.5q0 24 -14 39.5q-14 15.5 -37 15.5q-23 0 -37 -15.5t-14 -39.5z" />
<glyph unicode="&#230;" horiz-adv-x="816" d="M555 82q38 0 66 15.5q28 15.5 44 49.5l95 -47q-26 -57 -78 -83.5q-52 -26.5 -127 -26.5q-54 0 -97.5 17q-43.5 17 -72.5 50q-13 -11 -28.5 -22.5q-15.5 -11.5 -37 -21.5q-21.5 -10 -49.5 -16.5q-28 -6.5 -65 -6.5q-38 0 -68 11q-30 11 -52 31.5q-22 20.5 -33.5 48.5q-11.5 28 -11.5 62q0 43 16 73q16 30 45.5 49q29.5 19 71 27q41.5 8 92.5 8h73v36q0 41 -21.5 61.5q-21.5 20.5 -59.5 20.5q-30 0 -58 -11q-28 -11 -50 -42l-94 51q32 51 86 72.5q54 21.5 122 21.5q44 0 80 -12q36 -12 61 -37q57 49 151 49q75 0 128 -33q53 -33 73 -95q10 -31 13 -59q3 -28 3 -69v-40h-322q0 -26 2 -44.5q2 -18.5 10 -35.5q11 -25 33 -38.5q22 -13.5 60 -13.5zt0 0zM345 142q-7 31 -7 72l-75 0q-53 0 -81 -16.5q-28 -16.5 -28 -51.5q0 -30 18 -47q18 -17 53 -17q38 0 69 19q31 19 51 41zt0 0zM461 365q-8 -17 -9.5 -31q-1.5 -14 -1.5 -34l206 0q-1 21 -2.5 34.5q-1.5 13.5 -9.5 30.5q-10 23 -30.5 38q-20.5 15 -58.5 15q-38 0 -60.5 -15t-33.5 -38z" />
<glyph unicode="&#231;" horiz-adv-x="484" d="M182 -150h80q18 0 29 7.5q11 7.5 11 22.5q0 15 -11 22.5q-11 7.5 -29 7.5h-48v85q-57 10 -97 41.5q-40 31.5 -57 82.5q-11 31 -13.5 60.5q-2.5 29.5 -2.5 70.5q0 41 2.5 70.5q2.5 29.5 13.5 60.5q20 62 75.5 95.5q55.5 33.5 130.5 33.5q68 0 116 -25q48 -25 72 -81l-97 -45q-13 33 -37 46q-24 13 -54 13q-38 0 -60.5 -18.5q-22.5 -18.5 -33.5 -48.5q-7 -20 -9.5 -44.5q-2.5 -24.5 -2.5 -56.5q0 -32 2 -56.5q2 -24.5 10 -44.5q11 -32 33.5 -49.5q22.5 -17.5 60.5 -17.5q30 0 56.5 17.5q26.5 17.5 39.5 49.5l96 -47q-23 -51 -66 -78.5q-43 -27.5 -102 -32.5l0 -25q45 0 71.5 -24q26.5 -24 26.5 -62q0 -38 -26.5 -64q-26.5 -26 -79.5 -26l-100 0z" />
<glyph unicode="&#232;" horiz-adv-x="526" d="M265 82q38 0 66 15.5q28 15.5 44 49.5l95 -47q-26 -57 -78 -83.5q-52 -26.5 -127 -26.5q-75 0 -130 33q-55 33 -75 95q-11 31 -13.5 61q-2.5 30 -2.5 71q0 41 2.5 71q2.5 30 13.5 61q20 62 75 95q55 33 130 33q75 0 128 -33q53 -33 73 -95q10 -31 13 -60q3 -29 3 -70v-40h-322q0 -26 2 -43.5q2 -17.5 10 -34.5q11 -25 33 -38.5q22 -13.5 60 -13.5zt0 0zM171 365q-8 -17 -9.5 -32q-1.5 -15 -1.5 -35l206 0q-1 21 -2.5 35.5q-1.5 14.5 -9.5 31.5q-10 23 -30.5 38q-20.5 15 -58.5 15q-38 0 -60.5 -15q-22.5 -15 -33.5 -38zt0 0zM153 710h117l73 -150l-90 0z" />
<glyph unicode="&#233;" horiz-adv-x="526" d="M265 82q38 0 66 15.5q28 15.5 44 49.5l95 -47q-26 -57 -78 -83.5q-52 -26.5 -127 -26.5q-75 0 -130 33q-55 33 -75 95q-11 31 -13.5 61q-2.5 30 -2.5 71q0 41 2.5 71q2.5 30 13.5 61q20 62 75 95q55 33 130 33q75 0 128 -33q53 -33 73 -95q10 -31 13 -60q3 -29 3 -70v-40h-322q0 -26 2 -43.5q2 -17.5 10 -34.5q11 -25 33 -38.5q22 -13.5 60 -13.5zt0 0zM171 365q-8 -17 -9.5 -32q-1.5 -15 -1.5 -35l206 0q-1 21 -2.5 35.5q-1.5 14.5 -9.5 31.5q-10 23 -30.5 38q-20.5 15 -58.5 15q-38 0 -60.5 -15q-22.5 -15 -33.5 -38zt0 0zM183 560l72 150h118l-100 -150z" />
<glyph unicode="&#234;" horiz-adv-x="526" d="M265 82q38 0 66 15.5q28 15.5 44 49.5l95 -47q-26 -57 -78 -83.5q-52 -26.5 -127 -26.5q-75 0 -130 33q-55 33 -75 95q-11 31 -13.5 61q-2.5 30 -2.5 71q0 41 2.5 71q2.5 30 13.5 61q20 62 75 95q55 33 130 33q75 0 128 -33q53 -33 73 -95q10 -31 13 -60q3 -29 3 -70v-40h-322q0 -26 2 -43.5q2 -17.5 10 -34.5q11 -25 33 -38.5q22 -13.5 60 -13.5zt0 0zM171 365q-8 -17 -9.5 -32q-1.5 -15 -1.5 -35l206 0q-1 21 -2.5 35.5q-1.5 14.5 -9.5 31.5q-10 23 -30.5 38q-20.5 15 -58.5 15q-38 0 -60.5 -15q-22.5 -15 -33.5 -38zt0 0zM212 720h102l117 -160h-105l-63 95l-63 -95l-105 0z" />
<glyph unicode="&#235;" horiz-adv-x="526" d="M265 82q38 0 66 15.5q28 15.5 44 49.5l95 -47q-26 -57 -78 -83.5q-52 -26.5 -127 -26.5q-75 0 -130 33q-55 33 -75 95q-11 31 -13.5 61q-2.5 30 -2.5 71q0 41 2.5 71q2.5 30 13.5 61q20 62 75 95q55 33 130 33q75 0 128 -33q53 -33 73 -95q10 -31 13 -60q3 -29 3 -70v-40h-322q0 -26 2 -43.5q2 -17.5 10 -34.5q11 -25 33 -38.5q22 -13.5 60 -13.5zt0 0zM171 365q-8 -17 -9.5 -32q-1.5 -15 -1.5 -35l206 0q-1 21 -2.5 35.5q-1.5 14.5 -9.5 31.5q-10 23 -30.5 38q-20.5 15 -58.5 15q-38 0 -60.5 -15q-22.5 -15 -33.5 -38zt0 0zM103 700h110v-124h-110zM313 700h110v-124l-110 0z" />
<glyph unicode="&#236;" horiz-adv-x="260" d="M74 500h112v-500h-112zM20 710h117l73 -150l-90 0z" />
<glyph unicode="&#237;" horiz-adv-x="260" d="M74 500h112v-500h-112zM50 560l72 150h118l-100 -150z" />
<glyph unicode="&#238;" horiz-adv-x="260" d="M74 500h112v-500h-112zM79 720h102l117 -160h-105l-63 95l-63 -95l-105 0z" />
<glyph unicode="&#239;" horiz-adv-x="260" d="M74 500h112v-500h-112zM10 700h96v-126h-96zM154 700h96v-126l-96 0z" />
<glyph unicode="&#240;" horiz-adv-x="528" d="M275 622l84 -63q36 -27 60.5 -60q24.5 -33 38.5 -70.5q14 -37.5 20 -79q6 -41.5 6 -86.5q0 -40 -3 -72q-3 -32 -12 -60q-20 -66 -70.5 -103.5q-50.5 -37.5 -134.5 -37.5q-84 0 -137 36q-53 36 -71 102q-8 23 -10 43.5q-2 20.5 -2 53.5q0 33 2 53.5q2 20.5 10 43.5q9 34 27.5 60q18.5 26 43.5 43.5q25 17.5 54 26q29 8.5 59 8.5q30 0 58 -9.5q28 -9.5 59 -32.5l3 2q-9 19 -23 34q-14 15 -31 28l-81 61l-40 -53l-62 38l40 53l-70 48l51 81l70 -50l40 54l62 -38zM264 82q35 0 59 17q24 17 34 43q8 17 9.5 36q1.5 19 1.5 47q0 28 -1 46q-1 18 -9 35q-10 26 -33.5 44q-23.5 18 -60.5 18q-37 0 -60.5 -17q-23.5 -17 -33.5 -43q-8 -17 -9 -36q-1 -19 -1 -47q0 -28 1 -47q1 -19 9 -36q10 -26 34.5 -43t59.5 -17z" />
<glyph unicode="&#241;" horiz-adv-x="564" d="M74 500h112v-52h4q23 26 57.5 44q34.5 18 76.5 18q75 0 122.5 -47.5q47.5 -47.5 47.5 -152.5v-310h-112v300q0 60 -24.5 89q-24.5 29 -69.5 29q-26 0 -45.5 -10q-19.5 -10 -32 -26q-12.5 -16 -18.5 -37.5q-6 -21.5 -6 -43.5v-301h-112zM213 684q23 0 39 -6q16 -6 38 -15q19 -8 33 -12q14 -4 29 -4q31 0 64 36l60 -57q-26 -28 -59.5 -47q-33.5 -19 -66.5 -19q-23 0 -40 6q-17 6 -37 14q-19 8 -33 12.5q-14 4.5 -29 4.5q-30 0 -64 -37l-59 58q29 28 60.5 47t64.5 19z" />
<glyph unicode="&#242;" horiz-adv-x="528" d="M468 118q-21 -62 -75 -95q-54 -33 -129 -33q-75 0 -129 33q-54 33 -75 95q-11 31 -13.5 61q-2.5 30 -2.5 71q0 41 2.5 71q2.5 30 13.5 61q21 62 75 95q54 33 129 33q75 0 129 -33q54 -33 75 -95q11 -31 13.5 -61q2.5 -30 2.5 -71q0 -41 -2.5 -71q-2.5 -30 -13.5 -61zt0 0zM264 82q38 0 60 17q22 17 32 44q9 25 10.5 50q1.5 25 1.5 57q0 32 -1.5 57q-1.5 25 -10.5 50q-10 26 -32 43.5q-22 17.5 -60 17.5q-38 0 -60 -17.5q-22 -17.5 -32 -43.5q-9 -25 -10.5 -50q-1.5 -25 -1.5 -57q0 -32 1.5 -57q1.5 -25 10.5 -50q10 -27 32 -44q22 -17 60 -17zt0 0zM154 710h117l73 -150l-90 0z" />
<glyph unicode="&#243;" horiz-adv-x="528" d="M468 118q-21 -62 -75 -95q-54 -33 -129 -33q-75 0 -129 33q-54 33 -75 95q-11 31 -13.5 61q-2.5 30 -2.5 71q0 41 2.5 71q2.5 30 13.5 61q21 62 75 95q54 33 129 33q75 0 129 -33q54 -33 75 -95q11 -31 13.5 -61q2.5 -30 2.5 -71q0 -41 -2.5 -71q-2.5 -30 -13.5 -61zt0 0zM264 82q38 0 60 17q22 17 32 44q9 25 10.5 50q1.5 25 1.5 57q0 32 -1.5 57q-1.5 25 -10.5 50q-10 26 -32 43.5q-22 17.5 -60 17.5q-38 0 -60 -17.5q-22 -17.5 -32 -43.5q-9 -25 -10.5 -50q-1.5 -25 -1.5 -57q0 -32 1.5 -57q1.5 -25 10.5 -50q10 -27 32 -44q22 -17 60 -17zt0 0zM184 560l72 150h118l-100 -150z" />
<glyph unicode="&#244;" horiz-adv-x="528" d="M468 118q-21 -62 -75 -95q-54 -33 -129 -33q-75 0 -129 33q-54 33 -75 95q-11 31 -13.5 61q-2.5 30 -2.5 71q0 41 2.5 71q2.5 30 13.5 61q21 62 75 95q54 33 129 33q75 0 129 -33q54 -33 75 -95q11 -31 13.5 -61q2.5 -30 2.5 -71q0 -41 -2.5 -71q-2.5 -30 -13.5 -61zt0 0zM264 82q38 0 60 17q22 17 32 44q9 25 10.5 50q1.5 25 1.5 57q0 32 -1.5 57q-1.5 25 -10.5 50q-10 26 -32 43.5q-22 17.5 -60 17.5q-38 0 -60 -17.5q-22 -17.5 -32 -43.5q-9 -25 -10.5 -50q-1.5 -25 -1.5 -57q0 -32 1.5 -57q1.5 -25 10.5 -50q10 -27 32 -44q22 -17 60 -17zt0 0zM213 720h102l117 -160h-105l-63 95l-63 -95l-105 0z" />
<glyph unicode="&#245;" horiz-adv-x="528" d="M468 118q-21 -62 -75 -95q-54 -33 -129 -33q-75 0 -129 33q-54 33 -75 95q-11 31 -13.5 61q-2.5 30 -2.5 71q0 41 2.5 71q2.5 30 13.5 61q21 62 75 95q54 33 129 33q75 0 129 -33q54 -33 75 -95q11 -31 13.5 -61q2.5 -30 2.5 -71q0 -41 -2.5 -71q-2.5 -30 -13.5 -61zt0 0zM264 82q38 0 60 17q22 17 32 44q9 25 10.5 50q1.5 25 1.5 57q0 32 -1.5 57q-1.5 25 -10.5 50q-10 26 -32 43.5q-22 17.5 -60 17.5q-38 0 -60 -17.5q-22 -17.5 -32 -43.5q-9 -25 -10.5 -50q-1.5 -25 -1.5 -57q0 -32 1.5 -57q1.5 -25 10.5 -50q10 -27 32 -44q22 -17 60 -17zt0 0zM195 684q23 0 39 -6q16 -6 38 -15q19 -8 33 -12q14 -4 29 -4q31 0 64 36l60 -57q-26 -28 -59.5 -47q-33.5 -19 -66.5 -19q-23 0 -40 6q-17 6 -37 14q-19 8 -33 12.5q-14 4.5 -29 4.5q-30 0 -64 -37l-59 58q29 28 60.5 47t64.5 19z" />
<glyph unicode="&#246;" horiz-adv-x="528" d="M468 118q-21 -62 -75 -95q-54 -33 -129 -33q-75 0 -129 33q-54 33 -75 95q-11 31 -13.5 61q-2.5 30 -2.5 71q0 41 2.5 71q2.5 30 13.5 61q21 62 75 95q54 33 129 33q75 0 129 -33q54 -33 75 -95q11 -31 13.5 -61q2.5 -30 2.5 -71q0 -41 -2.5 -71q-2.5 -30 -13.5 -61zt0 0zM264 82q38 0 60 17q22 17 32 44q9 25 10.5 50q1.5 25 1.5 57q0 32 -1.5 57q-1.5 25 -10.5 50q-10 26 -32 43.5q-22 17.5 -60 17.5q-38 0 -60 -17.5q-22 -17.5 -32 -43.5q-9 -25 -10.5 -50q-1.5 -25 -1.5 -57q0 -32 1.5 -57q1.5 -25 10.5 -50q10 -27 32 -44q22 -17 60 -17zt0 0zM104 700h110v-124h-110zM314 700h110v-124l-110 0z" />
<glyph unicode="&#247;" horiz-adv-x="620" d="M510 346v-92h-400v92zM257 176h106v-106h-106zM257 530h106v-106l-106 0z" />
<glyph unicode="&#248;" horiz-adv-x="528" d="M45 -15l48 73q-11 13 -19.5 28q-8.5 15 -13.5 32q-11 31 -13.5 61q-2.5 30 -2.5 71q0 41 2.5 71q2.5 30 13.5 61q21 62 75 95q54 33 129 33q64 0 112 -24l49 73l59 -39l-51 -77q23 -26 35 -61q11 -31 13.5 -61q2.5 -30 2.5 -71q0 -41 -2.5 -71q-2.5 -30 -13.5 -61q-21 -62 -75 -95q-54 -33 -129 -33q-33 0 -61.5 6.5q-28.5 6.5 -53.5 18.5l-45 -69zM264 82q38 0 60 17q22 17 32 44q9 25 10.5 50q1.5 25 1.5 57q0 25 -0.5 45.5q-0.5 20.5 -5.5 40.5l-157 -238q24 -16 59 -16zt0 0zM160 250q0 -24 0.5 -44.5q0.5 -20.5 4.5 -39.5l156 236q-24 16 -57 16q-38 0 -60 -17.5q-22 -17.5 -32 -43.5q-9 -25 -10.5 -50t-1.5 -57z" />
<glyph unicode="&#249;" horiz-adv-x="564" d="M490 0h-112v50h-4q-23 -26 -57.5 -43.5q-34.5 -17.5 -76.5 -17.5q-75 0 -122.5 48q-47.5 48 -47.5 153v310h112v-300q0 -60 24.5 -89.5q24.5 -29.5 69.5 -29.5q26 0 45.5 10q19.5 10 32 26.5q12.5 16.5 18.5 37.5q6 21 6 44v301h112zM172 710h117l73 -150l-90 0z" />
<glyph unicode="&#250;" horiz-adv-x="564" d="M490 0h-112v50h-4q-23 -26 -57.5 -43.5q-34.5 -17.5 -76.5 -17.5q-75 0 -122.5 48q-47.5 48 -47.5 153v310h112v-300q0 -60 24.5 -89.5q24.5 -29.5 69.5 -29.5q26 0 45.5 10q19.5 10 32 26.5q12.5 16.5 18.5 37.5q6 21 6 44v301h112zM202 560l72 150h118l-100 -150z" />
<glyph unicode="&#251;" horiz-adv-x="564" d="M490 0h-112v50h-4q-23 -26 -57.5 -43.5q-34.5 -17.5 -76.5 -17.5q-75 0 -122.5 48q-47.5 48 -47.5 153v310h112v-300q0 -60 24.5 -89.5q24.5 -29.5 69.5 -29.5q26 0 45.5 10q19.5 10 32 26.5q12.5 16.5 18.5 37.5q6 21 6 44v301h112zM231 720h102l117 -160h-105l-63 95l-63 -95l-105 0z" />
<glyph unicode="&#252;" horiz-adv-x="564" d="M490 0h-112v50h-4q-23 -26 -57.5 -43.5q-34.5 -17.5 -76.5 -17.5q-75 0 -122.5 48q-47.5 48 -47.5 153v310h112v-300q0 -60 24.5 -89.5q24.5 -29.5 69.5 -29.5q26 0 45.5 10q19.5 10 32 26.5q12.5 16.5 18.5 37.5q6 21 6 44v301h112zM122 700h110v-124h-110zM332 700h110v-124l-110 0z" />
<glyph unicode="&#253;" horiz-adv-x="484" d="M6 500h122l119 -349l111 349h120l-189 -541q-29 -83 -72.5 -121q-43.5 -38 -118.5 -38h-50v92h34q48 0 72 27q24 27 40 80zM162 560l72 150h118l-100 -150z" />
<glyph unicode="&#254;" horiz-adv-x="552" d="M74 700h112v-250h4q25 31 61.5 45.5q36.5 14.5 74.5 14.5q54 0 99 -28.5q45 -28.5 67 -90.5q11 -30 13.5 -65q2.5 -35 2.5 -76q0 -41 -2.5 -76.5q-2.5 -35.5 -13.5 -65.5q-22 -62 -67 -90q-45 -28 -99 -28q-38 0 -74.5 14.5q-36.5 14.5 -61.5 45.5l-4 0v-250h-112zM186 200q0 -53 29.5 -85.5q29.5 -32.5 74.5 -32.5q30 0 54.5 15.5q24.5 15.5 35.5 47.5q8 23 10 45q2 22 2 60q0 38 -2 60.5q-2 22.5 -10 44.5q-11 32 -35.5 47.5q-24.5 15.5 -54.5 15.5q-45 0 -74.5 -32.5q-29.5 -32.5 -29.5 -85.5z" />
<glyph unicode="&#255;" horiz-adv-x="484" d="M6 500h122l119 -349l111 349h120l-189 -541q-29 -83 -72.5 -121q-43.5 -38 -118.5 -38h-50v92h34q48 0 72 27q24 27 40 80zM82 700h110v-124h-110zM292 700h110v-124l-110 0z" />
<glyph unicode="&#256;" horiz-adv-x="628" d="M258 700h112l250 -700h-126l-57 171h-246l-57 -171h-126zM406 271l-92 273l-92 -273zM189 856h250v-96l-250 0z" />
<glyph unicode="&#257;" horiz-adv-x="520" d="M338 0v54q-23 -29 -57.5 -46.5q-34.5 -17.5 -79.5 -17.5q-38 0 -67.5 11q-29.5 11 -50.5 31.5q-21 20.5 -32 48.5q-11 28 -11 62q0 90 60 128.5q60 38.5 165 38.5h73v26q0 41 -21.5 61.5q-21.5 20.5 -59.5 20.5q-30 0 -58 -11q-28 -11 -50 -42l-94 51q32 51 86 72.5q54 21.5 122 21.5q41 0 75.5 -10.5q34.5 -10.5 59 -32.5q24.5 -22 38.5 -56q14 -34 14 -80v-331zM338 218h-75q-53 0 -81 -15q-28 -15 -28 -53q0 -30 19.5 -49q19.5 -19 57.5 -19q38 0 62.5 21.5q24.5 21.5 44.5 58.5zM140 674h240v-88l-240 0z" />
<glyph unicode="&#258;" horiz-adv-x="628" d="M258 700h112l250 -700h-126l-57 171h-246l-57 -171h-126zM406 271l-92 273l-92 -273zM482 904q-5 -34 -19.5 -61.5q-14.5 -27.5 -37 -47q-22.5 -19.5 -51 -30.5q-28.5 -11 -60.5 -11q-32 0 -61 11q-29 11 -51.5 30.5q-22.5 19.5 -37 47q-14.5 27.5 -18.5 61.5l90 0q6 -26 26 -43q20 -17 52 -17q32 0 52 17q20 17 26 43z" />
<glyph unicode="&#259;" horiz-adv-x="520" d="M338 0v54q-23 -29 -57.5 -46.5q-34.5 -17.5 -79.5 -17.5q-38 0 -67.5 11q-29.5 11 -50.5 31.5q-21 20.5 -32 48.5q-11 28 -11 62q0 90 60 128.5q60 38.5 165 38.5h73v26q0 41 -21.5 61.5q-21.5 20.5 -59.5 20.5q-30 0 -58 -11q-28 -11 -50 -42l-94 51q32 51 86 72.5q54 21.5 122 21.5q41 0 75.5 -10.5q34.5 -10.5 59 -32.5q24.5 -22 38.5 -56q14 -34 14 -80v-331zM338 218h-75q-53 0 -81 -15q-28 -15 -28 -53q0 -30 19.5 -49q19.5 -19 57.5 -19q38 0 62.5 21.5q24.5 21.5 44.5 58.5zM420 710q-9 -64 -52 -104q-43 -40 -108 -40q-65 0 -108 40q-43 40 -52 104l88 0q6 -23 23 -40.5q17 -17.5 49 -17.5q33 0 49.5 17.5q16.5 17.5 22.5 40.5z" />
<glyph unicode="&#260;" horiz-adv-x="628" d="M638 -200h-105q-57 0 -86 24q-29 24 -29 62q0 30 14.5 52.5q14.5 22.5 35.5 39.5l26 22l-57 171h-246l-57 -171h-126l250 700h112l250 -700l-39 -32q-22 -17 -36.5 -33.5q-14.5 -16.5 -14.5 -30.5q0 -15 12 -21.5q12 -6.5 26 -6.5h70zM406 271l-92 273l-92 -273z" />
<glyph unicode="&#261;" horiz-adv-x="520" d="M475 -200h-97q-49 0 -81 21q-32 21 -32 67q0 28 15 51q15 23 36 42l22 20v53q-23 -29 -57.5 -46.5q-34.5 -17.5 -79.5 -17.5q-38 0 -67.5 11q-29.5 11 -50.5 31.5q-21 20.5 -32 48.5q-11 28 -11 62q0 90 60 128.5q60 38.5 165 38.5h73v26q0 41 -21.5 61.5q-21.5 20.5 -59.5 20.5q-30 0 -58 -11q-28 -11 -50 -42l-94 51q32 51 86 72.5q54 21.5 122 21.5q41 0 75.5 -10.5q34.5 -10.5 59 -32.5q24.5 -22 38.5 -56q14 -34 14 -80v-331l-38 -30q-22 -17 -35.5 -35q-13.5 -18 -13.5 -34q0 -16 11 -22.5q11 -6.5 28 -6.5h73zM338 218h-75q-53 0 -81 -15q-28 -15 -28 -53q0 -30 19.5 -49q19.5 -19 57.5 -19q38 0 62.5 21.5q24.5 21.5 44.5 58.5z" />
<glyph unicode="&#262;" horiz-adv-x="638" d="M340 88q68 0 107 35.5q39 35.5 56 90.5l105 -41q-10 -41 -32 -74.5q-22 -33.5 -56 -58.5q-34 -25 -79 -38.5q-45 -13.5 -101 -13.5q-56 0 -102.5 15.5q-46.5 15.5 -81 43.5q-34.5 28 -57.5 66.5q-23 38.5 -33 84.5q-4 19 -6.5 35.5q-2.5 16.5 -3.5 33.5q-1 17 -1.5 37q-0.5 20 -0.5 46q0 26 0.5 45.5q0.5 19.5 1.5 36.5q1 17 3.5 33.5q2.5 16.5 6.5 36.5q9 46 32 84.5q23 38.5 58 66.5q35 28 81.5 43.5q46.5 15.5 102.5 15.5q106 0 171 -46q65 -46 91 -125l-106 -38q-19 52 -53.5 80.5q-34.5 28.5 -102.5 28.5q-34 0 -59 -9.5q-25 -9.5 -42.5 -25.5q-17.5 -16 -29 -37q-11.5 -21 -17.5 -45q-5 -17 -7.5 -31.5q-2.5 -14.5 -4 -31q-1.5 -16.5 -2 -36q-0.5 -19.5 -0.5 -46.5q0 -27 0.5 -46.5q0.5 -19.5 2 -36q1.5 -16.5 4 -31q2.5 -14.5 7.5 -31.5q6 -23 17.5 -44.5q11.5 -21.5 29 -37.5q17.5 -16 42.5 -25.5q25 -9.5 59 -9.5zt0 0zM239 750l72 160h128l-100 -160z" />
<glyph unicode="&#263;" horiz-adv-x="484" d="M266 82q30 0 56.5 17.5q26.5 17.5 39.5 49.5l96 -47q-25 -56 -74.5 -84q-49.5 -28 -117.5 -28q-75 0 -130.5 33.5q-55.5 33.5 -75.5 95.5q-11 31 -13.5 60.5q-2.5 29.5 -2.5 70.5q0 41 2.5 70.5q2.5 29.5 13.5 60.5q20 62 75.5 95.5q55.5 33.5 130.5 33.5q68 0 116 -25q48 -25 72 -81l-97 -45q-13 33 -37 46q-24 13 -54 13q-38 0 -60.5 -18.5q-22.5 -18.5 -33.5 -48.5q-7 -20 -9.5 -44.5q-2.5 -24.5 -2.5 -56.5q0 -32 2 -56.5q2 -24.5 10 -44.5q11 -32 33.5 -49.5q22.5 -17.5 60.5 -17.5zt0 0zM162 560l72 150h118l-100 -150z" />
<glyph unicode="&#264;" horiz-adv-x="638" d="M340 88q68 0 107 35.5q39 35.5 56 90.5l105 -41q-10 -41 -32 -74.5q-22 -33.5 -56 -58.5q-34 -25 -79 -38.5q-45 -13.5 -101 -13.5q-56 0 -102.5 15.5q-46.5 15.5 -81 43.5q-34.5 28 -57.5 66.5q-23 38.5 -33 84.5q-4 19 -6.5 35.5q-2.5 16.5 -3.5 33.5q-1 17 -1.5 37q-0.5 20 -0.5 46q0 26 0.5 45.5q0.5 19.5 1.5 36.5q1 17 3.5 33.5q2.5 16.5 6.5 36.5q9 46 32 84.5q23 38.5 58 66.5q35 28 81.5 43.5q46.5 15.5 102.5 15.5q106 0 171 -46q65 -46 91 -125l-106 -38q-19 52 -53.5 80.5q-34.5 28.5 -102.5 28.5q-34 0 -59 -9.5q-25 -9.5 -42.5 -25.5q-17.5 -16 -29 -37q-11.5 -21 -17.5 -45q-5 -17 -7.5 -31.5q-2.5 -14.5 -4 -31q-1.5 -16.5 -2 -36q-0.5 -19.5 -0.5 -46.5q0 -27 0.5 -46.5q0.5 -19.5 2 -36q1.5 -16.5 4 -31q2.5 -14.5 7.5 -31.5q6 -23 17.5 -44.5q11.5 -21.5 29 -37.5q17.5 -16 42.5 -25.5q25 -9.5 59 -9.5zt0 0zM273 910h112l119 -160h-114l-61 91l-61 -91l-114 0z" />
<glyph unicode="&#265;" horiz-adv-x="484" d="M266 82q30 0 56.5 17.5q26.5 17.5 39.5 49.5l96 -47q-25 -56 -74.5 -84q-49.5 -28 -117.5 -28q-75 0 -130.5 33.5q-55.5 33.5 -75.5 95.5q-11 31 -13.5 60.5q-2.5 29.5 -2.5 70.5q0 41 2.5 70.5q2.5 29.5 13.5 60.5q20 62 75.5 95.5q55.5 33.5 130.5 33.5q68 0 116 -25q48 -25 72 -81l-97 -45q-13 33 -37 46q-24 13 -54 13q-38 0 -60.5 -18.5q-22.5 -18.5 -33.5 -48.5q-7 -20 -9.5 -44.5q-2.5 -24.5 -2.5 -56.5q0 -32 2 -56.5q2 -24.5 10 -44.5q11 -32 33.5 -49.5q22.5 -17.5 60.5 -17.5zt0 0zM191 720h102l117 -160h-105l-63 95l-63 -95l-105 0z" />
<glyph unicode="&#266;" horiz-adv-x="638" d="M340 88q68 0 107 35.5q39 35.5 56 90.5l105 -41q-10 -41 -32 -74.5q-22 -33.5 -56 -58.5q-34 -25 -79 -38.5q-45 -13.5 -101 -13.5q-56 0 -102.5 15.5q-46.5 15.5 -81 43.5q-34.5 28 -57.5 66.5q-23 38.5 -33 84.5q-4 19 -6.5 35.5q-2.5 16.5 -3.5 33.5q-1 17 -1.5 37q-0.5 20 -0.5 46q0 26 0.5 45.5q0.5 19.5 1.5 36.5q1 17 3.5 33.5q2.5 16.5 6.5 36.5q9 46 32 84.5q23 38.5 58 66.5q35 28 81.5 43.5q46.5 15.5 102.5 15.5q106 0 171 -46q65 -46 91 -125l-106 -38q-19 52 -53.5 80.5q-34.5 28.5 -102.5 28.5q-34 0 -59 -9.5q-25 -9.5 -42.5 -25.5q-17.5 -16 -29 -37q-11.5 -21 -17.5 -45q-5 -17 -7.5 -31.5q-2.5 -14.5 -4 -31q-1.5 -16.5 -2 -36q-0.5 -19.5 -0.5 -46.5q0 -27 0.5 -46.5q0.5 -19.5 2 -36q1.5 -16.5 4 -31q2.5 -14.5 7.5 -31.5q6 -23 17.5 -44.5q11.5 -21.5 29 -37.5q17.5 -16 42.5 -25.5q25 -9.5 59 -9.5zt0 0zM259 884h120v-124l-120 0z" />
<glyph unicode="&#267;" horiz-adv-x="484" d="M266 82q30 0 56.5 17.5q26.5 17.5 39.5 49.5l96 -47q-25 -56 -74.5 -84q-49.5 -28 -117.5 -28q-75 0 -130.5 33.5q-55.5 33.5 -75.5 95.5q-11 31 -13.5 60.5q-2.5 29.5 -2.5 70.5q0 41 2.5 70.5q2.5 29.5 13.5 60.5q20 62 75.5 95.5q55.5 33.5 130.5 33.5q68 0 116 -25q48 -25 72 -81l-97 -45q-13 33 -37 46q-24 13 -54 13q-38 0 -60.5 -18.5q-22.5 -18.5 -33.5 -48.5q-7 -20 -9.5 -44.5q-2.5 -24.5 -2.5 -56.5q0 -32 2 -56.5q2 -24.5 10 -44.5q11 -32 33.5 -49.5q22.5 -17.5 60.5 -17.5zt0 0zM182 700h120v-124l-120 0z" />
<glyph unicode="&#268;" horiz-adv-x="638" d="M340 88q68 0 107 35.5q39 35.5 56 90.5l105 -41q-10 -41 -32 -74.5q-22 -33.5 -56 -58.5q-34 -25 -79 -38.5q-45 -13.5 -101 -13.5q-56 0 -102.5 15.5q-46.5 15.5 -81 43.5q-34.5 28 -57.5 66.5q-23 38.5 -33 84.5q-4 19 -6.5 35.5q-2.5 16.5 -3.5 33.5q-1 17 -1.5 37q-0.5 20 -0.5 46q0 26 0.5 45.5q0.5 19.5 1.5 36.5q1 17 3.5 33.5q2.5 16.5 6.5 36.5q9 46 32 84.5q23 38.5 58 66.5q35 28 81.5 43.5q46.5 15.5 102.5 15.5q106 0 171 -46q65 -46 91 -125l-106 -38q-19 52 -53.5 80.5q-34.5 28.5 -102.5 28.5q-34 0 -59 -9.5q-25 -9.5 -42.5 -25.5q-17.5 -16 -29 -37q-11.5 -21 -17.5 -45q-5 -17 -7.5 -31.5q-2.5 -14.5 -4 -31q-1.5 -16.5 -2 -36q-0.5 -19.5 -0.5 -46.5q0 -27 0.5 -46.5q0.5 -19.5 2 -36q1.5 -16.5 4 -31q2.5 -14.5 7.5 -31.5q6 -23 17.5 -44.5q11.5 -21.5 29 -37.5q17.5 -16 42.5 -25.5q25 -9.5 59 -9.5zt0 0zM375 750h-112l-119 160h114l61 -91l61 91l114 0z" />
<glyph unicode="&#269;" horiz-adv-x="484" d="M266 82q30 0 56.5 17.5q26.5 17.5 39.5 49.5l96 -47q-25 -56 -74.5 -84q-49.5 -28 -117.5 -28q-75 0 -130.5 33.5q-55.5 33.5 -75.5 95.5q-11 31 -13.5 60.5q-2.5 29.5 -2.5 70.5q0 41 2.5 70.5q2.5 29.5 13.5 60.5q20 62 75.5 95.5q55.5 33.5 130.5 33.5q68 0 116 -25q48 -25 72 -81l-97 -45q-13 33 -37 46q-24 13 -54 13q-38 0 -60.5 -18.5q-22.5 -18.5 -33.5 -48.5q-7 -20 -9.5 -44.5q-2.5 -24.5 -2.5 -56.5q0 -32 2 -56.5q2 -24.5 10 -44.5q11 -32 33.5 -49.5q22.5 -17.5 60.5 -17.5zt0 0zM293 560h-102l-117 150h106l62 -86l62 86l106 0z" />
<glyph unicode="&#270;" horiz-adv-x="690" d="M624 204q-17 -96 -88 -150q-71 -54 -188 -54h-264v700h264q117 0 188 -54.5q71 -54.5 88 -149.5q3 -20 5.5 -36q2.5 -16 4 -32.5q1.5 -16.5 2 -35q0.5 -18.5 0.5 -42.5q0 -24 -0.5 -42.5q-0.5 -18.5 -2 -35q-1.5 -16.5 -4 -33q-2.5 -16.5 -5.5 -35.5zt0 0zM344 100q71 0 108.5 32.5q37.5 32.5 48.5 86.5q3 17 5.5 31q2.5 14 3.5 28.5q1 14.5 1.5 31.5q0.5 17 0.5 40q0 23 -0.5 40q-0.5 17 -1.5 31.5q-1 14.5 -3.5 28.5q-2.5 14 -5.5 31q-11 54 -48.5 86.5q-37.5 32.5 -108.5 32.5h-140v-500zM401 750h-112l-119 160h114l61 -91l61 91l114 0z" />
<glyph unicode="&#271;" horiz-adv-x="552" d="M478 0h-112v50h-4q-25 -31 -61.5 -45.5q-36.5 -14.5 -74.5 -14.5q-54 0 -99 28q-45 28 -67 90q-11 30 -13.5 65.5q-2.5 35.5 -2.5 76.5q0 41 2.5 76q2.5 35 13.5 65q22 62 67 90.5q45 28.5 99 28.5q38 0 74.5 -14.5q36.5 -14.5 61.5 -45.5l4 0v250h112zM366 300q0 53 -29.5 85.5q-29.5 32.5 -74.5 32.5q-30 0 -54.5 -15.5q-24.5 -15.5 -35.5 -47.5q-8 -22 -10 -44.5q-2 -22.5 -2 -60.5q0 -38 2 -60q2 -22 10 -45q11 -32 35.5 -47.5q24.5 -15.5 54.5 -15.5q45 0 74.5 32.5q29.5 32.5 29.5 85.5zM504 560l62 150h118l-90 -150z" />
<glyph unicode="&#272;" horiz-adv-x="700" d="M634 204q-17 -96 -88 -150q-71 -54 -188 -54h-264v314h-84v92h84v294h264q117 0 188 -54.5q71 -54.5 88 -149.5q3 -20 5.5 -36q2.5 -16 4 -32.5q1.5 -16.5 2 -35q0.5 -18.5 0.5 -42.5q0 -24 -0.5 -42.5q-0.5 -18.5 -2 -35q-1.5 -16.5 -4 -33q-2.5 -16.5 -5.5 -35.5zt0 0zM354 100q71 0 108.5 32.5q37.5 32.5 48.5 86.5q3 17 5.5 31q2.5 14 3.5 28.5q1 14.5 1.5 31.5q0.5 17 0.5 40q0 23 -0.5 40q-0.5 17 -1.5 31.5q-1 14.5 -3.5 28.5q-2.5 14 -5.5 31q-11 54 -48.5 86.5q-37.5 32.5 -108.5 32.5h-140v-194h161v-92h-161l0 -214z" />
<glyph unicode="&#273;" horiz-adv-x="572" d="M478 624h84v-83h-84v-541h-112v50h-4q-25 -31 -61.5 -45.5q-36.5 -14.5 -74.5 -14.5q-54 0 -99 25q-45 25 -67 87q-11 30 -13.5 62.5q-2.5 32.5 -2.5 73.5q0 41 2.5 73q2.5 32 13.5 62q22 62 67 87.5q45 25.5 99 25.5q38 0 74.5 -14.5q36.5 -14.5 61.5 -45.5l4 0v115h-170v83h170v76h112zM366 282q0 53 -29.5 82.5q-29.5 29.5 -74.5 29.5q-30 0 -54.5 -12.5q-24.5 -12.5 -35.5 -44.5q-4 -11 -6 -20.5q-2 -9.5 -3.5 -21q-1.5 -11.5 -2 -25q-0.5 -13.5 -0.5 -32.5q0 -19 0.5 -32.5q0.5 -13.5 2 -24.5q1.5 -11 3.5 -21q2 -10 6 -21q11 -32 35.5 -44.5q24.5 -12.5 54.5 -12.5q45 0 74.5 29.5q29.5 29.5 29.5 82.5z" />
<glyph unicode="&#274;" horiz-adv-x="594" d="M554 0h-470v700h460v-100h-340v-190h280v-100h-280v-210h350zM172 856h250v-96l-250 0z" />
<glyph unicode="&#275;" horiz-adv-x="526" d="M265 82q38 0 66 15.5q28 15.5 44 49.5l95 -47q-26 -57 -78 -83.5q-52 -26.5 -127 -26.5q-75 0 -130 33q-55 33 -75 95q-11 31 -13.5 61q-2.5 30 -2.5 71q0 41 2.5 71q2.5 30 13.5 61q20 62 75 95q55 33 130 33q75 0 128 -33q53 -33 73 -95q10 -31 13 -60q3 -29 3 -70v-40h-322q0 -26 2 -43.5q2 -17.5 10 -34.5q11 -25 33 -38.5q22 -13.5 60 -13.5zt0 0zM171 365q-8 -17 -9.5 -32q-1.5 -15 -1.5 -35l206 0q-1 21 -2.5 35.5q-1.5 14.5 -9.5 31.5q-10 23 -30.5 38q-20.5 15 -58.5 15q-38 0 -60.5 -15q-22.5 -15 -33.5 -38zt0 0zM143 674h240v-88l-240 0z" />
<glyph unicode="&#278;" horiz-adv-x="594" d="M554 0h-470v700h460v-100h-340v-190h280v-100h-280v-210h350zM257 884h120v-124l-120 0z" />
<glyph unicode="&#279;" horiz-adv-x="526" d="M265 82q38 0 66 15.5q28 15.5 44 49.5l95 -47q-26 -57 -78 -83.5q-52 -26.5 -127 -26.5q-75 0 -130 33q-55 33 -75 95q-11 31 -13.5 61q-2.5 30 -2.5 71q0 41 2.5 71q2.5 30 13.5 61q20 62 75 95q55 33 130 33q75 0 128 -33q53 -33 73 -95q10 -31 13 -60q3 -29 3 -70v-40h-322q0 -26 2 -43.5q2 -17.5 10 -34.5q11 -25 33 -38.5q22 -13.5 60 -13.5zt0 0zM171 365q-8 -17 -9.5 -32q-1.5 -15 -1.5 -35l206 0q-1 21 -2.5 35.5q-1.5 14.5 -9.5 31.5q-10 23 -30.5 38q-20.5 15 -58.5 15q-38 0 -60.5 -15q-22.5 -15 -33.5 -38zt0 0zM203 700h120v-124l-120 0z" />
<glyph unicode="&#280;" horiz-adv-x="594" d="M572 -200h-105q-49 0 -81 19q-32 19 -32 57q0 33 20.5 56.5q20.5 23.5 45.5 45.5l26 22h-362v700h460v-100h-340v-190h280v-100h-280v-210h350v-100l-39 -36q-20 -18 -34.5 -34q-14.5 -16 -14.5 -30q0 -14 11 -19q11 -5 25 -5l70 0z" />
<glyph unicode="&#281;" horiz-adv-x="526" d="M371 -200h-97q-49 0 -81 19q-32 19 -32 57q0 32 20.5 56.5q20.5 24.5 45.5 45.5l15 13q-67 5 -115 37.5q-48 32.5 -67 89.5q-11 31 -13.5 61q-2.5 30 -2.5 71q0 41 2.5 71q2.5 30 13.5 61q20 62 75 95q55 33 130 33q75 0 128 -33q53 -33 73 -95q10 -31 13 -60q3 -29 3 -70v-40h-322q0 -26 2 -43.5q2 -17.5 10 -34.5q11 -25 33 -38.5q22 -13.5 60 -13.5q38 0 66 15.5q28 15.5 44 49.5l95 -47q-19 -41 -50 -65q-31 -24 -74 -35l-38 -35q-20 -18 -34.5 -35q-14.5 -17 -14.5 -33q0 -14 11 -19.5q11 -5.5 28 -5.5h73zM171 365q-8 -17 -9.5 -32q-1.5 -15 -1.5 -35l206 0q-1 21 -2.5 35.5q-1.5 14.5 -9.5 31.5q-10 23 -30.5 38q-20.5 15 -58.5 15q-38 0 -60.5 -15t-33.5 -38z" />
<glyph unicode="&#282;" horiz-adv-x="594" d="M554 0h-470v700h460v-100h-340v-190h280v-100h-280v-210h350zM353 750h-112l-119 160h114l61 -91l61 91l114 0z" />
<glyph unicode="&#283;" horiz-adv-x="526" d="M265 82q38 0 66 15.5q28 15.5 44 49.5l95 -47q-26 -57 -78 -83.5q-52 -26.5 -127 -26.5q-75 0 -130 33q-55 33 -75 95q-11 31 -13.5 61q-2.5 30 -2.5 71q0 41 2.5 71q2.5 30 13.5 61q20 62 75 95q55 33 130 33q75 0 128 -33q53 -33 73 -95q10 -31 13 -60q3 -29 3 -70v-40h-322q0 -26 2 -43.5q2 -17.5 10 -34.5q11 -25 33 -38.5q22 -13.5 60 -13.5zt0 0zM171 365q-8 -17 -9.5 -32q-1.5 -15 -1.5 -35l206 0q-1 21 -2.5 35.5q-1.5 14.5 -9.5 31.5q-10 23 -30.5 38q-20.5 15 -58.5 15q-38 0 -60.5 -15q-22.5 -15 -33.5 -38zt0 0zM314 560h-102l-117 150h106l62 -86l62 86l106 0z" />
<glyph unicode="&#284;" horiz-adv-x="674" d="M340 88q45 0 74 16q29 16 46.5 41.5q17.5 25.5 24.5 57.5q7 32 9 63l-145 0v100h271q0 -30 0 -52q0 -22 -1 -41q-1 -19 -3.5 -36.5q-2.5 -17.5 -6.5 -38.5q-8 -42 -28.5 -80q-20.5 -38 -54 -67q-33.5 -29 -80 -46q-46.5 -17 -106.5 -17q-56 0 -102.5 15.5q-46.5 15.5 -81 43.5q-34.5 28 -57.5 66.5q-23 38.5 -33 84.5q-4 19 -6.5 35.5q-2.5 16.5 -3.5 33.5q-1 17 -1.5 37q-0.5 20 -0.5 46q0 26 0.5 45.5q0.5 19.5 1.5 36.5q1 17 3.5 33.5q2.5 16.5 6.5 36.5q9 46 32 84.5q23 38.5 58 66.5q35 28 81.5 43.5q46.5 15.5 102.5 15.5q106 0 171 -46q65 -46 91 -125l-106 -38q-19 52 -53.5 80.5q-34.5 28.5 -102.5 28.5q-34 0 -59 -9.5q-25 -9.5 -42.5 -25.5q-17.5 -16 -29 -37q-11.5 -21 -17.5 -45q-5 -17 -7.5 -31.5q-2.5 -14.5 -4 -31q-1.5 -16.5 -2 -36q-0.5 -19.5 -0.5 -46.5q0 -27 0.5 -46.5q0.5 -19.5 2 -36q1.5 -16.5 4 -31q2.5 -14.5 7.5 -31.5q6 -23 17.5 -44.5q11.5 -21.5 29 -37.5q17.5 -16 42.5 -25.5q25 -9.5 59 -9.5zt0 0zM281 910h112l119 -160h-114l-61 91l-61 -91l-114 0z" />
<glyph unicode="&#285;" horiz-adv-x="552" d="M478 5q0 -47 -14.5 -86.5q-14.5 -39.5 -42 -68q-27.5 -28.5 -68.5 -44.5q-41 -16 -93 -16q-75 0 -122.5 22.5q-47.5 22.5 -79.5 72.5l95 49q21 -29 45 -41.5q24 -12.5 59 -12.5q54 0 81.5 35.5q27.5 35.5 27.5 93.5v41h-4q-25 -31 -61.5 -45.5q-36.5 -14.5 -74.5 -14.5q-54 0 -99 28.5q-45 28.5 -67 90.5q-11 30 -13.5 65q-2.5 35 -2.5 76q0 41 2.5 76.5q2.5 35.5 13.5 65.5q22 62 67 90q45 28 99 28q38 0 74.5 -14.5q36.5 -14.5 61.5 -45.5l4 0v50h112zM366 300q0 53 -29.5 85.5q-29.5 32.5 -74.5 32.5q-30 0 -54.5 -15.5q-24.5 -15.5 -35.5 -47.5q-8 -23 -10 -45q-2 -22 -2 -60q0 -38 2 -60.5q2 -22.5 10 -44.5q11 -32 35.5 -47.5q24.5 -15.5 54.5 -15.5q45 0 74.5 32.5q29.5 32.5 29.5 85.5zM225 720h102l117 -160h-105l-63 95l-63 -95l-105 0z" />
<glyph unicode="&#286;" horiz-adv-x="674" d="M340 88q45 0 74 16q29 16 46.5 41.5q17.5 25.5 24.5 57.5q7 32 9 63l-145 0v100h271q0 -30 0 -52q0 -22 -1 -41q-1 -19 -3.5 -36.5q-2.5 -17.5 -6.5 -38.5q-8 -42 -28.5 -80q-20.5 -38 -54 -67q-33.5 -29 -80 -46q-46.5 -17 -106.5 -17q-56 0 -102.5 15.5q-46.5 15.5 -81 43.5q-34.5 28 -57.5 66.5q-23 38.5 -33 84.5q-4 19 -6.5 35.5q-2.5 16.5 -3.5 33.5q-1 17 -1.5 37q-0.5 20 -0.5 46q0 26 0.5 45.5q0.5 19.5 1.5 36.5q1 17 3.5 33.5q2.5 16.5 6.5 36.5q9 46 32 84.5q23 38.5 58 66.5q35 28 81.5 43.5q46.5 15.5 102.5 15.5q106 0 171 -46q65 -46 91 -125l-106 -38q-19 52 -53.5 80.5q-34.5 28.5 -102.5 28.5q-34 0 -59 -9.5q-25 -9.5 -42.5 -25.5q-17.5 -16 -29 -37q-11.5 -21 -17.5 -45q-5 -17 -7.5 -31.5q-2.5 -14.5 -4 -31q-1.5 -16.5 -2 -36q-0.5 -19.5 -0.5 -46.5q0 -27 0.5 -46.5q0.5 -19.5 2 -36q1.5 -16.5 4 -31q2.5 -14.5 7.5 -31.5q6 -23 17.5 -44.5q11.5 -21.5 29 -37.5q17.5 -16 42.5 -25.5q25 -9.5 59 -9.5zt0 0zM505 904q-5 -34 -19.5 -61.5q-14.5 -27.5 -37 -47q-22.5 -19.5 -51 -30.5q-28.5 -11 -60.5 -11q-32 0 -61 11q-29 11 -51.5 30.5q-22.5 19.5 -37 47q-14.5 27.5 -18.5 61.5l90 0q6 -26 26 -43q20 -17 52 -17q32 0 52 17q20 17 26 43z" />
<glyph unicode="&#287;" horiz-adv-x="552" d="M478 5q0 -47 -14.5 -86.5q-14.5 -39.5 -42 -68q-27.5 -28.5 -68.5 -44.5q-41 -16 -93 -16q-75 0 -122.5 22.5q-47.5 22.5 -79.5 72.5l95 49q21 -29 45 -41.5q24 -12.5 59 -12.5q54 0 81.5 35.5q27.5 35.5 27.5 93.5v41h-4q-25 -31 -61.5 -45.5q-36.5 -14.5 -74.5 -14.5q-54 0 -99 28.5q-45 28.5 -67 90.5q-11 30 -13.5 65q-2.5 35 -2.5 76q0 41 2.5 76.5q2.5 35.5 13.5 65.5q22 62 67 90q45 28 99 28q38 0 74.5 -14.5q36.5 -14.5 61.5 -45.5l4 0v50h112zM366 300q0 53 -29.5 85.5q-29.5 32.5 -74.5 32.5q-30 0 -54.5 -15.5q-24.5 -15.5 -35.5 -47.5q-8 -23 -10 -45q-2 -22 -2 -60q0 -38 2 -60.5q2 -22.5 10 -44.5q11 -32 35.5 -47.5q24.5 -15.5 54.5 -15.5q45 0 74.5 32.5q29.5 32.5 29.5 85.5zM436 710q-9 -64 -52 -104q-43 -40 -108 -40q-65 0 -108 40q-43 40 -52 104l88 0q6 -23 23 -40.5q17 -17.5 49 -17.5q33 0 49.5 17.5q16.5 17.5 22.5 40.5z" />
<glyph unicode="&#288;" horiz-adv-x="674" d="M340 88q45 0 74 16q29 16 46.5 41.5q17.5 25.5 24.5 57.5q7 32 9 63l-145 0v100h271q0 -30 0 -52q0 -22 -1 -41q-1 -19 -3.5 -36.5q-2.5 -17.5 -6.5 -38.5q-8 -42 -28.5 -80q-20.5 -38 -54 -67q-33.5 -29 -80 -46q-46.5 -17 -106.5 -17q-56 0 -102.5 15.5q-46.5 15.5 -81 43.5q-34.5 28 -57.5 66.5q-23 38.5 -33 84.5q-4 19 -6.5 35.5q-2.5 16.5 -3.5 33.5q-1 17 -1.5 37q-0.5 20 -0.5 46q0 26 0.5 45.5q0.5 19.5 1.5 36.5q1 17 3.5 33.5q2.5 16.5 6.5 36.5q9 46 32 84.5q23 38.5 58 66.5q35 28 81.5 43.5q46.5 15.5 102.5 15.5q106 0 171 -46q65 -46 91 -125l-106 -38q-19 52 -53.5 80.5q-34.5 28.5 -102.5 28.5q-34 0 -59 -9.5q-25 -9.5 -42.5 -25.5q-17.5 -16 -29 -37q-11.5 -21 -17.5 -45q-5 -17 -7.5 -31.5q-2.5 -14.5 -4 -31q-1.5 -16.5 -2 -36q-0.5 -19.5 -0.5 -46.5q0 -27 0.5 -46.5q0.5 -19.5 2 -36q1.5 -16.5 4 -31q2.5 -14.5 7.5 -31.5q6 -23 17.5 -44.5q11.5 -21.5 29 -37.5q17.5 -16 42.5 -25.5q25 -9.5 59 -9.5zt0 0zM277 884h120v-124l-120 0z" />
<glyph unicode="&#289;" horiz-adv-x="552" d="M478 5q0 -47 -14.5 -86.5q-14.5 -39.5 -42 -68q-27.5 -28.5 -68.5 -44.5q-41 -16 -93 -16q-75 0 -122.5 22.5q-47.5 22.5 -79.5 72.5l95 49q21 -29 45 -41.5q24 -12.5 59 -12.5q54 0 81.5 35.5q27.5 35.5 27.5 93.5v41h-4q-25 -31 -61.5 -45.5q-36.5 -14.5 -74.5 -14.5q-54 0 -99 28.5q-45 28.5 -67 90.5q-11 30 -13.5 65q-2.5 35 -2.5 76q0 41 2.5 76.5q2.5 35.5 13.5 65.5q22 62 67 90q45 28 99 28q38 0 74.5 -14.5q36.5 -14.5 61.5 -45.5l4 0v50h112zM366 300q0 53 -29.5 85.5q-29.5 32.5 -74.5 32.5q-30 0 -54.5 -15.5q-24.5 -15.5 -35.5 -47.5q-8 -23 -10 -45q-2 -22 -2 -60q0 -38 2 -60.5q2 -22.5 10 -44.5q11 -32 35.5 -47.5q24.5 -15.5 54.5 -15.5q45 0 74.5 32.5q29.5 32.5 29.5 85.5zM209 700h120v-124l-120 0z" />
<glyph unicode="&#290;" horiz-adv-x="674" d="M340 88q45 0 74 16q29 16 46.5 41.5q17.5 25.5 24.5 57.5q7 32 9 63l-145 0v100h271q0 -30 0 -52q0 -22 -1 -41q-1 -19 -3.5 -36.5q-2.5 -17.5 -6.5 -38.5q-8 -42 -28.5 -80q-20.5 -38 -54 -67q-33.5 -29 -80 -46q-46.5 -17 -106.5 -17q-56 0 -102.5 15.5q-46.5 15.5 -81 43.5q-34.5 28 -57.5 66.5q-23 38.5 -33 84.5q-4 19 -6.5 35.5q-2.5 16.5 -3.5 33.5q-1 17 -1.5 37q-0.5 20 -0.5 46q0 26 0.5 45.5q0.5 19.5 1.5 36.5q1 17 3.5 33.5q2.5 16.5 6.5 36.5q9 46 32 84.5q23 38.5 58 66.5q35 28 81.5 43.5q46.5 15.5 102.5 15.5q106 0 171 -46q65 -46 91 -125l-106 -38q-19 52 -53.5 80.5q-34.5 28.5 -102.5 28.5q-34 0 -59 -9.5q-25 -9.5 -42.5 -25.5q-17.5 -16 -29 -37q-11.5 -21 -17.5 -45q-5 -17 -7.5 -31.5q-2.5 -14.5 -4 -31q-1.5 -16.5 -2 -36q-0.5 -19.5 -0.5 -46.5q0 -27 0.5 -46.5q0.5 -19.5 2 -36q1.5 -16.5 4 -31q2.5 -14.5 7.5 -31.5q6 -23 17.5 -44.5q11.5 -21.5 29 -37.5q17.5 -16 42.5 -25.5q25 -9.5 59 -9.5zt0 0zM223 -210l67 150h127l-94 -150z" />
<glyph unicode="&#291;" horiz-adv-x="552" d="M478 5q0 -47 -14.5 -86.5q-14.5 -39.5 -42 -68q-27.5 -28.5 -68.5 -44.5q-41 -16 -93 -16q-75 0 -122.5 22.5q-47.5 22.5 -79.5 72.5l95 49q21 -29 45 -41.5q24 -12.5 59 -12.5q54 0 81.5 35.5q27.5 35.5 27.5 93.5v41h-4q-25 -31 -61.5 -45.5q-36.5 -14.5 -74.5 -14.5q-54 0 -99 28.5q-45 28.5 -67 90.5q-11 30 -13.5 65q-2.5 35 -2.5 76q0 41 2.5 76.5q2.5 35.5 13.5 65.5q22 62 67 90q45 28 99 28q38 0 74.5 -14.5q36.5 -14.5 61.5 -45.5l4 0v50h112zM366 300q0 53 -29.5 85.5q-29.5 32.5 -74.5 32.5q-30 0 -54.5 -15.5q-24.5 -15.5 -35.5 -47.5q-8 -23 -10 -45q-2 -22 -2 -60q0 -38 2 -60.5q2 -22.5 10 -44.5q11 -32 35.5 -47.5q24.5 -15.5 54.5 -15.5q45 0 74.5 32.5q29.5 32.5 29.5 85.5zM354 710l-66 -150h-116l93 150z" />
<glyph unicode="&#292;" horiz-adv-x="718" d="M84 700h120v-290h310v290h120v-700h-120v310h-310v-310h-120zM303 910h112l119 -160h-114l-61 91l-61 -91l-114 0z" />
<glyph unicode="&#293;" horiz-adv-x="564" d="M74 700h112v-250h4q23 26 57.5 43q34.5 17 76.5 17q75 0 122.5 -47.5q47.5 -47.5 47.5 -152.5v-310h-112v300q0 60 -24.5 89q-24.5 29 -69.5 29q-26 0 -45.5 -10q-19.5 -10 -32 -26q-12.5 -16 -18.5 -37.5q-6 -21.5 -6 -43.5v-301h-112zM111 910h102l117 -160h-105l-63 95l-63 -95l-105 0z" />
<glyph unicode="&#294;" horiz-adv-x="718" d="M84 523h-70v86h70v91h120v-91h310v91h120v-91h70v-86h-70v-523h-120v310h-310v-310h-120zM514 410v113h-310l0 -113z" />
<glyph unicode="&#295;" horiz-adv-x="594" d="M10 623h94v77h112v-77h196v-86h-196v-113h4q23 26 57.5 43q34.5 17 76.5 17q75 0 122.5 -47.5q47.5 -47.5 47.5 -152.5v-284h-112v274q0 60 -24.5 89q-24.5 29 -69.5 29q-26 0 -45.5 -10q-19.5 -10 -32 -26q-12.5 -16 -18.5 -37.5q-6 -21.5 -6 -43.5v-275h-112v537l-94 0z" />
<glyph unicode="&#298;" horiz-adv-x="288" d="M84 700h120v-700h-120zM19 856h250v-96l-250 0z" />
<glyph unicode="&#299;" horiz-adv-x="260" d="M74 500h112v-500h-112zM10 674h240v-88l-240 0z" />
<glyph unicode="&#302;" horiz-adv-x="288" d="M232 -200h-105q-49 0 -81 22q-32 22 -32 68q0 26 14 48.5q14 22.5 34 41.5l22 20v700h120v-700l-39 -36q-21 -19 -30 -32.5q-9 -13.5 -9 -27.5q0 -17 11 -22.5q11 -5.5 25 -5.5l70 0z" />
<glyph unicode="&#303;" horiz-adv-x="260" d="M220 -200h-97q-49 0 -81 22q-32 22 -32 68q0 25 11 46.5q11 21.5 31 41.5l22 22v500h112v-500l-35 -35q-19 -19 -31 -34.5q-12 -15.5 -12 -31.5q0 -15 11 -21q11 -6 28 -6h73zM70 700h120v-126l-120 0z" />
<glyph unicode="&#304;" horiz-adv-x="288" d="M84 700h120v-700h-120zM84 884h120v-124l-120 0z" />
<glyph unicode="&#305;" horiz-adv-x="260" d="M74 500h112v-500l-112 0z" />
<glyph unicode="&#306;" horiz-adv-x="750" d="M84 700h120v-700h-120zM391 142q13 -26 32 -40q19 -14 50 -14q35 0 58 25.5q23 25.5 23 82.5v504h120v-503q0 -52 -14 -91q-14 -39 -40 -65.5q-26 -26.5 -62.5 -39.5q-36.5 -13 -80.5 -13q-66 0 -112 26.5q-46 26.5 -75 77.5l101 50z" />
<glyph unicode="&#307;" horiz-adv-x="507" d="M70 700h120v-126h-120zM74 500h112v-500h-112zM433 -42q0 -46 -13 -78q-13 -32 -35 -51.5q-22 -19.5 -51.5 -28q-29.5 -8.5 -63.5 -8.5h-61v94h40q38 0 55 19q17 19 17 60v535h112zM317 700h120v-124l-120 0z" />
<glyph unicode="&#308;" horiz-adv-x="460" d="M101 142q13 -26 32 -40q19 -14 50 -14q35 0 58 25.5q23 25.5 23 82.5v504h120v-503q0 -52 -14 -91q-14 -39 -40 -65.5q-26 -26.5 -62.5 -39.5q-36.5 -13 -80.5 -13q-66 0 -112 26.5q-46 26.5 -75 77.5l101 50zM174 910h112l119 -160h-114l-61 91l-61 -91l-114 0z" />
<glyph unicode="&#309;" horiz-adv-x="262" d="M188 -42q0 -46 -13 -78q-13 -32 -35 -51.5q-22 -19.5 -51.5 -28q-29.5 -8.5 -63.5 -8.5h-61v94h40q38 0 55 19q17 19 17 60v535h112zM75 720h102l117 -160h-105l-63 95l-63 -95l-105 0z" />
<glyph unicode="&#310;" horiz-adv-x="630" d="M84 700h120v-316l256 316h142l-229 -280l257 -420h-142l-193 324l-91 -112v-212h-120zM204 -210l67 150h127l-94 -150z" />
<glyph unicode="&#311;" horiz-adv-x="526" d="M74 700h112v-396l180 196h140l-174 -187l194 -313h-136l-136 230l-68 -74v-156h-112zM162 -210l66 150h116l-93 -150z" />
<glyph unicode="&#313;" horiz-adv-x="524" d="M84 700h120v-600h310v-100h-430zM182 750l72 160h128l-100 -160z" />
<glyph unicode="&#314;" horiz-adv-x="298" d="M186 151q0 -30 12.5 -49.5q12.5 -19.5 42.5 -19.5h47v-92h-88q-60 0 -93 38q-33 38 -33 106v566h112zM99 750l72 150h118l-100 -150z" />
<glyph unicode="&#315;" horiz-adv-x="524" d="M84 700h120v-600h310v-100h-430zM148 -210l67 150h127l-94 -150z" />
<glyph unicode="&#316;" horiz-adv-x="298" d="M186 151q0 -30 12.5 -49.5q12.5 -19.5 42.5 -19.5h47v-92h-88q-60 0 -93 38q-33 38 -33 106v566h112zM45 -210l66 150h116l-93 -150z" />
<glyph unicode="&#317;" horiz-adv-x="524" d="M84 700h120v-600h310v-100h-430zM282 540l52 160h128l-80 -160z" />
<glyph unicode="&#318;" horiz-adv-x="298" d="M186 151q0 -30 12.5 -49.5q12.5 -19.5 42.5 -19.5h47v-92h-88q-60 0 -93 38q-33 38 -33 106v566h112zM211 560l62 150h118l-90 -150z" />
<glyph unicode="&#319;" horiz-adv-x="524" d="M84 700h120v-600h310v-100h-430zM332 424h120v-124l-120 0z" />
<glyph unicode="&#320;" horiz-adv-x="328" d="M186 151q0 -30 12.5 -49.5q12.5 -19.5 42.5 -19.5h47v-92h-88q-60 0 -93 38q-33 38 -33 106v566h112zM232 430h120v-124l-120 0z" />
<glyph unicode="&#321;" horiz-adv-x="524" d="M84 253l-74 -50v114l74 50v333h120v-252l127 86v-114l-127 -86v-234h310v-100l-430 0z" />
<glyph unicode="&#322;" horiz-adv-x="288" d="M186 440l102 63v-102l-102 -63v-187q0 -30 12.5 -49.5q12.5 -19.5 42.5 -19.5h47v-92h-88q-60 0 -93 38q-33 38 -33 106v136l-74 -45v102l74 45v328l112 0z" />
<glyph unicode="&#323;" horiz-adv-x="728" d="M204 0h-120v700h120l320 -482v482h120v-700h-120l-320 482zM284 750l72 160h128l-100 -160z" />
<glyph unicode="&#324;" horiz-adv-x="564" d="M74 500h112v-52h4q23 26 57.5 44q34.5 18 76.5 18q75 0 122.5 -47.5q47.5 -47.5 47.5 -152.5v-310h-112v300q0 60 -24.5 89q-24.5 29 -69.5 29q-26 0 -45.5 -10q-19.5 -10 -32 -26q-12.5 -16 -18.5 -37.5q-6 -21.5 -6 -43.5v-301h-112zM222 560l72 150h118l-100 -150z" />
<glyph unicode="&#325;" horiz-adv-x="728" d="M204 0h-120v700h120l320 -482v482h120v-700h-120l-320 482zM230 -210l67 150h127l-94 -150z" />
<glyph unicode="&#326;" horiz-adv-x="564" d="M74 500h112v-52h4q23 26 57.5 44q34.5 18 76.5 18q75 0 122.5 -47.5q47.5 -47.5 47.5 -152.5v-310h-112v300q0 60 -24.5 89q-24.5 29 -69.5 29q-26 0 -45.5 -10q-19.5 -10 -32 -26q-12.5 -16 -18.5 -37.5q-6 -21.5 -6 -43.5v-301h-112zM168 -210l66 150h116l-93 -150z" />
<glyph unicode="&#327;" horiz-adv-x="728" d="M204 0h-120v700h120l320 -482v482h120v-700h-120l-320 482zM420 750h-112l-119 160h114l61 -91l61 91l114 0z" />
<glyph unicode="&#328;" horiz-adv-x="564" d="M74 500h112v-52h4q23 26 57.5 44q34.5 18 76.5 18q75 0 122.5 -47.5q47.5 -47.5 47.5 -152.5v-310h-112v300q0 60 -24.5 89q-24.5 29 -69.5 29q-26 0 -45.5 -10q-19.5 -10 -32 -26q-12.5 -16 -18.5 -37.5q-6 -21.5 -6 -43.5v-301h-112zM333 560h-102l-117 150h106l62 -86l62 86l106 0z" />
<glyph unicode="&#332;" horiz-adv-x="674" d="M608 198q-9 -46 -31 -84.5q-22 -38.5 -56.5 -66.5q-34.5 -28 -81 -43.5q-46.5 -15.5 -102.5 -15.5q-56 0 -102.5 15.5q-46.5 15.5 -81 43.5q-34.5 28 -56.5 66.5q-22 38.5 -31 84.5q-4 19 -6 35.5q-2 16.5 -3.5 33.5q-1.5 17 -2 37q-0.5 20 -0.5 46q0 26 0.5 45.5q0.5 19.5 2 36.5q1.5 17 3.5 33.5q2 16.5 6 36.5q9 46 31 84.5q22 38.5 56.5 66.5q34.5 28 81 43.5q46.5 15.5 102.5 15.5q56 0 102.5 -15.5q46.5 -15.5 81 -43.5q34.5 -28 56.5 -66.5q22 -38.5 31 -84.5q4 -20 6 -36.5q2 -16.5 3.5 -33.5q1.5 -17 2 -36.5q0.5 -19.5 0.5 -45.5q0 -26 -0.5 -46q-0.5 -20 -2 -37q-1.5 -17 -3.5 -33.5q-2 -16.5 -6 -35.5zt0 0zM337 88q63 0 100 35q37 35 48 88q3 17 5.5 31.5q2.5 14.5 3.5 30q1 15.5 1.5 34q0.5 18.5 0.5 43.5q0 25 -0.5 43.5q-0.5 18.5 -1.5 34q-1 15.5 -3.5 30q-2.5 14.5 -5.5 31.5q-11 53 -48 88q-37 35 -100 35q-63 0 -100 -35.5q-37 -35.5 -48 -87.5q-4 -17 -6 -31.5q-2 -14.5 -3 -30q-1 -15.5 -1.5 -34q-0.5 -18.5 -0.5 -43.5q0 -25 0.5 -43.5q0.5 -18.5 1.5 -34q1 -15.5 3 -30q2 -14.5 6 -31.5q11 -53 48 -88q37 -35 100 -35zt0 0zM212 856h250v-96l-250 0z" />
<glyph unicode="&#333;" horiz-adv-x="528" d="M468 118q-21 -62 -75 -95q-54 -33 -129 -33q-75 0 -129 33q-54 33 -75 95q-11 31 -13.5 61q-2.5 30 -2.5 71q0 41 2.5 71q2.5 30 13.5 61q21 62 75 95q54 33 129 33q75 0 129 -33q54 -33 75 -95q11 -31 13.5 -61q2.5 -30 2.5 -71q0 -41 -2.5 -71q-2.5 -30 -13.5 -61zt0 0zM264 82q38 0 60 17q22 17 32 44q9 25 10.5 50q1.5 25 1.5 57q0 32 -1.5 57q-1.5 25 -10.5 50q-10 26 -32 43.5q-22 17.5 -60 17.5q-38 0 -60 -17.5q-22 -17.5 -32 -43.5q-9 -25 -10.5 -50q-1.5 -25 -1.5 -57q0 -32 1.5 -57q1.5 -25 10.5 -50q10 -27 32 -44q22 -17 60 -17zt0 0zM144 674h240v-88l-240 0z" />
</font>
</defs>
</svg>
