<svg xmlns="http://www.w3.org/2000/svg" id="Group_398" width="24" height="24" data-name="Group 398" viewBox="0 0 24 24">
    <defs>
        <style>
            .cls-1{fill:#fff}.cls-2,.cls-3{fill:none}.cls-2{stroke:#818181;stroke-linecap:round;stroke-width:1.5px}.cls-4,.cls-5{stroke:none}.cls-5{fill:#818181}
        </style>
    </defs>
    <g id="Path_809" class="cls-1" data-name="Path 809">
        <path d="M1.487 11.363c-.215 0-.494-.03-.606-.168-.292-.362-.03-1.578.145-2.383C1.167 8.157 1.3 7.539 1.3 7V4c0-1.792 1.362-3.25 3.035-3.25h9.462c1.673 0 3.035 1.458 3.035 3.25v3c0 1.792-1.362 3.25-3.035 3.25l-8.519.032h-.153l-.141.061c-1.568.677-2.745 1.02-3.498 1.02z" class="cls-4" transform="translate(1.417 2)"/>
        <path d="M4.336 1.5C3.076 1.5 2.05 2.621 2.05 4v3c0 .62-.142 1.276-.292 1.97-.098.451-.265 1.225-.263 1.643.372-.002 1.275-.131 3.192-.958l.282-.122.306-.001 8.516-.032h.006c1.26 0 2.285-1.122 2.285-2.5V4c0-1.379-1.025-2.5-2.285-2.5H4.336m0-1.5h9.462c2.09 0 3.785 1.79 3.785 4v3c0 2.21-1.695 4-3.785 4l-8.516.032c-1.78.768-2.989 1.081-3.795 1.081-2.663 0-.936-3.417-.936-5.113V4c0-2.21 1.695-4 3.785-4z" class="cls-5" transform="translate(1.417 2)"/>
    </g>
    <path id="Line_23" d="M9 0H0" class="cls-2" data-name="Line 23" transform="translate(6 6)"/>
    <path id="Line_24" d="M8 0H0" class="cls-2" data-name="Line 24" transform="translate(6 9)"/>
    <g id="Path_808" class="cls-1" data-name="Path 808">
        <path d="M16.095 11.363c-.752 0-1.93-.343-3.497-1.02l-.141-.06-.154-.001-8.515-.032C2.11 10.25.75 8.792.75 7V4C.75 2.208 2.111.75 3.785.75h9.462C14.92.75 16.28 2.208 16.28 4v3c0 .54.134 1.157.276 1.812.174.805.437 2.021.145 2.383-.112.139-.392.168-.607.168z" class="cls-4" transform="translate(5 10.887)"/>
        <path d="M3.785 1.5C2.525 1.5 1.5 2.621 1.5 4v3c0 1.378 1.025 2.5 2.285 2.5h.005l8.516.032.307.001.282.122c1.916.827 2.82.956 3.191.958.002-.418-.165-1.192-.262-1.643-.15-.694-.293-1.35-.293-1.97V4c0-1.379-1.025-2.5-2.284-2.5H3.785m0-1.5h9.462c2.09 0 3.784 1.79 3.784 4v3c0 1.696 1.728 5.113-.936 5.113-.806 0-2.014-.313-3.795-1.081L3.785 11C1.695 11 0 9.21 0 7V4c0-2.21 1.694-4 3.785-4z" class="cls-5" transform="translate(5 10.887)"/>
    </g>
    <path id="Line_21" d="M0 0h9" class="cls-2" data-name="Line 21" transform="translate(9 14.887)"/>
    <path id="Line_22" d="M0 0h8" class="cls-2" data-name="Line 22" transform="translate(9 17.887)"/>
    <path id="Rectangle_243" d="M0 0h24v24H0z" class="cls-3" data-name="Rectangle 243"/>
</svg>
