<svg xmlns="http://www.w3.org/2000/svg" width="34.879" height="36" viewBox="0 0 34.879 36">
    <defs>
        <style>
            .cls-1{fill:url(#radial-gradient)}.cls-2{fill:url(#radial-gradient-2)}.cls-3{fill:url(#linear-gradient)}.cls-4{fill:url(#radial-gradient-3)}.cls-5{fill:url(#radial-gradient-4)}.cls-6{fill:url(#radial-gradient-5)}.cls-7{fill:url(#radial-gradient-6)}.cls-8{fill:url(#radial-gradient-7)}.cls-9{fill:url(#linear-gradient-2)}.cls-10{fill:url(#linear-gradient-3)}.cls-11{fill:url(#linear-gradient-4)}.cls-12{fill:url(#linear-gradient-5)}.cls-13{fill:url(#linear-gradient-6)}.cls-14{fill:url(#linear-gradient-7)}
        </style>
        <radialGradient id="radial-gradient" cx="11612.935" cy="3077.836" r="4.566" fx="11611.883" gradientTransform="matrix(2.753 .123 -.181 4.046 -18449.418 -10422.638)" gradientUnits="userSpaceOnUse">
            <stop offset=".045" stop-color="#ffea00"/>
            <stop offset=".12" stop-color="#ffde00"/>
            <stop offset=".254" stop-color="#ffbf00"/>
            <stop offset=".429" stop-color="#ff8e00"/>
            <stop offset=".769" stop-color="#ff272d"/>
            <stop offset=".872" stop-color="#e0255a"/>
            <stop offset=".953" stop-color="#cc2477"/>
            <stop offset="1" stop-color="#c42482"/>
        </radialGradient>
        <radialGradient id="radial-gradient-2" cx="94.903" cy="91.373" r="35.272" gradientTransform="translate(-.135 -.036) scale(1.005)" gradientUnits="userSpaceOnUse">
            <stop offset="0" stop-color="#00ccda"/>
            <stop offset=".22" stop-color="#0083ff"/>
            <stop offset=".261" stop-color="#007af9"/>
            <stop offset=".33" stop-color="#0060e8"/>
            <stop offset=".333" stop-color="#005fe7"/>
            <stop offset=".438" stop-color="#2639ad"/>
            <stop offset=".522" stop-color="#401e84"/>
            <stop offset=".566" stop-color="#4a1475"/>
        </radialGradient>
        <linearGradient id="linear-gradient" x1=".573" x2=".351" y1=".752" y2=".068" gradientUnits="objectBoundingBox">
            <stop offset="0" stop-color="#000f43" stop-opacity=".4"/>
            <stop offset=".485" stop-color="#001962" stop-opacity=".173"/>
            <stop offset="1" stop-color="#002079" stop-opacity="0"/>
        </linearGradient>
        <radialGradient id="radial-gradient-3" cx="-192.355" cy="752.55" r="12.956" gradientTransform="matrix(.919 .093 -.093 .919 -67.617 90.877)" gradientUnits="userSpaceOnUse">
            <stop offset=".003" stop-color="#ffea00"/>
            <stop offset=".497" stop-color="#ff272d"/>
            <stop offset="1" stop-color="#c42482"/>
        </radialGradient>
        <radialGradient id="radial-gradient-4" cx="6024.926" cy="4511.033" r="10.817" gradientTransform="matrix(1.837 .185 -.185 1.837 -3565.116 -4367.137)" gradientUnits="userSpaceOnUse">
            <stop offset=".003" stop-color="#ffe900"/>
            <stop offset=".157" stop-color="#ffaf0e"/>
            <stop offset=".316" stop-color="#ff7a1b"/>
            <stop offset=".472" stop-color="#ff4e26"/>
            <stop offset=".621" stop-color="#ff2c2e"/>
            <stop offset=".762" stop-color="#ff1434"/>
            <stop offset=".892" stop-color="#ff0538"/>
            <stop offset="1" stop-color="#ff0039"/>
        </radialGradient>
        <radialGradient id="radial-gradient-5" cx="-1553.064" cy="-1947.395" r="34.362" gradientTransform="scale(.534) rotate(5.8 20966.49 -21907.684)" gradientUnits="userSpaceOnUse">
            <stop offset=".003" stop-color="#ff272d"/>
            <stop offset=".497" stop-color="#c42482"/>
            <stop offset=".986" stop-color="#620700"/>
        </radialGradient>
        <radialGradient id="radial-gradient-6" cx="72.453" cy="35.061" r="27.457" fx="73.476" fy="34.555" gradientTransform="translate(-1.582 -.805) scale(1.042)" gradientUnits="userSpaceOnUse">
            <stop offset=".156" stop-color="#ffea00"/>
            <stop offset=".231" stop-color="#ffde00"/>
            <stop offset=".365" stop-color="#ffbf00"/>
            <stop offset=".541" stop-color="#ff8e00"/>
            <stop offset=".763" stop-color="#ff272d"/>
            <stop offset=".796" stop-color="#f92433"/>
            <stop offset=".841" stop-color="#e91c45"/>
            <stop offset=".893" stop-color="#cf0e62"/>
            <stop offset=".935" stop-color="#b5007f"/>
        </radialGradient>
        <radialGradient id="radial-gradient-7" cx="7720.784" cy="25.275" r="13.397" gradientTransform="translate(-10840.49 -35.429) scale(2.522)" gradientUnits="userSpaceOnUse">
            <stop offset=".279" stop-color="#ffea00"/>
            <stop offset=".402" stop-color="#fd0"/>
            <stop offset=".63" stop-color="#ffba00"/>
            <stop offset=".856" stop-color="#ff9100"/>
            <stop offset=".933" stop-color="#ff6711"/>
            <stop offset=".994" stop-color="#ff4a1d"/>
        </radialGradient>
        <linearGradient id="linear-gradient-2" x1="-69.206" x2="-67.095" y1="-45.201" y2="-45.673" gradientUnits="objectBoundingBox">
            <stop offset="0" stop-color="#c42482" stop-opacity=".502"/>
            <stop offset=".474" stop-color="#ff272d" stop-opacity=".502"/>
            <stop offset=".486" stop-color="#ff2c2c" stop-opacity=".514"/>
            <stop offset=".675" stop-color="#ff7a1a" stop-opacity=".722"/>
            <stop offset=".829" stop-color="#ffb20d" stop-opacity=".871"/>
            <stop offset=".942" stop-color="#ffd605" stop-opacity=".965"/>
            <stop offset="1" stop-color="#ffe302"/>
        </linearGradient>
        <linearGradient id="linear-gradient-3" x1="1.177" x2=".677" y1="-7.361" y2="-8.226" gradientUnits="objectBoundingBox">
            <stop offset="0" stop-color="#891551" stop-opacity=".6"/>
            <stop offset="1" stop-color="#c42482" stop-opacity="0"/>
        </linearGradient>
        <linearGradient id="linear-gradient-4" x1="-1.042" x2="-.589" y1=".949" y2="1.329" gradientUnits="objectBoundingBox">
            <stop offset=".005" stop-color="#891551" stop-opacity=".502"/>
            <stop offset=".484" stop-color="#ff272d" stop-opacity=".502"/>
            <stop offset="1" stop-color="#ff272d" stop-opacity="0"/>
        </linearGradient>
        <linearGradient id="linear-gradient-5" x1="-.234" x2="-.234" y1="3.229" y2="2.516" gradientUnits="objectBoundingBox">
            <stop offset="0" stop-color="#c42482"/>
            <stop offset=".083" stop-color="#c42482" stop-opacity=".812"/>
            <stop offset=".206" stop-color="#c42482" stop-opacity=".565"/>
            <stop offset=".328" stop-color="#c42482" stop-opacity=".361"/>
            <stop offset=".447" stop-color="#c42482" stop-opacity=".204"/>
            <stop offset=".562" stop-color="#c42482" stop-opacity=".09"/>
            <stop offset=".673" stop-color="#c42482" stop-opacity=".024"/>
            <stop offset=".773" stop-color="#c42482" stop-opacity="0"/>
        </linearGradient>
        <linearGradient id="linear-gradient-6" x1=".063" x2=".924" y1=".016" y2=".895" gradientUnits="objectBoundingBox">
            <stop offset="0" stop-color="#fff14f"/>
            <stop offset=".268" stop-color="#ffee4c"/>
            <stop offset=".452" stop-color="#ffe643"/>
            <stop offset=".612" stop-color="#ffd834"/>
            <stop offset=".757" stop-color="#ffc41e"/>
            <stop offset=".892" stop-color="#ffab02"/>
            <stop offset=".902" stop-color="#ffa900"/>
            <stop offset=".949" stop-color="#ffa000"/>
            <stop offset="1" stop-color="#ff9100"/>
        </linearGradient>
        <linearGradient id="linear-gradient-7" x1=".718" x2=".427" y1=".072" y2=".819" gradientUnits="objectBoundingBox">
            <stop offset="0" stop-color="#ff8e00"/>
            <stop offset=".04" stop-color="#ff8e00" stop-opacity=".859"/>
            <stop offset=".084" stop-color="#ff8e00" stop-opacity=".729"/>
            <stop offset=".13" stop-color="#ff8e00" stop-opacity=".627"/>
            <stop offset=".178" stop-color="#ff8e00" stop-opacity=".557"/>
            <stop offset=".227" stop-color="#ff8e00" stop-opacity=".514"/>
            <stop offset=".282" stop-color="#ff8e00" stop-opacity=".502"/>
            <stop offset=".389" stop-color="#ff8e00" stop-opacity=".478"/>
            <stop offset=".524" stop-color="#ff8e00" stop-opacity=".416"/>
            <stop offset=".676" stop-color="#ff8e00" stop-opacity=".314"/>
            <stop offset=".838" stop-color="#ff8e00" stop-opacity=".173"/>
            <stop offset="1" stop-color="#ff8e00" stop-opacity="0"/>
        </linearGradient>
    </defs>
    <g id="firefox-logo" transform="translate(-35 -2)">
        <path id="Path_202" d="M781.776 93.558c-.876 1.02-1.284 3.316-.4 5.644s2.25 1.822 3.1 4.2a18.923 18.923 0 0 1 .6 7.339s1.347 3.9 2.285-.243c2.079-7.787-5.585-15.024-5.585-16.94z" class="cls-1" data-name="Path 202" transform="translate(-718.594 -88.208)"/>
        <path id="_Path_" d="M85.872 117.219A16.318 16.318 0 1 0 69.649 100.9a16.279 16.279 0 0 0 16.223 16.319z" class="cls-2" data-name="&lt;Path&gt;" transform="translate(-33.382 -79.562)"/>
        <path id="Path_203" d="M109.039 70.583a9.032 9.032 0 0 1-1.1.665 25.755 25.755 0 0 0 1.4-2.3 9.043 9.043 0 0 0 .922-1.158c.126-.2.268-.442.418-.725a15.654 15.654 0 0 0 1.946-7.032v-.007-.2a9.424 9.424 0 0 0-.209-2.04c.007.052.014.1.02.157-.008-.04-.015-.081-.024-.121l.036.219a6.974 6.974 0 0 1-.61 4.26l-.032.048a14.183 14.183 0 0 0 .076-5.546 22.233 22.233 0 0 0-1.294-3.748 11.524 11.524 0 0 0-2.854-3.922 31.164 31.164 0 0 0-2.176-2.344 6.309 6.309 0 0 1-1.5-2.227c-.141-.071-1.944-1.822-2.087-1.889-.787 1.22-3.262 5.037-2.085 8.6a8.868 8.868 0 0 0 3.3 4.234 5.87 5.87 0 0 1 1.21 2.823 10.139 10.139 0 0 1-.605 5.78 7.619 7.619 0 0 1-5.514 4.167c-4.744.431-6.481-2.382-6.481-2.382a5.522 5.522 0 0 0 4.709-.167c1.149-.711 1.844-1.238 2.408-1.03s1-.394.6-1.016a2.872 2.872 0 0 0-2.9-1.265c-1.15.187-2.2 1.1-3.71.216a3.127 3.127 0 0 1-.283-.185c-.1-.065.323.1.224.025a7.366 7.366 0 0 1-.947-.63c-.022-.021.228.08.205.059-1.409-1.16-1.233-1.944-1.189-2.435a1.412 1.412 0 0 1 .723-1.1c.208.114.338.2.338.2l-.137-.277c.017-.007.033-.005.05-.013.171.082.548.3.747.427a1.1 1.1 0 0 1 .341.345s.068-.038.018-.2a1.022 1.022 0 0 0-.353-.482h.016a2.972 2.972 0 0 1 .434.3 2.6 2.6 0 0 0 .174-1.028 1.481 1.481 0 0 0-.07-.568c-.054-.114.031-.159.125-.04a1.2 1.2 0 0 0-.081-.271v-.009c.118-.411 2.5-1.48 2.67-1.605a2.464 2.464 0 0 0 .7-.761 1.951 1.951 0 0 0 .256-.955c.013-.324-.138-.539-2.543-.791a1.611 1.611 0 0 1-1.263-.981 5.62 5.62 0 0 0-.122-.266 2.122 2.122 0 0 1-.094-.308 5.774 5.774 0 0 1 2.026-2.806c.053-.048-.212.012-.159-.036a4.985 4.985 0 0 1 .541-.255c.093-.044-.4-.252-.832-.2a2.057 2.057 0 0 0-.771.2c.1-.1.409-.225.336-.224a4.653 4.653 0 0 0-1.573.663.392.392 0 0 1 .031-.159 2.5 2.5 0 0 0-.983.847 1.621 1.621 0 0 0 .01-.2 3.091 3.091 0 0 0-.483.506l-.009.008a5.787 5.787 0 0 0-3.587-.339c-.223-.224-.331-.06-.838-1.173-.034-.067.026.066 0 0-.083-.216.051.288 0 0-.852.672-1.973 1.434-2.511 1.972-.007.021.628-.179 0 0-.22.063-.2.193-.238 1.372-.008.089 0 .189-.008.27a7.557 7.557 0 0 0-.833 1.252 18.921 18.921 0 0 0-1.772 4.818 12.234 12.234 0 0 1 .943-1.844 18.781 18.781 0 0 0-1.066 6.254 17.691 17.691 0 0 1 .459-1.853 17.306 17.306 0 0 0 1.275 7.356A17.948 17.948 0 0 0 84.662 71a16.536 16.536 0 0 0 24.377-.42z" class="cls-3" data-name="Path 203" transform="translate(-44.381 -39.182)"/>
        <path id="Path_204" d="M724.061 685.634c5.959-.69 8.6-6.831 5.209-6.951-3.059-.098-8.031 7.276-5.209 6.951z" class="cls-4" data-name="Path 204" transform="translate(-663.045 -651.925)"/>
        <path id="Path_205" d="M867.422 445.884c4.1-2.386 3.031-7.54 3.031-7.54a16.855 16.855 0 0 0-2.657 4.768c-1.062 2.901-2.838 4.213-.374 2.772z" class="cls-5" data-name="Path 205" transform="translate(-800.769 -420.38)"/>
        <path id="Path_206" d="M529.244 835.473c5.716 1.824 10.628-2.679 7.6-4.182-2.753-1.357-10.313 3.319-7.6 4.182z" class="cls-6" data-name="Path 206" transform="translate(-475.605 -798.714)"/>
        <path id="Path_207" d="M67.08 41.179c.139-.2.327-.824.493-1.105a6.159 6.159 0 0 0 1.016-2.957 15.085 15.085 0 0 0 .179-6.587A13.779 13.779 0 0 0 66 24.749c-1.178-1.316-.348-.887-1.489-1.848-1-1.108-1.969-2.206-2.5-2.647-3.815-3.189-3.729-3.867-3.655-3.982l-.054.06c-.045-.18-.077-.332-.077-.332a10.237 10.237 0 0 0-2.524 5.561 8.5 8.5 0 0 0 1.799 6.146 13.953 13.953 0 0 0 2.159 2.122 8.278 8.278 0 0 1 1.441 4.752 8.043 8.043 0 0 1-9.834 7.83 6.6 6.6 0 0 1-3.906-2.173 3.934 3.934 0 0 1-.493-.711 6.752 6.752 0 0 0 5.212-.165c1.271-.7 2.041-1.227 2.665-1.021s1.105-.39.666-1.007a3.32 3.32 0 0 0-3.215-1.254c-1.273.185-2.439 1.089-4.106.214a3.523 3.523 0 0 1-.313-.184c-.11-.065.357.1.248.025a8.277 8.277 0 0 1-1.048-.625c-.025-.02.252.079.227.059-1.559-1.151-1.365-1.928-1.316-2.415a1.4 1.4 0 0 1 .8-1.092c.23.113.374.2.374.2l-.152-.275c.019-.007.036-.005.055-.012.189.082.606.294.826.423a1.146 1.146 0 0 1 .378.342s.075-.037.02-.195a1.02 1.02 0 0 0-.391-.478h.018a3.323 3.323 0 0 1 .481.3 2.345 2.345 0 0 0 .192-1.019 1.328 1.328 0 0 0-.078-.563c-.06-.113.034-.158.138-.04a1.1 1.1 0 0 0-.089-.269v-.009c.131-.408 2.763-1.468 2.955-1.592a2.572 2.572 0 0 0 .775-.755 1.788 1.788 0 0 0 .283-.947c.009-.2-.053-.359-.75-.511a18.815 18.815 0 0 0-2.065-.273 1.76 1.76 0 0 1-1.4-.973 4.985 4.985 0 0 0-.135-.264 1.944 1.944 0 0 1-.1-.306 5.8 5.8 0 0 1 2.242-2.783c.059-.048-.234.012-.176-.036a5.832 5.832 0 0 1 .6-.253c.1-.043-.441-.25-.92-.2a2.483 2.483 0 0 0-.853.2c.108-.1.452-.223.372-.222a5.492 5.492 0 0 0-1.741.658.354.354 0 0 1 .034-.158 2.71 2.71 0 0 0-1.088.84 1.445 1.445 0 0 0 .011-.2 3.244 3.244 0 0 0-.534.5l-.01.008a7.1 7.1 0 0 0-3.97-.337 4.816 4.816 0 0 1-1.2-1.661c-.038-.066-.059.137-.088.072a5.081 5.081 0 0 1-.328-1.9 2.019 2.019 0 0 0-.824 1.063c-.069.154-.114.239-.158.324-.02.025.046-.282.036-.265a2.436 2.436 0 0 0-.306.462 3.558 3.558 0 0 0-.167.413l-.011.017c0-.054.013-.222 0-.188a8.638 8.638 0 0 0-.45 1.092 10.178 10.178 0 0 0-.472 2.728c-.009.089 0 .188-.009.268a7.477 7.477 0 0 0-.922 1.241 17.619 17.619 0 0 0-1.954 4.771 11.676 11.676 0 0 1 1.044-1.829 16.913 16.913 0 0 0-1.18 6.2 16.044 16.044 0 0 1 .508-1.838 15.571 15.571 0 0 0 1.407 7.295 16.967 16.967 0 0 0 6.718 7.613 14.7 14.7 0 0 0 3.915 1.875l.557.2a3.42 3.42 0 0 1-.172-.075 17.739 17.739 0 0 0 5.078.746c6.409.005 8.3-2.568 8.3-2.568l-.019.014q.136-.128.261-.265c-1.011.955-3.319 1.018-4.182.949 1.472-.432 2.44-.8 4.323-1.519q.331-.123.676-.28l.075-.034.137-.064a12.776 12.776 0 0 0 2.571-1.609 6.443 6.443 0 0 0 2.518-3.955 5.4 5.4 0 0 1-.189.451 5.242 5.242 0 0 1-2.741 2.23 25.207 25.207 0 0 0 1.551-2.284c.382-.38.502-.974.788-1.374z" class="cls-7" data-name="Path 207" transform="translate(0 -13.488)"/>
        <path id="Path_208" d="M608.222 31.3a12.12 12.12 0 0 0 1.988-2.926c1.35-2.838 3.437-7.558 1.793-12.487a17.656 17.656 0 0 0-5.348-8.107C602.977 4.406 601.95 2.9 601.95 2c0 0-4.247 4.734-2.405 9.672s5.614 4.757 8.11 9.91c2.937 6.064-2.376 12.681-6.77 14.533.269-.06 9.767-2.209 10.266-7.642-.011.1-.225 1.603-2.929 2.827z" class="cls-8" data-name="Path 208" transform="translate(-543.444)"/>
        <path id="Path_209" d="M382.833 260.289c.014-.321-.152-.536-2.805-.785a2 2 0 0 1-1.637-1.534 7.584 7.584 0 0 0-.462 3.347 6.426 6.426 0 0 0 .892 2.267s.06-.078.087-.107a14.614 14.614 0 0 1 2.831-1.447 2.324 2.324 0 0 0 1.094-1.741z" class="cls-9" data-name="Path 209" transform="translate(-330.36 -246.604)"/>
        <path id="Path_210" d="M119.869 110.241c-.038-.067-.059.137-.088.072a4.86 4.86 0 0 1-.319-1.9 2.019 2.019 0 0 0-.824 1.063c-.069.154-.114.239-.158.324-.02.025.046-.282.036-.265a2.6 2.6 0 0 0-.305.453 2.664 2.664 0 0 0-.169.431c-.014.052.014-.231 0-.2a9.825 9.825 0 0 0-.942 4.1 8.55 8.55 0 0 1 3.963-2.44 4.49 4.49 0 0 1-1.2-1.642z" class="cls-10" data-name="Path 210" transform="translate(-79.077 -102.517)"/>
        <path id="Path_211" d="M244.106 462.053c-2.551-1.089-5.451-2.625-5.341-6.115.149-4.6 4.286-3.687 4.286-3.687a1.5 1.5 0 0 0-.721.652 1.98 1.98 0 0 0 .423 2.228c1.357 1.47-2.788 3.489 3.61 7.3a6.155 6.155 0 0 1-2.255-.379z" class="cls-11" data-name="Path 211" transform="translate(-196.307 -433.708)"/>
        <path id="Path_212" d="M273.951 569.351a6.874 6.874 0 0 0 5.178-.178c.845-.47 1.928-1.223 2.595-1.037a4.532 4.532 0 0 0-1.54-.361c-.09 0-.2 0-.294-.012a4.97 4.97 0 0 0-.576.032 5.754 5.754 0 0 1-1.015.2c-.018 0 .318-.138.291-.132-.174.036-.363.044-.562.069-.127.014-.236.03-.362.035a11.42 11.42 0 0 1-6.952-2.042c-.271.913 1.213 2.718 3.239 3.423z" class="cls-12" data-name="Path 212" transform="translate(-227.058 -543.297)"/>
        <path id="Path_213" d="M640.915 53.776c3.811-3.742 5.739-8.29 4.924-13.391a10.786 10.786 0 0 1-.909 5.291 14.036 14.036 0 0 0-.914-9.219 20.305 20.305 0 0 0-6.883-7.832 7.575 7.575 0 0 1-2.845-3.325c-.6 1.225-2.406 5.422-.194 9.037 2.072 3.386 5.336 4.392 7.622 7.5 4.209 5.72-.801 11.939-.801 11.939z" class="cls-13" data-name="Path 213" transform="translate(-576.144 -22.448)"/>
        <path id="Path_214" d="M375.408 399.252a14.316 14.316 0 0 0-4.567-5.252c.183.256.228.347.329.512a9.713 9.713 0 0 1 1.943 9.589c-2.789 8.5-13.944 4.5-15.114 3.374.473 4.92 8.709 7.275 14.071 4.084 3.052-2.888 5.52-7.798 3.338-12.307z" class="cls-14" data-name="Path 214" transform="translate(-311.183 -377.659)"/>
    </g>
</svg>
