<svg xmlns="http://www.w3.org/2000/svg" width="24" height="25" viewBox="0 0 24 25">
    <defs>
        <style>
            .cls-1,.cls-2{fill:none}.cls-2,.cls-3{stroke:#fff;stroke-width:1.5px}.cls-3,.cls-4{fill:none}.cls-3{stroke-linecap:round}.cls-5,.cls-6{stroke:none}.cls-6{fill:#fff}
        </style>
    </defs>
    <g id="Symbol_2_1" data-name="Symbol 2 – 1" transform="translate(-1624 -956)">
        <g id="Group_404" data-name="Group 404" transform="translate(1623.636 955.5)">
            <g id="Union_25" class="cls-1" data-name="Union 25">
                <path d="M-8324.272-2148.465c-1.225 0-2.413-.193-3.258-.532-.75-.3-.992-.612-.992-.717 0-.005 0-.022.015-.054l.354-.724-.747-.3c-1.87-.754-2.988-1.9-2.988-3.065 0-.955.734-1.888 2.065-2.626 1.47-.817 3.442-1.266 5.55-1.266 2.109 0 4.079.45 5.55 1.266 1.33.738 2.063 1.671 2.063 2.626 0 1.165-1.115 2.31-2.985 3.064l-.746.3.353.724c.016.033.016.05.016.055 0 .105-.244.417-.994.717-.845.339-2.032.532-3.256.532z" class="cls-5" transform="translate(8336.637 2173.215)"/>
                <path d="M-8324.272-2149.215c1.65 0 2.842-.364 3.353-.65l-.499-1.022 1.493-.602c1.528-.616 2.515-1.545 2.515-2.368 0-.65-.627-1.388-1.678-1.97-1.34-.745-3.23-1.172-5.184-1.172-1.956 0-3.846.427-5.187 1.171-1.052.584-1.679 1.32-1.679 1.971 0 .823.989 1.753 2.518 2.368l1.494.602-.499 1.023c.51.285 1.702.65 3.353.65m0 1.5c-2.763 0-5-.896-5-2 0-.131.03-.26.091-.383-2.094-.844-3.457-2.214-3.457-3.76 0-2.563 3.746-4.642 8.366-4.642 4.617 0 8.362 2.079 8.362 4.642 0 1.546-1.361 2.916-3.454 3.76.06.124.092.252.092.383 0 1.104-2.24 2-5 2z" class="cls-6" transform="translate(8336.637 2173.215)"/>
            </g>
            <g id="Rectangle_248" class="cls-2" data-name="Rectangle 248" transform="translate(6 1)">
                <rect width="12.727" height="20" class="cls-5" rx="6.364"/>
                <rect width="11.227" height="18.5" x=".75" y=".75" class="cls-4" rx="5.614"/>
            </g>
            <path id="Path_811" d="M0 0a14.867 14.867 0 0 0 2.5.246A14.867 14.867 0 0 0 5 0" class="cls-3" data-name="Path 811" transform="translate(9.863 13.117)"/>
            <path id="Path_812" d="M0 0a14.867 14.867 0 0 0 2.5.246A14.867 14.867 0 0 0 5 0" class="cls-3" data-name="Path 812" transform="translate(9.863 9.979)"/>
            <path id="Path_813" d="M0 0a14.867 14.867 0 0 0 2.5.246A14.867 14.867 0 0 0 5 0" class="cls-3" data-name="Path 813" transform="translate(9.863 6.657)"/>
        </g>
        <path id="Rectangle_243" d="M0 0h24v24H0z" class="cls-4" data-name="Rectangle 243" transform="translate(1624 956)"/>
    </g>
</svg>
