<svg xmlns="http://www.w3.org/2000/svg" width="36" height="36" viewBox="0 0 36 36">
    <defs>
        <style>
            .cls-1{fill:url(#linear-gradient)}.cls-2{fill:url(#radial-gradient)}.cls-3{fill:#f4f2f3}.cls-4{opacity:.409}.cls-5{fill:#ff5150}.cls-6{fill:#f1f1f1}.cls-7{opacity:.243}
        </style>
        <linearGradient id="linear-gradient" x1="1.474" x2="1.474" y1=".909" y2="-1.935" gradientUnits="objectBoundingBox">
            <stop offset="0" stop-color="#fff"/>
            <stop offset="1" stop-color="#fff"/>
        </linearGradient>
        <radialGradient id="radial-gradient" cx="339.762" cy="197.277" r="18" gradientUnits="userSpaceOnUse">
            <stop offset="0" stop-color="#06c2e7"/>
            <stop offset=".25" stop-color="#0db8ec"/>
            <stop offset=".5" stop-color="#12aef1"/>
            <stop offset=".75" stop-color="#1f86f9"/>
            <stop offset="1" stop-color="#107ddd"/>
        </radialGradient>
    </defs>
    <g id="Safari_browser_logo" data-name="Safari browser logo" transform="translate(-320.644 -180.652)">
        <g id="g2858" transform="translate(320.643 180.652)">
            <path id="path826" d="M356.643 198.652a18 18 0 1 1-18-18 18 18 0 0 1 18 18z" class="cls-1" transform="translate(-320.643 -180.652)"/>
            <path id="circle828" d="M356.277 199.7a16.59 16.59 0 1 1-16.59-16.59 16.59 16.59 0 0 1 16.59 16.59z" class="cls-2" transform="translate(-321.688 -181.696)"/>
            <path id="rect830" d="M340.339 184.612a.241.241 0 0 0-.242.242v2.79a.242.242 0 1 0 .484 0v-2.79a.241.241 0 0 0-.242-.242zm-1.582.1a.221.221 0 0 0-.049 0 .241.241 0 0 0-.215.266l.122 1.167a.242.242 0 0 0 .481-.05l-.122-1.167a.241.241 0 0 0-.217-.216zm3.176 0a.241.241 0 0 0-.217.216l-.123 1.167a.242.242 0 0 0 .481.051l.123-1.167a.241.241 0 0 0-.215-.266.255.255 0 0 0-.049 0zm-4.8.235a.246.246 0 0 0-.049.005.241.241 0 0 0-.187.287l.578 2.729a.242.242 0 0 0 .473-.1l-.578-2.729a.241.241 0 0 0-.238-.192zm6.426 0a.241.241 0 0 0-.238.192l-.58 2.729a.242.242 0 0 0 .473.1l.58-2.729a.241.241 0 0 0-.186-.287.237.237 0 0 0-.049-.005zm-7.978.435a.234.234 0 0 0-.1.011.241.241 0 0 0-.155.3l.363 1.116a.242.242 0 1 0 .46-.149l-.363-1.116a.241.241 0 0 0-.209-.166zm9.52 0a.241.241 0 0 0-.209.166l-.363 1.116a.242.242 0 0 0 .46.15l.363-1.116a.242.242 0 0 0-.251-.316zm-11.054.561a.242.242 0 0 0-.217.34l1.133 2.549a.242.242 0 0 0 .442-.2l-1.133-2.549a.241.241 0 0 0-.226-.137zm12.605.009a.242.242 0 0 0-.226.144l-1.137 2.548a.242.242 0 0 0 .442.2l1.137-2.548a.242.242 0 0 0-.216-.341zm-14.029.745a.242.242 0 0 0-.226.362l.587 1.016a.242.242 0 1 0 .419-.242l-.587-1.016a.241.241 0 0 0-.193-.121zm15.434 0a.241.241 0 0 0-.193.121l-.587 1.016a.242.242 0 0 0 .419.242l.587-1.016a.242.242 0 0 0-.226-.362zm-16.816.862a.242.242 0 0 0-.188.384l1.638 2.258a.242.242 0 1 0 .392-.284l-1.638-2.258a.241.241 0 0 0-.2-.1zm18.216.012a.241.241 0 0 0-.2.1l-1.641 2.256a.242.242 0 0 0 .391.285l1.641-2.256a.242.242 0 0 0-.187-.384zM330 188.6a.242.242 0 0 0-.192.4l.785.872a.242.242 0 0 0 .359-.324l-.785-.872a.241.241 0 0 0-.167-.08zm20.672 0a.242.242 0 0 0-.167.08l-.785.872a.242.242 0 1 0 .359.324l.785-.872a.242.242 0 0 0-.192-.4zm-21.857 1.136a.242.242 0 0 0-.149.422l2.073 1.867a.242.242 0 0 0 .324-.359l-2.074-1.867a.241.241 0 0 0-.175-.062zm23.047.008a.241.241 0 0 0-.175.062l-2.075 1.865a.242.242 0 1 0 .323.36l2.075-1.865a.242.242 0 0 0-.149-.422zM327.835 191a.242.242 0 0 0-.151.438l.949.69a.242.242 0 0 0 .284-.391l-.949-.69a.242.242 0 0 0-.134-.046zm25.016.009a.242.242 0 0 0-.134.046l-.95.689a.242.242 0 1 0 .284.392l.95-.689a.242.242 0 0 0-.15-.438zm-25.936 1.342a.242.242 0 0 0-.1.451l2.416 1.395a.242.242 0 1 0 .242-.419l-2.416-1.395a.242.242 0 0 0-.138-.032zm26.85 0a.239.239 0 0 0-.138.032l-2.416 1.395a.242.242 0 1 0 .242.419l2.416-1.395a.242.242 0 0 0-.1-.451zm-27.546 1.44a.242.242 0 0 0-.1.463l1.072.478a.242.242 0 1 0 .2-.442l-1.072-.478a.241.241 0 0 0-.101-.018zm28.247.01a.242.242 0 0 0-.094.021l-1.072.477a.242.242 0 1 0 .2.442l1.072-.477a.242.242 0 0 0-.1-.463zM325.6 195.3a.242.242 0 0 0-.054.471l2.653.864a.242.242 0 0 0 .15-.46l-2.653-.864a.242.242 0 0 0-.1-.011zm29.486.01a.235.235 0 0 0-.1.011l-2.653.862a.242.242 0 1 0 .15.46l2.653-.862a.242.242 0 0 0-.054-.471zm-29.873 1.57a.242.242 0 0 0-.052.479l1.148.244a.242.242 0 1 0 .1-.473l-1.148-.244a.237.237 0 0 0-.049-.005zm30.256 0a.3.3 0 0 0-.049.005l-1.148.244a.242.242 0 0 0 .1.473l1.148-.244a.242.242 0 0 0-.052-.479zm-30.549 1.587a.242.242 0 0 0 0 .481l2.774.293a.242.242 0 1 0 .051-.481l-2.774-.293a.245.245 0 0 0-.049 0zm30.843.021a.221.221 0 0 0-.049 0l-2.775.29a.242.242 0 1 0 .05.481l2.775-.29a.242.242 0 0 0 0-.481zm-30.89 1.606a.242.242 0 0 0 0 .484h1.174a.242.242 0 1 0 0-.484zm29.761 0a.242.242 0 1 0 0 .484h1.174a.242.242 0 0 0 0-.484zm-26.894 1.319a.22.22 0 0 0-.049 0l-2.775.29a.242.242 0 1 0 .05.481l2.775-.29a.242.242 0 0 0 0-.481zm25.2.017a.242.242 0 0 0 0 .481l2.774.293a.242.242 0 0 0 .051-.481l-2.774-.293a.25.25 0 0 0-.053 0zm-26.582 1.634a.248.248 0 0 0-.049.005l-1.148.244a.242.242 0 0 0 .1.473l1.148-.244a.242.242 0 0 0-.052-.479zm27.966 0a.242.242 0 0 0-.052.479l1.148.244a.242.242 0 1 0 .1-.473l-1.148-.244a.237.237 0 0 0-.049-.005zm-26.033.953a.234.234 0 0 0-.1.011l-2.653.862a.242.242 0 1 0 .15.46l2.653-.862a.242.242 0 0 0-.054-.471zm24.1.009a.242.242 0 0 0-.054.471l2.653.864a.242.242 0 1 0 .15-.46l-2.653-.864a.242.242 0 0 0-.1-.011zm-25.11 1.88a.242.242 0 0 0-.094.021l-1.072.477a.242.242 0 0 0 .2.442l1.072-.477a.242.242 0 0 0-.1-.463zm26.121.009a.242.242 0 0 0-.1.463l1.072.478a.242.242 0 1 0 .2-.442l-1.072-.478a.241.241 0 0 0-.102-.019zm-24.034.524a.239.239 0 0 0-.138.032l-2.416 1.395a.242.242 0 1 0 .242.419l2.416-1.395a.242.242 0 0 0-.1-.451zm21.951 0a.242.242 0 0 0-.1.451l2.416 1.395a.242.242 0 1 0 .242-.419l-2.416-1.395a.241.241 0 0 0-.138-.032zm-22.553 2.047a.242.242 0 0 0-.134.046l-.95.689a.242.242 0 1 0 .284.392l.95-.689a.242.242 0 0 0-.15-.438zm23.15.008a.242.242 0 0 0-.151.438l.949.69a.242.242 0 0 0 .284-.391l-.949-.69a.242.242 0 0 0-.134-.046zm-21 .083a.24.24 0 0 0-.175.062l-2.075 1.865a.242.242 0 0 0 .323.36l2.073-1.864a.242.242 0 0 0-.149-.422zm18.848.007a.242.242 0 0 0-.149.422l2.073 1.867a.242.242 0 1 0 .324-.359l-2.074-1.867a.241.241 0 0 0-.178-.06zm-16.879 1.772a.241.241 0 0 0-.2.1l-1.641 2.256a.242.242 0 1 0 .391.285l1.641-2.256a.242.242 0 0 0-.187-.384zm14.9.01a.242.242 0 0 0-.188.384l1.638 2.258a.242.242 0 0 0 .392-.284l-1.638-2.258a.241.241 0 0 0-.2-.1zm-17.022.348a.242.242 0 0 0-.167.08l-.785.872a.242.242 0 1 0 .359.324l.785-.872a.242.242 0 0 0-.192-.4zm19.152 0a.242.242 0 0 0-.192.4l.785.872a.242.242 0 1 0 .359-.324l-.785-.872a.241.241 0 0 0-.167-.08zm-14.742.967a.241.241 0 0 0-.225.143l-1.137 2.548a.242.242 0 0 0 .442.2l1.137-2.548a.242.242 0 0 0-.216-.341zm10.318.007a.242.242 0 0 0-.217.34l1.133 2.549a.242.242 0 0 0 .442-.2l-1.133-2.549a.241.241 0 0 0-.225-.144zm-12.315.781a.241.241 0 0 0-.193.121l-.587 1.016a.242.242 0 1 0 .419.242l.587-1.016a.242.242 0 0 0-.226-.362zm14.328 0a.242.242 0 0 0-.226.362l.587 1.016a.242.242 0 1 0 .419-.242l-.587-1.016a.241.241 0 0 0-.193-.121zm-9.8.036a.241.241 0 0 0-.238.192l-.58 2.729a.242.242 0 0 0 .473.1l.58-2.729a.241.241 0 0 0-.186-.287.236.236 0 0 0-.049-.005zm5.263 0a.245.245 0 0 0-.049.005.241.241 0 0 0-.187.287l.578 2.729a.242.242 0 0 0 .473-.1l-.582-2.726a.241.241 0 0 0-.238-.192zm-2.627.275a.241.241 0 0 0-.242.242v2.79a.242.242 0 0 0 .484 0v-2.79a.241.241 0 0 0-.243-.235zm-4.44.9a.241.241 0 0 0-.209.166l-.363 1.116a.242.242 0 1 0 .46.149l.362-1.111a.242.242 0 0 0-.251-.316zm8.878 0a.235.235 0 0 0-.1.011.241.241 0 0 0-.155.3l.363 1.116a.242.242 0 0 0 .46-.149l-.363-1.116a.241.241 0 0 0-.209-.166zm-5.956.622a.241.241 0 0 0-.217.215l-.123 1.167a.242.242 0 0 0 .481.051l.123-1.167a.241.241 0 0 0-.215-.266.247.247 0 0 0-.05.009zm3.027 0a.221.221 0 0 0-.049 0 .241.241 0 0 0-.215.266l.122 1.167a.242.242 0 0 0 .481-.05l-.122-1.167a.241.241 0 0 0-.218-.206z" class="cls-3" transform="translate(-322.339 -182.336)"/>
            <path id="path2150" d="M148.916 35.367l-13.233 7.688-8.367 13.172 12.24-9.066z" class="cls-4" transform="translate(-119.58 -27.042)"/>
            <g id="g2847" transform="translate(6.441 6.963)">
                <path id="path2096" d="M352.461 205.792l-3.793-3.972 13.455-9.051z" class="cls-5" transform="translate(-339.006 -192.768)"/>
                <path id="path2099" d="M345.308 212.493l-3.793-3.972-9.662 13.024z" class="cls-6" transform="translate(-331.853 -199.469)"/>
                <path id="path2112" d="M331.853 214.843l13.455-9.051 9.662-13.024z" class="cls-7" transform="translate(-331.853 -192.768)"/>
            </g>
        </g>
    </g>
</svg>
